  0
SECTION
  2
HEADER
  9
$ACADVER
  1
AC1015
  9
$ACADMAINTVER
 70
     6
  9
$DWGCODEPAGE
  3
ANSI_1252
  9
$INSBASE
 10
0.0
 20
0.0
 30
0.0
  9
$EXTMIN
 10
-68.9833652145
 20
-36.875
 30
0.0
  9
$EXTMAX
 10
68.9833652145
 20
60.4583652145
 30
0.0
  9
$LIMMIN
 10
0.0
 20
0.0
  9
$LIMMAX
 10
420.0
 20
297.0
  9
$ORTHOMODE
 70
     0
  9
$REGENMODE
 70
     1
  9
$FILLMODE
 70
     1
  9
$QTEXTMODE
 70
     0
  9
$MIRRTEXT
 70
     1
  9
$LTSCALE
 40
1.0
  9
$ATTMODE
 70
     1
  9
$TEXTSIZE
 40
3.5
  9
$TRACEWID
 40
1.0
  9
$TEXTSTYLE
  7
Standard
  9
$CLAYER
  8
0
  9
$CELTYPE
  6
ByLayer
  9
$CECOLOR
 62
   256
  9
$CELTSCALE
 40
1.0
  9
$DISPSILH
 70
     0
  9
$DIMSCALE
 40
1.0
  9
$DIMASZ
 40
3.302
  9
$DIMEXO
 40
0.0
  9
$DIMDLI
 40
3.75
  9
$DIMRND
 40
0.0
  9
$DIMDLE
 40
0.0
  9
$DIMEXE
 40
1.0
  9
$DIMTP
 40
0.0
  9
$DIMTM
 40
0.0
  9
$DIMTXT
 40
3.5
  9
$DIMCEN
 40
2.5
  9
$DIMTSZ
 40
0.0
  9
$DIMTOL
 70
     0
  9
$DIMLIM
 70
     0
  9
$DIMTIH
 70
     1
  9
$DIMTOH
 70
     1
  9
$DIMSE1
 70
     0
  9
$DIMSE2
 70
     0
  9
$DIMTAD
 70
     1
  9
$DIMZIN
 70
     1
  9
$DIMBLK
  1

  9
$DIMASO
 70
     1
  9
$DIMSHO
 70
     1
  9
$DIMPOST
  1

  9
$DIMAPOST
  1

  9
$DIMALT
 70
     0
  9
$DIMALTD
 70
     3
  9
$DIMALTF
 40
0.0393700787
  9
$DIMLFAC
 40
1.0
  9
$DIMTOFL
 70
     1
  9
$DIMTVP
 40
0.0
  9
$DIMTIX
 70
     0
  9
$DIMSOXD
 70
     0
  9
$DIMSAH
 70
     0
  9
$DIMBLK1
  1

  9
$DIMBLK2
  1

  9
$DIMSTYLE
  2
ISO-25
  9
$DIMCLRD
 70
     0
  9
$DIMCLRE
 70
     0
  9
$DIMCLRT
 70
     0
  9
$DIMTFAC
 40
1.0
  9
$DIMGAP
 40
1.524
  9
$DIMJUST
 70
     0
  9
$DIMSD1
 70
     0
  9
$DIMSD2
 70
     0
  9
$DIMTOLJ
 70
     0
  9
$DIMTZIN
 70
     1
  9
$DIMALTZ
 70
     0
  9
$DIMALTTZ
 70
     0
  9
$DIMUPT
 70
     0
  9
$DIMDEC
 70
     2
  9
$DIMTDEC
 70
     2
  9
$DIMALTU
 70
     2
  9
$DIMALTTD
 70
     3
  9
$DIMTXSTY
  7
Standard
  9
$DIMAUNIT
 70
     0
  9
$DIMADEC
 70
     2
  9
$DIMALTRND
 40
0.0
  9
$DIMAZIN
 70
     0
  9
$DIMDSEP
 70
    44
  9
$DIMATFIT
 70
     3
  9
$DIMFRAC
 70
     0
  9
$DIMLDRBLK
  1

  9
$DIMLUNIT
 70
     2
  9
$DIMLWD
 70
    -2
  9
$DIMLWE
 70
    -2
  9
$DIMTMOVE
 70
     0
  9
$LUNITS
 70
     2
  9
$LUPREC
 70
     2
  9
$SKETCHINC
 40
1.0
  9
$FILLETRAD
 40
0.0
  9
$AUNITS
 70
     0
  9
$AUPREC
 70
     2
  9
$MENU
  1
.
  9
$ELEVATION
 40
0.0
  9
$PELEVATION
 40
0.0
  9
$THICKNESS
 40
0.0
  9
$LIMCHECK
 70
     0
  9
$CHAMFERA
 40
0.0
  9
$CHAMFERB
 40
0.0
  9
$CHAMFERC
 40
0.0
  9
$CHAMFERD
 40
0.0
  9
$SKPOLY
 70
     0
  9
$TDCREATE
 40
2460439.273110035
  9
$TDUCREATE
 40
2460439.439776701
  9
$TDUPDATE
 40
2460439.273166678
  9
$TDUUPDATE
 40
2460439.439833345
  9
$TDINDWG
 40
0.0000000116
  9
$TDUSRTIMER
 40
0.0000000116
  9
$USRTIMER
 70
     1
  9
$ANGBASE
 50
0.0
  9
$ANGDIR
 70
     0
  9
$PDMODE
 70
     0
  9
$PDSIZE
 40
-1.0
  9
$PLINEWID
 40
0.0
  9
$SPLFRAME
 70
     0
  9
$SPLINETYPE
 70
     6
  9
$SPLINESEGS
 70
     8
  9
$HANDSEED
  5
444
  9
$SURFTAB1
 70
     6
  9
$SURFTAB2
 70
     6
  9
$SURFTYPE
 70
     6
  9
$SURFU
 70
     6
  9
$SURFV
 70
     6
  9
$UCSBASE
  2

  9
$UCSNAME
  2

  9
$UCSORG
 10
0.0
 20
0.0
 30
0.0
  9
$UCSXDIR
 10
1.0
 20
0.0
 30
0.0
  9
$UCSYDIR
 10
0.0
 20
1.0
 30
0.0
  9
$UCSORTHOREF
  2

  9
$UCSORTHOVIEW
 70
     0
  9
$UCSORGTOP
 10
0.0
 20
0.0
 30
0.0
  9
$UCSORGBOTTOM
 10
0.0
 20
0.0
 30
0.0
  9
$UCSORGLEFT
 10
0.0
 20
0.0
 30
0.0
  9
$UCSORGRIGHT
 10
0.0
 20
0.0
 30
0.0
  9
$UCSORGFRONT
 10
0.0
 20
0.0
 30
0.0
  9
$UCSORGBACK
 10
0.0
 20
0.0
 30
0.0
  9
$PUCSBASE
  2

  9
$PUCSNAME
  2

  9
$PUCSORG
 10
0.0
 20
0.0
 30
0.0
  9
$PUCSXDIR
 10
1.0
 20
0.0
 30
0.0
  9
$PUCSYDIR
 10
0.0
 20
1.0
 30
0.0
  9
$PUCSORTHOREF
  2

  9
$PUCSORTHOVIEW
 70
     0
  9
$PUCSORGTOP
 10
0.0
 20
0.0
 30
0.0
  9
$PUCSORGBOTTOM
 10
0.0
 20
0.0
 30
0.0
  9
$PUCSORGLEFT
 10
0.0
 20
0.0
 30
0.0
  9
$PUCSORGRIGHT
 10
0.0
 20
0.0
 30
0.0
  9
$PUCSORGFRONT
 10
0.0
 20
0.0
 30
0.0
  9
$PUCSORGBACK
 10
0.0
 20
0.0
 30
0.0
  9
$USERI1
 70
     0
  9
$USERI2
 70
     0
  9
$USERI3
 70
     0
  9
$USERI4
 70
     0
  9
$USERI5
 70
     0
  9
$USERR1
 40
0.0
  9
$USERR2
 40
0.0
  9
$USERR3
 40
0.0
  9
$USERR4
 40
0.0
  9
$USERR5
 40
0.0
  9
$WORLDVIEW
 70
     1
  9
$SHADEDGE
 70
     3
  9
$SHADEDIF
 70
    70
  9
$TILEMODE
 70
     1
  9
$MAXACTVP
 70
    64
  9
$PINSBASE
 10
0.0
 20
0.0
 30
0.0
  9
$PLIMCHECK
 70
     0
  9
$PEXTMIN
 10
1.0000000000E+20
 20
1.0000000000E+20
 30
1.0000000000E+20
  9
$PEXTMAX
 10
-1.0000000000E+20
 20
-1.0000000000E+20
 30
-1.0000000000E+20
  9
$PLIMMIN
 10
0.0
 20
0.0
  9
$PLIMMAX
 10
420.0
 20
297.0
  9
$UNITMODE
 70
     0
  9
$VISRETAIN
 70
     1
  9
$PLINEGEN
 70
     0
  9
$PSLTSCALE
 70
     1
  9
$TREEDEPTH
 70
  3020
  9
$CMLSTYLE
  2
Standard
  9
$CMLJUST
 70
     0
  9
$CMLSCALE
 40
20.0
  9
$PROXYGRAPHICS
 70
     1
  9
$MEASUREMENT
 70
     1
  9
$CELWEIGHT
370
    -1
  9
$ENDCAPS
280
     0
  9
$JOINSTYLE
280
     0
  9
$LWDISPLAY
290
     1
  9
$INSUNITS
 70
     4
  9
$HYPERLINKBASE
  1

  9
$STYLESHEET
  1

  9
$XEDIT
290
     1
  9
$CEPSNTYPE
380
     0
  9
$PSTYLEMODE
290
     1
  9
$FINGERPRINTGUID
  2
{dc273d21-f23d-40a2-92d6-aecef56701c7}
  9
$VERSIONGUID
  2
{FAEB1C32-E019-11D5-929B-00C0DF256EC4}
  9
$EXTNAMES
290
     1
  9
$PSVPSCALE
 40
0.0
  9
$OLESTARTUP
290
     0
  0
ENDSEC
  0
SECTION
  2
CLASSES
  0
CLASS
  1
ACDBDICTIONARYWDFLT
  2
AcDbDictionaryWithDefault
  3
ObjectDBX Classes
 90
        0
280
     0
281
     0
  0
CLASS
  1
VISUALSTYLE
  2
AcDbVisualStyle
  3
ObjectDBX Classes
 90
     4095
280
     0
281
     0
  0
CLASS
  1
MATERIAL
  2
AcDbMaterial
  3
ObjectDBX Classes
 90
     1153
280
     0
281
     0
  0
CLASS
  1
SCALE
  2
AcDbScale
  3
ObjectDBX Classes
 90
     1153
280
     0
281
     0
  0
CLASS
  1
TABLESTYLE
  2
AcDbTableStyle
  3
ObjectDBX Classes
 90
     4095
280
     0
281
     0
  0
CLASS
  1
MLEADERSTYLE
  2
AcDbMLeaderStyle
  3
ACDB_MLEADERSTYLE_CLASS
 90
     4095
280
     0
281
     0
  0
CLASS
  1
SUN
  2
AcDbSun
  3
SCENEOE
 90
     1153
280
     0
281
     0
  0
CLASS
  1
ACDBPLACEHOLDER
  2
AcDbPlaceHolder
  3
ObjectDBX Classes
 90
        0
280
     0
281
     0
  0
CLASS
  1
LAYOUT
  2
AcDbLayout
  3
ObjectDBX Classes
 90
        0
280
     0
281
     0
  0
ENDSEC
  0
SECTION
  2
TABLES
  0
TABLE
  2
VPORT
  5
8
330
0
100
AcDbSymbolTable
 70
     1
  0
VPORT
  5
29
330
8
100
AcDbSymbolTableRecord
100
AcDbViewportTableRecord
  2
*Active
 70
     0
 10
0.0
 20
0.0
 11
1.0
 21
1.0
 12
0.0
 22
11.7916826073
 13
0.0
 23
0.0
 14
10.0
 24
10.0
 15
10.0
 25
10.0
 16
0.0
 26
0.0
 36
1.0
 17
0.0
 27
0.0
 37
0.0
 40
99.2800325188
 41
1.4174659442
 42
50.0
 43
0.0
 44
0.0
 50
0.0
 51
0.0
 71
     0
 72
   100
 73
     1
 74
     3
 75
     0
 76
     0
 77
     0
 78
     0
281
     0
 65
     1
110
0.0
120
0.0
130
0.0
111
1.0
121
0.0
131
0.0
112
0.0
122
1.0
132
0.0
 79
     0
146
0.0
  0
ENDTAB
  0
TABLE
  2
LTYPE
  5
5
330
0
100
AcDbSymbolTable
 70
     6
  0
LTYPE
  5
14
330
5
100
AcDbSymbolTableRecord
100
AcDbLinetypeTableRecord
  2
ByBlock
 70
     0
  3

 72
    65
 73
     0
 40
0.0
  0
LTYPE
  5
15
330
5
100
AcDbSymbolTableRecord
100
AcDbLinetypeTableRecord
  2
ByLayer
 70
     0
  3

 72
    65
 73
     0
 40
0.0
  0
LTYPE
  5
16
330
5
100
AcDbSymbolTableRecord
100
AcDbLinetypeTableRecord
  2
Continuous
 70
     0
  3
Solid line
 72
    65
 73
     0
 40
0.0
  0
LTYPE
  5
5E
330
5
100
AcDbSymbolTableRecord
100
AcDbLinetypeTableRecord
  2
HIDDEN
 70
     0
  3
Hidden __ __ __ __ __ __ __ __ __ __ __ __ __ __
 72
    65
 73
     2
 40
1.905
 49
1.27
 74
     0
 49
-0.635
 74
     0
  0
LTYPE
  5
5F
330
5
100
AcDbSymbolTableRecord
100
AcDbLinetypeTableRecord
  2
PHANTOM
 70
     0
  3
Phantom ______  __  __  ______  __  __  ______
 72
    65
 73
     6
 40
12.7
 49
6.35
 74
     0
 49
-1.27
 74
     0
 49
1.27
 74
     0
 49
-1.27
 74
     0
 49
1.27
 74
     0
 49
-1.27
 74
     0
  0
LTYPE
  5
60
330
5
100
AcDbSymbolTableRecord
100
AcDbLinetypeTableRecord
  2
CENTER
 70
     0
  3
Center ____ _ ____ _ ____ _ ____ _ ____ _ ____
 72
    65
 73
     4
 40
10.16
 49
6.35
 74
     0
 49
-1.27
 74
     0
 49
1.27
 74
     0
 49
-1.27
 74
     0
  0
LTYPE
  5
61
330
5
100
AcDbSymbolTableRecord
100
AcDbLinetypeTableRecord
  2
CENTERX2
 70
     0
  3
Center (2x) ________  __  ________  __  _____
 72
    65
 73
     4
 40
20.32
 49
12.7
 74
     0
 49
-2.54
 74
     0
 49
2.54
 74
     0
 49
-2.54
 74
     0
  0
LTYPE
  5
62
330
5
100
AcDbSymbolTableRecord
100
AcDbLinetypeTableRecord
  2
DOT2
 70
     0
  3
Dot (.5x) ........................................
 72
    65
 73
     2
 40
0.635
 49
0.0
 74
     0
 49
-0.635
 74
     0
  0
ENDTAB
  0
TABLE
  2
LAYER
  5
2
330
0
100
AcDbSymbolTable
 70
     2
  0
LAYER
  5
10
330
2
100
AcDbSymbolTableRecord
100
AcDbLayerTableRecord
  2
0
 70
     0
 62
     7
  6
Continuous
370
    -3
390
F
  0
LAYER
  5
63
330
2
100
AcDbSymbolTableRecord
100
AcDbLayerTableRecord
  2
BEND
 70
     0
 62
     7
  6
PHANTOM
370
    35
390
F
  0
ENDTAB
  0
TABLE
  2
STYLE
  5
3
330
0
100
AcDbSymbolTable
 70
     2
  0
STYLE
  5
11
330
3
100
AcDbSymbolTableRecord
100
AcDbTextStyleTableRecord
  2
Standard
 70
     0
 40
0.0
 41
1.0
 50
0.0
 71
     0
 42
3.5
  3
txt
  4

  0
STYLE
  5
440
330
3
100
AcDbSymbolTableRecord
100
AcDbTextStyleTableRecord
  2
SLDTEXTSTYLE0
 70
     0
 40
0.0
 41
0.7
 50
0.0
 71
     0
 42
3.5
  3
TXT
  4

  0
ENDTAB
  0
TABLE
  2
VIEW
  5
6
330
0
100
AcDbSymbolTable
 70
     0
  0
ENDTAB
  0
TABLE
  2
UCS
  5
7
330
0
100
AcDbSymbolTable
 70
     0
  0
ENDTAB
  0
TABLE
  2
APPID
  5
9
330
0
100
AcDbSymbolTable
 70
     1
  0
APPID
  5
12
330
9
100
AcDbSymbolTableRecord
100
AcDbRegAppTableRecord
  2
ACAD
 70
     0
  0
ENDTAB
  0
TABLE
  2
DIMSTYLE
  5
A
330
0
100
AcDbSymbolTable
 70
     1
100
AcDbDimStyleTable
  0
DIMSTYLE
105
27
330
A
100
AcDbSymbolTableRecord
100
AcDbDimStyleTableRecord
  2
ISO-25
 70
     0
 41
2.5
 42
0.625
 43
3.75
 44
1.25
 73
     0
 74
     0
 77
     1
 78
     8
140
2.5
141
2.5
143
0.0393700787
147
0.625
171
     3
172
     1
178
     0
271
     2
272
     2
274
     3
278
    44
283
     0
284
     8
340
11
  0
ENDTAB
  0
TABLE
  2
BLOCK_RECORD
  5
1
330
0
100
AcDbSymbolTable
 70
     1
  0
BLOCK_RECORD
  5
1F
330
1
100
AcDbSymbolTableRecord
100
AcDbBlockTableRecord
  2
*Model_Space
340
22
  0
BLOCK_RECORD
  5
1B
330
1
100
AcDbSymbolTableRecord
100
AcDbBlockTableRecord
  2
*Paper_Space
340
1E
  0
BLOCK_RECORD
  5
23
330
1
100
AcDbSymbolTableRecord
100
AcDbBlockTableRecord
  2
*Paper_Space0
340
26
  0
ENDTAB
  0
ENDSEC
  0
SECTION
  2
BLOCKS
  0
BLOCK
  5
20
330
1F
100
AcDbEntity
  8
0
100
AcDbBlockBegin
  2
*Model_Space
 70
     0
 10
0.0
 20
0.0
 30
0.0
  3
*Model_Space
  1

  0
ENDBLK
  5
21
330
1F
100
AcDbEntity
  8
0
100
AcDbBlockEnd
  0
BLOCK
  5
1C
330
1B
100
AcDbEntity
 67
     1
  8
0
100
AcDbBlockBegin
  2
*Paper_Space
 70
     0
 10
0.0
 20
0.0
 30
0.0
  3
*Paper_Space
  1

  0
ENDBLK
  5
1D
330
1B
100
AcDbEntity
 67
     1
  8
0
100
AcDbBlockEnd
  0
BLOCK
  5
24
330
23
100
AcDbEntity
  8
0
100
AcDbBlockBegin
  2
*Paper_Space0
 70
     0
 10
0.0
 20
0.0
 30
0.0
  3
*Paper_Space0
  1

  0
ENDBLK
  5
25
330
23
100
AcDbEntity
  8
0
100
AcDbBlockEnd
  0
ENDSEC
  0
SECTION
  2
ENTITIES
  0
CIRCLE
  5
D4
330
1F
100
AcDbEntity
  8
0
  6
Continuous
 62
     7
370
    25
100
AcDbCircle
 10
18.018000076
 20
49.5817655015
 30
0.0
 40
2.500000000000007
  0
CIRCLE
  5
D5
330
1F
100
AcDbEntity
  8
0
  6
Continuous
 62
     7
370
    25
100
AcDbCircle
 10
-0.793999924
 20
49.5817655015
 30
0.0
 40
2.499999999999993
  0
SPLINE
  5
DD
330
1F
100
AcDbEntity
  8
0
  6
Continuous
 62
     7
370
    25
100
AcDbSpline
210
0.0
220
0.0
230
1.0
 70
     8
 71
     3
 72
    11
 73
     7
 74
     0
 42
0.00000001
 43
0.00000001
 40
0.0
 40
0.0
 40
0.0
 40
0.0
 40
0.2419682460548117
 40
0.4839364921096283
 40
0.7397112358851105
 40
0.9999999999999999
 40
0.9999999999999999
 40
0.9999999999999999
 40
0.9999999999999999
 10
-10.00000000000001
 20
18.49393746011487
 30
0.0
 10
-9.995175272080251
 20
18.53279123745135
 30
0.0
 10
-9.98552581624074
 20
18.6104987921243
 30
0.0
 10
-9.913606064663869
 20
18.70852625362025
 30
0.0
 10
-9.812251805270915
 20
18.78131712251706
 30
0.0
 10
-9.72919315667595
 20
18.79022940664633
 30
0.0
 10
-9.687300574345892
 20
18.79472452669645
 30
0.0
  0
SPLINE
  5
DF
330
1F
100
AcDbEntity
  8
0
  6
Continuous
 62
     7
370
    25
100
AcDbSpline
210
0.0
220
0.0
230
1.0
 70
     8
 71
     3
 72
    11
 73
     7
 74
     0
 42
0.00000001
 43
0.00000001
 40
0.0
 40
0.0
 40
0.0
 40
0.0
 40
0.2444576330894464
 40
0.4999999999999993
 40
0.7555423669105542
 40
1.0
 40
1.0
 40
1.0
 40
1.0
 10
-9.687300574345892
 20
13.02914273558817
 30
0.0
 10
-9.727302591787893
 20
13.03373859788393
 30
0.0
 10
-9.809120485826337
 20
13.04313871813724
 30
0.0
 10
-9.908349697848054
 20
13.12079303774012
 30
0.0
 10
-9.986004017450934
 20
13.22002224976184
 30
0.0
 10
-9.995404137704245
 20
13.30184014380028
 30
0.0
 10
-10.00000000000001
 20
13.34184216124229
 30
0.0
  0
SPLINE
  5
E1
330
1F
100
AcDbEntity
  8
0
  6
Continuous
 62
     7
370
    25
100
AcDbSpline
210
0.0
220
0.0
230
1.0
 70
     8
 71
     3
 72
    11
 73
     7
 74
     0
 42
0.00000001
 43
0.00000001
 40
0.0
 40
0.0
 40
0.0
 40
0.0
 40
0.2608682532005351
 40
0.4973526868484427
 40
0.734000382119975
 40
1.0
 40
1.0
 40
1.0
 40
1.0
 10
-8.904062965326533
 20
13.19889385237183
 30
0.0
 10
-8.918634761671937
 20
13.17317540955215
 30
0.0
 10
-8.946416302643971
 20
13.12414247250061
 30
0.0
 10
-9.008520371978705
 20
13.06627927530705
 30
0.0
 10
-9.08836508091126
 20
13.03642493567869
 30
0.0
 10
-9.145064142182346
 20
13.03166282948721
 30
0.0
 10
-9.175069134226767
 20
13.02914273558817
 30
0.0
  0
SPLINE
  5
E4
330
1F
100
AcDbEntity
  8
0
  6
Continuous
 62
     7
370
    25
100
AcDbSpline
210
0.0
220
0.0
230
1.0
 70
     8
 71
     3
 72
    11
 73
     7
 74
     0
 42
0.00000001
 43
0.00000001
 40
0.0
 40
0.0
 40
0.0
 40
0.0
 40
0.2753315191118565
 40
0.5023757061838431
 40
0.7246684808881472
 40
1.0
 40
1.0
 40
1.0
 40
1.0
 10
3.999999999999993
 20
14.39608593916188
 30
0.0
 10
3.997227839338301
 20
14.34648918217105
 30
0.0
 10
3.992169696432741
 20
14.25599389162795
 30
0.0
 10
3.924698939068322
 20
14.13920935284614
 30
0.0
 10
3.808949152816191
 20
14.06969123980256
 30
0.0
 10
3.719128873699887
 20
14.06508724076557
 30
0.0
 10
3.66943203573707
 20
14.06253988513082
 30
0.0
  0
SPLINE
  5
E6
330
1F
100
AcDbEntity
  8
0
  6
Continuous
 62
     7
370
    25
100
AcDbSpline
210
0.0
220
0.0
230
1.0
 70
     8
 71
     3
 72
    11
 73
     7
 74
     0
 42
0.00000001
 43
0.00000001
 40
0.0
 40
0.0
 40
0.0
 40
0.0
 40
0.2610089966706489
 40
0.5123405528026543
 40
0.7585719840205281
 40
0.9999999999999999
 40
0.9999999999999999
 40
0.9999999999999999
 40
0.9999999999999999
 10
3.69027866411401
 20
18.79472452669645
 30
0.0
 10
3.732389416574717
 20
18.79048396120226
 30
0.0
 10
3.815049579518751
 20
18.78216005782268
 30
0.0
 10
3.913301481505048
 20
18.70649455356218
 30
0.0
 10
3.98978043558974
 20
18.61193108882543
 30
0.0
 10
3.99661592156722
 20
18.53300954558687
 30
0.0
 10
3.999999999999993
 20
18.49393746011487
 30
0.0
  0
SPLINE
  5
E8
330
1F
100
AcDbEntity
  8
0
  6
Continuous
 62
     7
370
    25
100
AcDbSpline
210
0.0
220
0.0
230
1.0
 70
     8
 71
     3
 72
    11
 73
     7
 74
     0
 42
0.00000001
 43
0.00000001
 40
0.0
 40
0.0
 40
0.0
 40
0.0
 40
0.2571521089581684
 40
0.4911640603926484
 40
0.7312116948323634
 40
1.0
 40
1.0
 40
1.0
 40
1.0
 10
2.907041055094654
 20
18.63390767921719
 30
0.0
 10
2.921583762667751
 20
18.65876160385681
 30
0.0
 10
2.949360533893328
 20
18.70623294131598
 30
0.0
 10
3.012552947500996
 20
18.760135807462
 30
0.0
 10
3.091033205691664
 20
18.79122182951203
 30
0.0
 10
3.147970550508045
 20
18.7935138082215
 30
0.0
 10
3.178047223994886
 20
18.79472452669645
 30
0.0
  0
SPLINE
  5
EC
330
1F
100
AcDbEntity
  8
0
  6
Continuous
 62
     7
370
    25
100
AcDbSpline
210
0.0
220
0.0
230
1.0
 70
     8
 71
     3
 72
    11
 73
     7
 74
     0
 42
0.00000001
 43
0.00000001
 40
0.0
 40
0.0
 40
0.0
 40
0.0
 40
0.2687883051676356
 40
0.5088359396073545
 40
0.7428478910418297
 40
1.0
 40
1.0
 40
1.0
 40
1.0
 10
-9.175069134226767
 20
18.79472452669645
 30
0.0
 10
-9.144992460739925
 20
18.7935138082215
 30
0.0
 10
-9.088055115923543
 20
18.79122182951203
 30
0.0
 10
-9.009574857732876
 20
18.760135807462
 30
0.0
 10
-8.94638244412521
 20
18.70623294131598
 30
0.0
 10
-8.91860567289963
 20
18.65876160385681
 30
0.0
 10
-8.904062965326533
 20
18.63390767921719
 30
0.0
  0
SPLINE
  5
EE
330
1F
100
AcDbEntity
  8
0
  6
Continuous
 62
     7
370
    25
100
AcDbSpline
210
0.0
220
0.0
230
1.0
 70
     8
 71
     3
 72
    11
 73
     7
 74
     0
 42
0.00000001
 43
0.00000001
 40
0.0
 40
0.0
 40
0.0
 40
0.0
 40
0.2588555793702381
 40
0.5091918264844231
 40
0.759528073598606
 40
1.0
 40
1.0
 40
1.0
 40
1.0
 10
3.69027866411401
 20
13.02914273558817
 30
0.0
 10
3.732389509814342
 20
13.02610514912395
 30
0.0
 10
3.815225269001461
 20
13.02012994780286
 30
0.0
 10
3.91436634421366
 20
12.94349175498188
 30
0.0
 10
3.989145884583584
 20
12.84684918050772
 30
0.0
 10
3.996430765661657
 20
12.76732071534107
 30
0.0
 10
3.999999999999994
 20
12.72835566900659
 30
0.0
  0
SPLINE
  5
F0
330
1F
100
AcDbEntity
  8
0
  6
Continuous
 62
     7
370
    25
100
AcDbSpline
210
0.0
220
0.0
230
1.0
 70
     8
 71
     3
 72
    11
 73
     7
 74
     0
 42
0.00000001
 43
0.00000001
 40
0.0
 40
0.0
 40
0.0
 40
0.0
 40
0.2703456919365425
 40
0.5208919642294971
 40
0.7551915639078328
 40
1.0
 40
1.0
 40
1.0
 40
1.0
 10
2.674750053180167
 20
12.86832588810891
 30
0.0
 10
2.691295890151536
 20
12.8933477396063
 30
0.0
 10
2.723175789764882
 20
12.94155890687798
 30
0.0
 10
2.790752846484562
 20
12.99212577616219
 30
0.0
 10
2.86543934304371
 20
13.02528135543906
 30
0.0
 10
2.918595285269303
 20
13.02783692411378
 30
0.0
 10
2.945756222080402
 20
13.02914273558817
 30
0.0
  0
SPLINE
  5
F2
330
1F
100
AcDbEntity
  8
0
  6
Continuous
 62
     7
370
    25
100
AcDbSpline
210
0.0
220
0.0
230
1.0
 70
     8
 71
     3
 72
    15
 73
    11
 74
     0
 42
0.00000001
 43
0.00000001
 40
0.0
 40
0.0
 40
0.0
 40
0.0
 40
0.1393055349902262
 40
0.2705790361482087
 40
0.3937088967087195
 40
0.5130014962938855
 40
0.6310802726488032
 40
0.7495302938618847
 40
0.8721576954027315
 40
1.0
 40
1.0
 40
1.0
 40
1.0
 10
0.995107423952344
 20
11.61455009572431
 30
0.0
 10
1.078708977931409
 20
11.61612388876346
 30
0.0
 10
1.241091814318599
 20
11.61918073358776
 30
0.0
 10
1.473827290181137
 20
11.66310349797441
 30
0.0
 10
1.688755929689884
 20
11.72765352767347
 30
0.0
 10
1.884794273958784
 20
11.82080609865436
 30
0.0
 10
2.061217191076631
 20
11.94168173047377
 30
0.0
 10
2.222552423775992
 20
12.0853958251252
 30
0.0
 10
2.359420510727356
 20
12.26054111608621
 30
0.0
 10
2.434115076946966
 20
12.39084239310679
 30
0.0
 10
2.472239948947025
 20
12.45734950010636
 30
0.0
  0
SPLINE
  5
F4
330
1F
100
AcDbEntity
  8
0
  6
Continuous
 62
     7
370
    25
100
AcDbSpline
210
0.0
220
0.0
230
1.0
 70
     8
 71
     3
 72
    15
 73
    11
 74
     0
 42
0.00000001
 43
0.00000001
 40
0.0
 40
0.0
 40
0.0
 40
0.0
 40
0.1245419110819969
 40
0.2440035477211939
 40
0.3605968042470696
 40
0.4783126183729383
 40
0.5974468127243536
 40
0.7235782206932045
 40
0.856230629472334
 40
1.0
 40
1.0
 40
1.0
 40
1.0
 10
-2.551797489895774
 20
12.45734950010636
 30
0.0
 10
-2.513644131005085
 20
12.39086978634523
 30
0.0
 10
-2.438893753032494
 20
12.26062217838518
 30
0.0
 10
-2.301970540591596
 20
12.08450466065825
 30
0.0
 10
-2.13721301240841
 20
11.9407606612325
 30
0.0
 10
-1.955118461301207
 20
11.82091642732964
 30
0.0
 10
-1.751682474983875
 20
11.72635953427465
 30
0.0
 10
-1.527240220112897
 20
11.66377429678658
 30
0.0
 10
-1.282927004051081
 20
11.61872783971581
 30
0.0
 10
-1.112617100363136
 20
11.61597952046141
 30
0.0
 10
-1.024037438842806
 20
11.61455009572431
 30
0.0
  0
SPLINE
  5
F6
330
1F
100
AcDbEntity
  8
0
  6
Continuous
 62
     7
370
    25
100
AcDbSpline
210
0.0
220
0.0
230
1.0
 70
     8
 71
     3
 72
    11
 73
     7
 74
     0
 42
0.00000001
 43
0.00000001
 40
0.0
 40
0.0
 40
0.0
 40
0.0
 40
0.2622751752610473
 40
0.4987115083581266
 40
0.7386759617802872
 40
1.0
 40
1.0
 40
1.0
 40
1.0
 10
-3.02531376302915
 20
13.02914273558817
 30
0.0
 10
-2.991999307228715
 20
13.02755465750595
 30
0.0
 10
-2.928652471273581
 20
13.02453495571759
 30
0.0
 10
-2.843749315202497
 20
12.98178145796445
 30
0.0
 10
-2.774506453792647
 20
12.91726453792735
 30
0.0
 10
-2.747526001750576
 20
12.85964700885213
 30
0.0
 10
-2.733460965751975
 20
12.82961072112316
 30
0.0
  0
SPLINE
  5
F8
330
1F
100
AcDbEntity
  8
0
  6
Continuous
 62
     7
370
    25
100
AcDbSpline
210
0.0
220
0.0
230
1.0
 70
     8
 71
     3
 72
    11
 73
     7
 74
     0
 42
0.00000001
 43
0.00000001
 40
0.0
 40
0.0
 40
0.0
 40
0.0
 40
0.2445175846910055
 40
0.465402072940087
 40
0.697250212303058
 40
1.0
 40
1.0
 40
1.0
 40
1.0
 10
-4.070623271644338
 20
12.80876409274622
 30
0.0
 10
-4.06750285960537
 20
12.8412673896101
 30
0.0
 10
-4.061563629372918
 20
12.90313247696958
 30
0.0
 10
-4.006492609128832
 20
12.98381651812467
 30
0.0
 10
-3.910148996617308
 20
13.02209194768766
 30
0.0
 10
-3.839580796218291
 20
13.02659346662576
 30
0.0
 10
-3.799617102744104
 20
13.02914273558817
 30
0.0
  0
SPLINE
  5
FA
330
1F
100
AcDbEntity
  8
0
  6
Continuous
 62
     7
370
    25
100
AcDbSpline
210
0.0
220
0.0
230
1.0
 70
     8
 71
     3
 72
    23
 73
    19
 74
     0
 42
0.00000001
 43
0.00000001
 40
0.0
 40
0.0
 40
0.0
 40
0.0
 40
0.0674116931133918
 40
0.131008263779175
 40
0.1922077133827112
 40
0.2506875916337851
 40
0.3080759550082287
 40
0.3643810703692479
 40
0.420868984429051
 40
0.4779098483512614
 40
0.5356739038885316
 40
0.5946178407795766
 40
0.6550682054060416
 40
0.7174961589120457
 40
0.7827500608001562
 40
0.8511754797065593
 40
0.9235838314721221
 40
1.0
 40
1.0
 40
1.0
 40
1.0
 10
-0.038289725590307
 20
6.959795788130184
 30
0.0
 10
-0.1943286343920719
 20
6.962765515446312
 30
0.0
 10
-0.4975755279203286
 20
6.968536900225645
 30
0.0
 10
-0.9393973725807565
 20
7.026649379966737
 30
0.0
 10
-1.353457663884903
 20
7.120933855881916
 30
0.0
 10
-1.742072835794952
 20
7.252841395992406
 30
0.0
 10
-2.104130111014678
 20
7.421518186842794
 30
0.0
 10
-2.436724177841971
 20
7.63380053327712
 30
0.0
 10
-2.746324294378006
 20
7.877237632700172
 30
0.0
 10
-3.022631993030895
 20
8.162736806392505
 30
0.0
 10
-3.271721052858576
 20
8.479247613014023
 30
0.0
 10
-3.485615230615197
 20
8.829862224397246
 30
0.0
 10
-3.668819721894748
 20
9.209422083497715
 30
0.0
 10
-3.812958911679349
 20
9.620878136140222
 30
0.0
 10
-3.929667176687301
 20
10.05976187793985
 30
0.0
 10
-4.013100795058964
 20
10.5298257682111
 30
0.0
 10
-4.059341673587332
 20
11.03090432926497
 30
0.0
 10
-4.066795825977664
 20
11.37521748696593
 30
0.0
 10
-4.070623271644338
 20
11.55201021059349
 30
0.0
  0
SPLINE
  5
FB
330
1F
100
AcDbEntity
  8
0
  6
Continuous
 62
     7
370
    25
100
AcDbSpline
210
0.0
220
0.0
230
1.0
 70
     8
 71
     3
 72
    23
 73
    19
 74
     0
 42
0.00000001
 43
0.00000001
 40
0.0
 40
0.0
 40
0.0
 40
0.0
 40
0.0773300464223629
 40
0.1507395816565322
 40
0.2196571962933477
 40
0.2854848834761308
 40
0.3484839719261166
 40
0.4085258496302263
 40
0.4672370110130734
 40
0.5244937182101672
 40
0.5806625697247495
 40
0.6365157910200282
 40
0.692388387855192
 40
0.7491975292350519
 40
0.807626871720063
 40
0.8686226117952688
 40
0.9324198461918359
 40
0.9999999999999999
 40
0.9999999999999999
 40
0.9999999999999999
 40
0.9999999999999999
 10
3.999999999999993
 20
11.61455009572431
 30
0.0
 10
3.997886354789332
 20
11.433730163621
 30
0.0
 10
3.99376622284107
 20
11.08125758431406
 30
0.0
 10
3.940423543478705
 20
10.57011334989023
 30
0.0
 10
3.863207307127134
 20
10.08928501329953
 30
0.0
 10
3.745043697551163
 20
9.64184226656429
 30
0.0
 10
3.601720590297944
 20
9.223784656329286
 30
0.0
 10
3.421680546697057
 20
8.837971754325812
 30
0.0
 10
3.206476292364415
 20
8.486516511716776
 30
0.0
 10
2.962394705661203
 20
8.165632994268169
 30
0.0
 10
2.68627774419777
 20
7.881089580001551
 30
0.0
 10
2.382273512831217
 20
7.631199553748793
 30
0.0
 10
2.044711730809753
 20
7.426060079737297
 30
0.0
 10
1.682271906764654
 20
7.255535165157318
 30
0.0
 10
1.292256541991359
 20
7.120249294588178
 30
0.0
 10
0.8736907694933336
 20
7.026563444784777
 30
0.0
 10
0.4269367052308941
 20
6.968541061878092
 30
0.0
 10
0.1197343102538944
 20
6.962766306055762
 30
0.0
 10
-0.038289725590307
 20
6.959795788130184
 30
0.0
  0
SPLINE
  5
FE
330
1F
100
AcDbEntity
  8
0
  6
Continuous
 62
     7
370
    25
100
AcDbSpline
210
0.0
220
0.0
230
1.0
 70
     8
 71
     3
 72
    11
 73
     7
 74
     0
 42
0.00000001
 43
0.00000001
 40
0.0
 40
0.0
 40
0.0
 40
0.0
 40
0.2598414949197962
 40
0.5117441323067113
 40
0.758447541937494
 40
1.0
 40
1.0
 40
1.0
 40
1.0
 10
-9.68730057434589
 20
-10.52159115081898
 30
0.0
 10
-9.729003527003036
 20
-10.51685069601981
 30
0.0
 10
-9.811135294789954
 20
-10.50751462008363
 30
0.0
 10
-9.91557440054839
 20
-10.43847202331612
 30
0.0
 10
-9.984733932834853
 20
-10.33765130303092
 30
0.0
 10
-9.994947226664115
 20
-10.25947825651149
 30
0.0
 10
-10.00000000000001
 20
-10.2208040842374
 30
0.0
  0
SPLINE
  5
100
330
1F
100
AcDbEntity
  8
0
  6
Continuous
 62
     7
370
    25
100
AcDbSpline
210
0.0
220
0.0
230
1.0
 70
     8
 71
     3
 72
    11
 73
     7
 74
     0
 42
0.00000001
 43
0.00000001
 40
0.0
 40
0.0
 40
0.0
 40
0.0
 40
0.2577245367472931
 40
0.4865719586460983
 40
0.7306133645449272
 40
1.0
 40
1.0
 40
1.0
 40
1.0
 10
-8.904062965326531
 20
-10.36077430333972
 30
0.0
 10
-8.918360680422843
 20
-10.38596101451592
 30
0.0
 10
-8.945354102649452
 20
-10.43351235574066
 30
0.0
 10
-9.011342227186745
 20
-10.48304467830095
 30
0.0
 10
-9.087125448350147
 20
-10.51918061132356
 30
0.0
 10
-9.144805453243686
 20
-10.5207616222683
 30
0.0
 10
-9.175069134226765
 20
-10.52159115081898
 30
0.0
  0
SPLINE
  5
104
330
1F
100
AcDbEntity
  8
0
  6
Continuous
 62
     7
370
    25
100
AcDbSpline
210
0.0
220
0.0
230
1.0
 70
     8
 71
     3
 72
    11
 73
     7
 74
     0
 42
0.00000001
 43
0.00000001
 40
0.0
 40
0.0
 40
0.0
 40
0.0
 40
0.2694407764682815
 40
0.517953983627252
 40
0.7546990761910995
 40
1.0
 40
1.0
 40
1.0
 40
1.0
 10
-6.059987236758142
 20
-12.6419910657307
 30
0.0
 10
-6.096947811614319
 20
-12.64721190952464
 30
0.0
 10
-6.167998219183807
 20
-12.65724809215599
 30
0.0
 10
-6.267795982343914
 20
-12.61960858192537
 30
0.0
 10
-6.342148391281431
 20
-12.54407344119919
 30
0.0
 10
-6.348571485300984
 20
-12.47672894689038
 30
0.0
 10
-6.351840034035318
 20
-12.44245905126569
 30
0.0
  0
SPLINE
  5
106
330
1F
100
AcDbEntity
  8
0
  6
Continuous
 62
     7
370
    25
100
AcDbSpline
210
0.0
220
0.0
230
1.0
 70
     8
 71
     3
 72
    11
 73
     7
 74
     0
 42
0.00000001
 43
0.00000001
 40
0.0
 40
0.0
 40
0.0
 40
0.0
 40
0.2509520836037874
 40
0.4822216169867782
 40
0.7259268322250663
 40
0.9999999999999999
 40
0.9999999999999999
 40
0.9999999999999999
 40
0.9999999999999999
 10
-4.874707509040635
 20
-12.0106360348862
 30
0.0
 10
-4.876517766009425
 20
-12.05019456796302
 30
0.0
 10
-4.879996298764024
 20
-12.126208998734
 30
0.0
 10
-4.937814469231331
 20
-12.22657605005926
 30
0.0
 10
-5.020100379141813
 20
-12.31167242029015
 30
0.0
 10
-5.094447507287337
 20
-12.34461388091588
 30
0.0
 10
-5.133801318868332
 20
-12.36205062752606
 30
0.0
  0
SPLINE
  5
109
330
1F
100
AcDbEntity
  8
0
  6
Continuous
 62
     7
370
    25
100
AcDbSpline
210
0.0
220
0.0
230
1.0
 70
     8
 71
     3
 72
     9
 73
     5
 74
     0
 42
0.00000001
 43
0.00000001
 40
0.0
 40
0.0
 40
0.0
 40
0.0
 40
0.4753810344183044
 40
1.0
 40
1.0
 40
1.0
 40
1.0
 10
-1.646458200382903
 20
-11.32567538821527
 30
0.0
 10
-1.730795490182259
 20
-11.34442737194524
 30
0.0
 10
-1.908205364984176
 20
-11.38387358955239
 30
0.0
 10
-2.086171735611915
 20
-11.3457012969003
 30
0.0
 10
-2.179536268878967
 20
-11.32567538821527
 30
0.0
  0
SPLINE
  5
10B
330
1F
100
AcDbEntity
  8
0
  6
Continuous
 62
     7
370
    25
100
AcDbSpline
210
0.0
220
0.0
230
1.0
 70
     8
 71
     3
 72
     9
 73
     5
 74
     0
 42
0.00000001
 43
0.00000001
 40
0.0
 40
0.0
 40
0.0
 40
0.0
 40
0.4243294156357724
 40
0.9999999999999999
 40
0.9999999999999999
 40
0.9999999999999999
 40
0.9999999999999999
 10
0.6853860880663629
 20
-10.54243777919592
 30
0.0
 10
0.6733909825652592
 20
-10.57407366690964
 30
0.0
 10
0.6451226017764059
 20
-10.64862868607161
 30
0.0
 10
0.5686133603235388
 20
-10.67573687858017
 30
0.0
 10
0.5245692405871031
 20
-10.69134226760264
 30
0.0
  0
SPLINE
  5
10C
330
1F
100
AcDbEntity
  8
0
  6
Continuous
 62
     7
370
    25
100
AcDbSpline
210
0.0
220
0.0
230
1.0
 70
     8
 71
     3
 72
    11
 73
     7
 74
     0
 42
0.00000001
 43
0.00000001
 40
0.0
 40
0.0
 40
0.0
 40
0.0
 40
0.2944046332682826
 40
0.5459314861683258
 40
0.7597293111333699
 40
0.9999999999999999
 40
0.9999999999999999
 40
0.9999999999999999
 40
0.9999999999999999
 10
0.5424377791959107
 20
-10.38162093171666
 30
0.0
 10
0.5647485376546981
 20
-10.38832079233645
 30
0.0
 10
0.6061206634522186
 20
-10.4007447301824
 30
0.0
 10
0.6569271216346348
 20
-10.43585996980915
 30
0.0
 10
0.6841587705055369
 20
-10.48704652257953
 30
0.0
 10
0.6849613843557676
 20
-10.52327006501143
 30
0.0
 10
0.6853860880663629
 20
-10.54243777919592
 30
0.0
  0
SPLINE
  5
10F
330
1F
100
AcDbEntity
  8
0
  6
Continuous
 62
     7
370
    25
100
AcDbSpline
210
0.0
220
0.0
230
1.0
 70
     8
 71
     3
 72
    11
 73
     7
 74
     0
 42
0.00000001
 43
0.00000001
 40
0.0
 40
0.0
 40
0.0
 40
0.0
 40
0.265999617880025
 40
0.5026473131515574
 40
0.7391317467994669
 40
1.0
 40
1.0
 40
1.0
 40
1.0
 10
-9.175069134226765
 20
-6.71261433737503
 30
0.0
 10
-9.145064142182338
 20
-6.715134431274063
 30
0.0
 10
-9.088365080911258
 20
-6.719896537465543
 30
0.0
 10
-9.008520371978706
 20
-6.74975087709391
 30
0.0
 10
-8.946416302643968
 20
-6.807614074287465
 30
0.0
 10
-8.918634761671933
 20
-6.856647011339007
 30
0.0
 10
-8.904062965326531
 20
-6.882365454158691
 30
0.0
  0
SPLINE
  5
111
330
1F
100
AcDbEntity
  8
0
  6
Continuous
 62
     7
370
    25
100
AcDbSpline
210
0.0
220
0.0
230
1.0
 70
     8
 71
     3
 72
    11
 73
     7
 74
     0
 42
0.00000001
 43
0.00000001
 40
0.0
 40
0.0
 40
0.0
 40
0.0
 40
0.2444576330894471
 40
0.5000000000000001
 40
0.7555423669105547
 40
1.0
 40
1.0
 40
1.0
 40
1.0
 10
-10.00000000000001
 20
-7.025313763029145
 30
0.0
 10
-9.995404137704249
 20
-6.985311745587145
 30
0.0
 10
-9.986004017450938
 20
-6.903493851548703
 30
0.0
 10
-9.90834969784805
 20
-6.804264639526977
 30
0.0
 10
-9.809120485826334
 20
-6.726610319924102
 30
0.0
 10
-9.727302591787893
 20
-6.717210199670788
 30
0.0
 10
-9.687300574345892
 20
-6.71261433737503
 30
0.0
  0
SPLINE
  5
112
330
1F
100
AcDbEntity
  8
0
  6
Continuous
 62
     7
370
    25
100
AcDbSpline
210
0.0
220
0.0
230
1.0
 70
     8
 71
     3
 72
    11
 73
     7
 74
     0
 42
0.00000001
 43
0.00000001
 40
0.0
 40
0.0
 40
0.0
 40
0.0
 40
0.2404739717767953
 40
0.49818995246771
 40
0.7595260282232051
 40
1.0
 40
1.0
 40
1.0
 40
1.0
 10
-5.529887258030212
 20
4.630929589449055
 30
0.0
 10
-5.490879560808067
 20
4.626202928998575
 30
0.0
 10
-5.410067310395323
 20
4.616410706049223
 30
0.0
 10
-5.312092428569245
 20
4.538372684891037
 30
0.0
 10
-5.231363044759999
 20
4.441851430922918
 30
0.0
 10
-5.221780103708988
 20
4.360292409051828
 30
0.0
 10
-5.217187832376096
 20
4.321208253563073
 30
0.0
  0
SPLINE
  5
114
330
1F
100
AcDbEntity
  8
0
  6
Continuous
 62
     7
370
    25
100
AcDbSpline
210
0.0
220
0.0
230
1.0
 70
     8
 71
     3
 72
    11
 73
     7
 74
     0
 42
0.00000001
 43
0.00000001
 40
0.0
 40
0.0
 40
0.0
 40
0.0
 40
0.2545961963549135
 40
0.4963195197955113
 40
0.746500418346124
 40
1.0
 40
1.0
 40
1.0
 40
1.0
 10
-10.00297808976814
 20
4.321208253563073
 30
0.0
 10
-9.99846422210017
 20
4.363087067565306
 30
0.0
 10
-9.989664716587278
 20
4.444727222260389
 30
0.0
 10
-9.917651965099836
 20
4.547315432297177
 30
0.0
 10
-9.815419911958267
 20
4.621098319606536
 30
0.0
 10
-9.732175242714234
 20
4.627638136176913
 30
0.0
 10
-9.690278664114023
 20
4.630929589449055
 30
0.0
  0
SPLINE
  5
116
330
1F
100
AcDbEntity
  8
0
  6
Continuous
 62
     7
370
    25
100
AcDbSpline
210
0.0
220
0.0
230
1.0
 70
     8
 71
     3
 72
    11
 73
     7
 74
     0
 42
0.00000001
 43
0.00000001
 40
0.0
 40
0.0
 40
0.0
 40
0.0
 40
0.2551379983150895
 40
0.5039965649800392
 40
0.7522994262594285
 40
1.0
 40
1.0
 40
1.0
 40
1.0
 10
-10.41395447777069
 20
1.075090406296535
 30
0.0
 10
-10.40882758558952
 20
1.244185409516145
 30
0.0
 10
-10.39869998379992
 20
1.578213666148947
 30
0.0
 10
-10.31705319959267
 20
2.070925467073364
 30
0.0
 10
-10.19273302508669
 20
2.549695030682746
 30
0.0
 10
-10.06617851062757
 20
2.853282941268215
 30
0.0
 10
-10.00297808976814
 20
3.004892576047653
 30
0.0
  0
SPLINE
  5
117
330
1F
100
AcDbEntity
  8
0
  6
Continuous
 62
     7
370
    25
100
AcDbSpline
210
0.0
220
0.0
230
1.0
 70
     8
 71
     3
 72
    11
 73
     7
 74
     0
 42
0.00000001
 43
0.00000001
 40
0.0
 40
0.0
 40
0.0
 40
0.0
 40
0.2494030360340898
 40
0.4970009600238445
 40
0.7445988840135976
 40
1.0
 40
1.0
 40
1.0
 40
1.0
 10
-10.10423314188471
 20
0.762390980642418
 30
0.0
 10
-10.14486748816507
 20
0.7673126390578544
 30
0.0
 10
-10.22584208026473
 20
0.7771203342498527
 30
0.0
 10
-10.33062075656952
 20
0.8457144689319341
 30
0.0
 10
-10.39981088887122
 20
0.9513557862926569
 30
0.0
 10
-10.40919144026262
 20
1.033421163764491
 30
0.0
 10
-10.41395447777069
 20
1.075090406296535
 30
0.0
  0
SPLINE
  5
119
330
1F
100
AcDbEntity
  8
0
  6
Continuous
 62
     7
370
    25
100
AcDbSpline
210
0.0
220
0.0
230
1.0
 70
     8
 71
     3
 72
    11
 73
     7
 74
     0
 42
0.00000001
 43
0.00000001
 40
0.0
 40
0.0
 40
0.0
 40
0.0
 40
0.2807654749383646
 40
0.5229075949216541
 40
0.7505399868697631
 40
1.0
 40
1.0
 40
1.0
 40
1.0
 10
-9.09763880025527
 20
0.9827696234843663
 30
0.0
 10
-9.11071867292652
 20
0.9500019489046656
 30
0.0
 10
-9.135079092461389
 20
0.8889742676721022
 30
0.0
 10
-9.197086763492422
 20
0.8163365958778445
 30
0.0
 10
-9.277175215507398
 20
0.7700231728428458
 30
0.0
 10
-9.337239050774095
 20
0.7650114753497729
 30
0.0
 10
-9.368644969155506
 20
0.762390980642418
 30
0.0
  0
SPLINE
  5
11B
330
1F
100
AcDbEntity
  8
0
  6
Continuous
 62
     7
370
    25
100
AcDbSpline
210
0.0
220
0.0
230
1.0
 70
     8
 71
     3
 72
    15
 73
    11
 74
     0
 42
0.00000001
 43
0.00000001
 40
0.0
 40
0.0
 40
0.0
 40
0.0
 40
0.1775718932559945
 40
0.3378212499930528
 40
0.4807877525627535
 40
0.6078141997584817
 40
0.7205460112671102
 40
0.8213864571439935
 40
0.9133480806612423
 40
1.0
 40
1.0
 40
1.0
 40
1.0
 10
-5.470325462667523
 20
3.314613911933634
 30
0.0
 10
-5.713229746781656
 20
3.266006110581291
 30
0.0
 10
-6.175342457208214
 20
3.173532307936242
 30
0.0
 10
-6.822416363781793
 20
2.995372456659507
 30
0.0
 10
-7.389007420426538
 20
2.795808329990148
 30
0.0
 10
-7.873228234387445
 20
2.568452414437516
 30
0.0
 10
-8.275013542643451
 20
2.311889084390489
 30
0.0
 10
-8.597443932826996
 20
2.031406457930925
 30
0.0
 10
-8.842048004950687
 20
1.721525748780732
 30
0.0
 10
-8.933936676366384
 20
1.488787334098959
 30
0.0
 10
-8.978515209529894
 20
1.375877472878113
 30
0.0
  0
SPLINE
  5
11C
330
1F
100
AcDbEntity
  8
0
  6
Continuous
 62
     7
370
    25
100
AcDbSpline
210
0.0
220
0.0
230
1.0
 70
     8
 71
     3
 72
    11
 73
     7
 74
     0
 42
0.00000001
 43
0.00000001
 40
0.0
 40
0.0
 40
0.0
 40
0.0
 40
0.2700657988709521
 40
0.4973008698893744
 40
0.7299342011290483
 40
1.0
 40
1.0
 40
1.0
 40
1.0
 10
-5.217187832376096
 20
3.597532439906405
 30
0.0
 10
-5.218961663866931
 20
3.559090248360859
 30
0.0
 10
-5.222228008391553
 20
3.488302553747265
 30
0.0
 10
-5.274646582257922
 20
3.39514700752531
 30
0.0
 10
-5.362616705438975
 20
3.335422273245996
 30
0.0
 10
-5.432683418527837
 20
3.321886015661768
 30
0.0
 10
-5.470325462667523
 20
3.314613911933634
 30
0.0
  0
SPLINE
  5
11E
330
1F
100
AcDbEntity
  8
0
  6
Continuous
 62
     7
370
    25
100
AcDbSpline
210
0.0
220
0.0
230
1.0
 70
     8
 71
     3
 72
    11
 73
     7
 74
     0
 42
0.00000001
 43
0.00000001
 40
0.0
 40
0.0
 40
0.0
 40
0.0
 40
0.2403030676831243
 40
0.490902780089617
 40
0.7415024924961097
 40
1.0
 40
1.0
 40
1.0
 40
1.0
 10
0.0421186981493238
 20
-4.425441395447774
 30
0.0
 10
0.0035549139212458
 20
-4.420208974880762
 30
0.0
 10
-0.0752250578488319
 20
-4.409519931966282
 30
0.0
 10
-0.1783112691468167
 20
-4.342141934353908
 30
0.0
 10
-0.2475032497864863
 20
-4.236470361650118
 30
0.0
 10
-0.2568835488257794
 20
-4.154409114916061
 30
0.0
 10
-0.2616464582003881
 20
-4.112741969793658
 30
0.0
  0
SPLINE
  5
120
330
1F
100
AcDbEntity
  8
0
  6
Continuous
 62
     7
370
    25
100
AcDbSpline
210
0.0
220
0.0
230
1.0
 70
     8
 71
     3
 72
    11
 73
     7
 74
     0
 42
0.00000001
 43
0.00000001
 40
0.0
 40
0.0
 40
0.0
 40
0.0
 40
0.2534995816538759
 40
0.5036804802044861
 40
0.7454038036450835
 40
1.0
 40
1.0
 40
1.0
 40
1.0
 10
3.999999999999995
 20
-4.112741969793658
 30
0.0
 10
3.996708546727851
 20
-4.154638548393867
 30
0.0
 10
3.990168730157472
 20
-4.237883217637902
 30
0.0
 10
3.916385842848118
 20
-4.34011527077947
 30
0.0
 10
3.813797632811329
 20
-4.412128022266912
 30
0.0
 10
3.732157478116247
 20
-4.420927527779804
 30
0.0
 10
3.690278664114012
 20
-4.425441395447774
 30
0.0
  0
SPLINE
  5
122
330
1F
100
AcDbEntity
  8
0
  6
Continuous
 62
     7
370
    25
100
AcDbSpline
210
0.0
220
0.0
230
1.0
 70
     8
 71
     3
 72
    11
 73
     7
 74
     0
 42
0.00000001
 43
0.00000001
 40
0.0
 40
0.0
 40
0.0
 40
0.0
 40
0.2679072542296387
 40
0.5214522471782924
 40
0.7639942861721072
 40
1.0
 40
1.0
 40
1.0
 40
1.0
 10
4.413954477770682
 20
-0.9678791746436914
 30
0.0
 10
4.408985354620377
 20
-1.136995096000725
 30
0.0
 10
4.399313498437598
 20
-1.466160789848132
 30
0.0
 10
4.319116812630725
 20
-1.942477683425989
 30
0.0
 10
4.195713754118928
 20
-2.389488505583414
 30
0.0
 10
4.064641158993106
 20
-2.662021174515999
 30
0.0
 10
3.999999999999995
 20
-2.796426292278237
 30
0.0
  0
SPLINE
  5
123
330
1F
100
AcDbEntity
  8
0
  6
Continuous
 62
     7
370
    25
100
AcDbSpline
210
0.0
220
0.0
230
1.0
 70
     8
 71
     3
 72
    11
 73
     7
 74
     0
 42
0.00000001
 43
0.00000001
 40
0.0
 40
0.0
 40
0.0
 40
0.0
 40
0.2547221718472687
 40
0.4999999999999988
 40
0.7452778281527299
 40
1.0
 40
1.0
 40
1.0
 40
1.0
 10
4.101255052116566
 20
-0.655179748989574
 30
0.0
 10
4.143308613049001
 20
-0.6594530517739193
 30
0.0
 10
4.225856513428972
 20
-0.6678412159320541
 30
0.0
 10
4.325587050042022
 20
-0.7435471767182362
 30
0.0
 10
4.401293010828204
 20
-0.8432777133312845
 30
0.0
 10
4.409681174986338
 20
-0.9258256137112554
 30
0.0
 10
4.413954477770682
 20
-0.9678791746436914
 30
0.0
  0
SPLINE
  5
125
330
1F
100
AcDbEntity
  8
0
  6
Continuous
 62
     7
370
    25
100
AcDbSpline
210
0.0
220
0.0
230
1.0
 70
     8
 71
     3
 72
    11
 73
     7
 74
     0
 42
0.00000001
 43
0.00000001
 40
0.0
 40
0.0
 40
0.0
 40
0.0
 40
0.2834631547404043
 40
0.5302773892255758
 40
0.7579267907234626
 40
1.0
 40
1.0
 40
1.0
 40
1.0
 10
3.097638800255259
 20
-0.8874707509040625
 30
0.0
 10
3.109655113861381
 20
-0.8528832720299979
 30
0.0
 10
3.132134153202508
 20
-0.7881801256403708
 30
0.0
 10
3.192495942401257
 20
-0.7082415057370981
 30
0.0
 10
3.276749178014523
 20
-0.663604473113203
 30
0.0
 10
3.337392314315642
 20
-0.6580448964776994
 30
0.0
 10
3.368644969155492
 20
-0.655179748989574
 30
0.0
  0
SPLINE
  5
127
330
1F
100
AcDbEntity
  8
0
  6
Continuous
 62
     7
370
    25
100
AcDbSpline
210
0.0
220
0.0
230
1.0
 70
     8
 71
     3
 72
    19
 73
    15
 74
     0
 42
0.00000001
 43
0.00000001
 40
0.0
 40
0.0
 40
0.0
 40
0.0
 40
0.0969160083268028
 40
0.1875069522229888
 40
0.2718265524336874
 40
0.3519847133545795
 40
0.4258066481967407
 40
0.4939128976420193
 40
0.5569515074590855
 40
0.6154404020342862
 40
0.7212775741358535
 40
0.8184442262087045
 40
0.9091258820207048
 40
1.0
 40
1.0
 40
1.0
 40
1.0
 10
-0.0204211869814994
 20
-3.106147628164218
 30
0.0
 10
0.0938584856528167
 20
-3.084895299675653
 30
0.0
 10
0.3149595554001907
 20
-3.043777641083123
 30
0.0
 10
0.6335406432676456
 20
-2.974613896447004
 30
0.0
 10
0.931525129659336
 20
-2.904904954619425
 30
0.0
 10
1.205282303291713
 20
-2.822643841452373
 30
0.0
 10
1.460129783773358
 20
-2.744885527515754
 30
0.0
 10
1.689764679168483
 20
-2.656884375960681
 30
0.0
 10
1.89962778830497
 20
-2.568868215844815
 30
0.0
 10
2.142638431888522
 20
-2.445113785255503
 30
0.0
 10
2.409722379934864
 20
-2.277046279114677
 30
0.0
 10
2.662433651158232
 20
-2.029190630731491
 30
0.0
 10
2.857049530006431
 20
-1.752089416588623
 30
0.0
 10
2.922120510953355
 20
-1.543048576972902
 30
0.0
 10
2.954690491384806
 20
-1.438417358008932
 30
0.0
  0
SPLINE
  5
128
330
1F
100
AcDbEntity
  8
0
  6
Continuous
 62
     7
370
    25
100
AcDbSpline
210
0.0
220
0.0
230
1.0
 70
     8
 71
     3
 72
    11
 73
     7
 74
     0
 42
0.00000001
 43
0.00000001
 40
0.0
 40
0.0
 40
0.0
 40
0.0
 40
0.278520161167166
 40
0.5097961227786164
 40
0.7421543362606847
 40
1.0
 40
1.0
 40
1.0
 40
1.0
 10
-0.2616464582003881
 20
-3.398000425441392
 30
0.0
 10
-0.259570420202977
 20
-3.358708198651556
 30
0.0
 10
-0.2557704937725668
 20
-3.286788719685095
 30
0.0
 10
-0.2079899996230845
 20
-3.190532752579514
 30
0.0
 10
-0.1241744690817199
 20
-3.127083679176752
 30
0.0
 10
-0.056183970625356
 20
-3.113364088670929
 30
0.0
 10
-0.0204211869814994
 20
-3.106147628164218
 30
0.0
  0
SPLINE
  5
12A
330
1F
100
AcDbEntity
  8
0
  6
Continuous
 62
     7
370
    25
100
AcDbSpline
210
0.0
220
0.0
230
1.0
 70
     8
 71
     3
 72
    15
 73
    11
 74
     0
 42
0.00000001
 43
0.00000001
 40
0.0
 40
0.0
 40
0.0
 40
0.0
 40
0.1371933640292774
 40
0.2670709886540567
 40
0.3911811747156048
 40
0.5132557514234904
 40
0.6340605977261566
 40
0.7519069252993711
 40
0.8728376668454657
 40
1.0
 40
1.0
 40
1.0
 40
1.0
 10
3.136353967241007
 20
0.5122314401191254
 30
0.0
 10
3.11831105085929
 20
0.6062458026165132
 30
0.0
 10
3.0831873438902
 20
0.7892612780188071
 30
0.0
 10
2.985054655953824
 20
1.045654694008942
 30
0.0
 10
2.845014787118059
 20
1.268779112231503
 30
0.0
 10
2.67485149496431
 20
1.46130661646187
 30
0.0
 10
2.475440001262608
 20
1.617114031198302
 30
0.0
 10
2.249949075253923
 20
1.7298233279533
 30
0.0
 10
2.00159580637239
 20
1.797207514577547
 30
0.0
 10
1.828401938257911
 20
1.804144747983485
 30
0.0
 10
1.739629865985954
 20
1.807700489257606
 30
0.0
  0
SPLINE
  5
12B
330
1F
100
AcDbEntity
  8
0
  6
Continuous
 62
     7
370
    25
100
AcDbSpline
210
0.0
220
0.0
230
1.0
 70
     8
 71
     3
 72
    11
 73
     7
 74
     0
 42
0.00000001
 43
0.00000001
 40
0.0
 40
0.0
 40
0.0
 40
0.0
 40
0.2949230989705008
 40
0.5353724170571798
 40
0.7647129858843402
 40
1.0
 40
1.0
 40
1.0
 40
1.0
 10
3.368644969155492
 20
0.3692831312486732
 30
0.0
 10
3.339493387833385
 20
0.3704366599816717
 30
0.0
 10
3.286574668994692
 20
0.3725306548843649
 30
0.0
 10
3.216118059241522
 20
0.4012858586700269
 30
0.0
 10
3.160711332025225
 20
0.4468001963734252
 30
0.0
 10
3.144542068554925
 20
0.4902357251626143
 30
0.0
 10
3.136353967241007
 20
0.5122314401191254
 30
0.0
  0
SPLINE
  5
12D
330
1F
100
AcDbEntity
  8
0
  6
Continuous
 62
     7
370
    25
100
AcDbSpline
210
0.0
220
0.0
230
1.0
 70
     8
 71
     3
 72
    11
 73
     7
 74
     0
 42
0.00000001
 43
0.00000001
 40
0.0
 40
0.0
 40
0.0
 40
0.0
 40
0.2749700158841933
 40
0.500000000000001
 40
0.7250299841158085
 40
1.0
 40
1.0
 40
1.0
 40
1.0
 10
4.413954477770682
 20
0.6819825569027889
 30
0.0
 10
4.410495540062509
 20
0.6357056359394021
 30
0.0
 10
4.404205876629482
 20
0.5515566046085194
 30
0.0
 10
4.344886574526665
 20
0.4383510344926883
 30
0.0
 10
4.231681004410835
 20
0.3790317323898711
 30
0.0
 10
4.147531973079951
 20
0.3727420689568443
 30
0.0
 10
4.101255052116566
 20
0.3692831312486732
 30
0.0
  0
SPLINE
  5
12E
330
1F
100
AcDbEntity
  8
0
  6
Continuous
 62
     7
370
    25
100
AcDbSpline
210
0.0
220
0.0
230
1.0
 70
     8
 71
     3
 72
    23
 73
    19
 74
     0
 42
0.00000001
 43
0.00000001
 40
0.0
 40
0.0
 40
0.0
 40
0.0
 40
0.0669174320339495
 40
0.132105127911647
 40
0.1952521530445166
 40
0.2572752611726065
 40
0.3189207884220973
 40
0.3806243077138102
 40
0.442860095449194
 40
0.506976712420661
 40
0.5706751409747168
 40
0.6322900393074822
 40
0.6927706194516872
 40
0.7527778954389576
 40
0.8129884716449326
 40
0.8736396509979505
 40
0.9357347999289459
 40
1.0
 40
1.0
 40
1.0
 40
1.0
 10
0.0927462242076103
 20
4.833439693682197
 30
0.0
 10
0.241822686306015
 20
4.830273047567034
 30
0.0
 10
0.5361221609800316
 20
4.824021609378517
 30
0.0
 10
0.9681267042699282
 20
4.766577201180012
 30
0.0
 10
1.381489141793899
 20
4.670391625993759
 30
0.0
 10
1.777362820611532
 20
4.540018185046045
 30
0.0
 10
2.153515387803666
 20
4.36832867948345
 30
0.0
 10
2.513284157796029
 20
4.163426114147427
 30
0.0
 10
2.851670988870021
 20
3.915388751266156
 30
0.0
 10
3.170178582486846
 20
3.635832382285018
 30
0.0
 10
3.459701814641353
 20
3.32817797368566
 30
0.0
 10
3.715558873771409
 20
3.002190923261975
 30
0.0
 10
3.931218778844036
 20
2.65783433778851
 30
0.0
 10
4.108125175942519
 20
2.295531323850547
 30
0.0
 10
4.244915560340885
 20
1.915919289193253
 30
0.0
 10
4.344643915238792
 20
1.520139073788175
 30
0.0
 10
4.400825066882951
 20
1.106484152032194
 30
0.0
 10
4.409528186428216
 20
0.8250939083146117
 30
0.0
 10
4.413954477770682
 20
0.6819825569027889
 30
0.0
  0
SPLINE
  5
12F
330
1F
100
AcDbEntity
  8
0
  6
Continuous
 62
     7
370
    25
100
AcDbSpline
210
0.0
220
0.0
230
1.0
 70
     8
 71
     3
 72
    23
 73
    19
 74
     0
 42
0.00000001
 43
0.00000001
 40
0.0
 40
0.0
 40
0.0
 40
0.0
 40
0.0700404107442095
 40
0.1370220157967974
 40
0.202095856030135
 40
0.264746002652921
 40
0.3248297452785757
 40
0.3841873159702089
 40
0.4416694990927513
 40
0.4982612847961561
 40
0.5549160552555085
 40
0.6127840955744325
 40
0.6724293692394998
 40
0.7334741358725126
 40
0.7961174510390361
 40
0.8613839214683783
 40
0.9294744814319906
 40
1.0
 40
1.0
 40
1.0
 40
1.0
 10
-4.40119123590726
 20
2.120399914911723
 30
0.0
 10
-4.340196712056822
 20
2.235445059530414
 30
0.0
 10
-4.220871417962319
 20
2.460511095777074
 30
0.0
 10
-4.018706849521304
 20
2.777476786123348
 30
0.0
 10
-3.808124220312232
 20
3.071898968621499
 30
0.0
 10
-3.588530846977219
 20
3.343568343269585
 30
0.0
 10
-3.356754226001678
 20
3.590536869733903
 30
0.0
 10
-3.114426327788123
 20
3.813382454518043
 30
0.0
 10
-2.858722235159604
 20
4.010033916495927
 30
0.0
 10
-2.596117619689628
 20
4.188680639467763
 30
0.0
 10
-2.316438906978942
 20
4.341116470601472
 30
0.0
 10
-2.020002506015511
 20
4.471807417830794
 30
0.0
 10
-1.707761335650145
 20
4.584869270363396
 30
0.0
 10
-1.379640826255841
 20
4.678060180460348
 30
0.0
 10
-1.034600921908065
 20
4.745103051115263
 30
0.0
 10
-0.673736858198852
 20
4.795138513700571
 30
0.0
 10
-0.2960794688651641
 20
4.830136661840246
 30
0.0
 10
-0.0383713249400118
 20
4.832325864407053
 30
0.0
 10
0.0927462242076103
 20
4.833439693682197
 30
0.0
  0
SPLINE
  5
131
330
1F
100
AcDbEntity
  8
0
  6
Continuous
 62
     7
370
    25
100
AcDbSpline
210
0.0
220
0.0
230
1.0
 70
     8
 71
     3
 72
    15
 73
    11
 74
     0
 42
0.00000001
 43
0.00000001
 40
0.0
 40
0.0
 40
0.0
 40
0.0
 40
0.1178716657880049
 40
0.2303473283964722
 40
0.3399613368934621
 40
0.4491604160307437
 40
0.5653273494179557
 40
0.6943650826254617
 40
0.838977821846031
 40
1.0
 40
1.0
 40
1.0
 40
1.0
 10
-7.66815571155074
 20
-1.810678579025737
 30
0.0
 10
-7.564516145986029
 20
-1.807203819465777
 30
0.0
 10
-7.361981492009575
 20
-1.80041337007231
 30
0.0
 10
-7.069816562000081
 20
-1.731648132265059
 30
0.0
 10
-6.797914049232602
 20
-1.625348779718568
 30
0.0
 10
-6.547127984738847
 20
-1.468372893788589
 30
0.0
 10
-6.315181201319858
 20
-1.259306997559545
 30
0.0
 10
-6.091297744864537
 20
-0.9996752759957386
 30
0.0
 10
-5.873196905293925
 20
-0.6854909751589748
 30
0.0
 10
-5.745872141063889
 20
-0.4491348099857923
 30
0.0
 10
-5.678791746436934
 20
-0.3246117847266524
 30
0.0
  0
SPLINE
  5
132
330
1F
100
AcDbEntity
  8
0
  6
Continuous
 62
     7
370
    25
100
AcDbSpline
210
0.0
220
0.0
230
1.0
 70
     8
 71
     3
 72
    15
 73
    11
 74
     0
 42
0.00000001
 43
0.00000001
 40
0.0
 40
0.0
 40
0.0
 40
0.0
 40
0.1520701906381033
 40
0.290064879010568
 40
0.4161238309094251
 40
0.5313965024515054
 40
0.6442562325959161
 40
0.7566686637012111
 40
0.8739632539587887
 40
1.0
 40
1.0
 40
1.0
 40
1.0
 10
-9.094660710487135
 20
-0.4348011061476275
 30
0.0
 10
-9.070849494669368
 20
-0.5428855387301004
 30
0.0
 10
-9.025431011228962
 20
-0.7490501902532362
 30
0.0
 10
-8.91343024764817
 20
-1.031138655957978
 30
0.0
 10
-8.778960046450921
 20
-1.273267246746031
 30
0.0
 10
-8.610015463079451
 20
-1.469606657330059
 30
0.0
 10
-8.414905255765214
 20
-1.624914680307621
 30
0.0
 10
-8.188652933660682
 20
-1.732579226415855
 30
0.0
 10
-7.937168844777106
 20
-1.800858757406256
 30
0.0
 10
-7.759949078588317
 20
-1.807327833731819
 30
0.0
 10
-7.66815571155074
 20
-1.810678579025737
 30
0.0
  0
SPLINE
  5
133
330
1F
100
AcDbEntity
  8
0
  6
Continuous
 62
     7
370
    25
100
AcDbSpline
210
0.0
220
0.0
230
1.0
 70
     8
 71
     3
 72
    11
 73
     7
 74
     0
 42
0.00000001
 43
0.00000001
 40
0.0
 40
0.0
 40
0.0
 40
0.0
 40
0.3057841129813685
 40
0.5488507015038903
 40
0.7756891139417276
 40
0.9999999999999999
 40
0.9999999999999999
 40
0.9999999999999999
 40
0.9999999999999999
 10
-9.365666879387371
 20
-0.2620718995958293
 30
0.0
 10
-9.329736414775605
 20
-0.2644000017382689
 30
0.0
 10
-9.265244965186366
 20
-0.2685787031155018
 30
0.0
 10
-9.176740951639058
 20
-0.2969226191554576
 30
0.0
 10
-9.114968831685838
 20
-0.3567961572548094
 30
0.0
 10
-9.101404753680834
 20
-0.4088967529330533
 30
0.0
 10
-9.094660710487135
 20
-0.4348011061476275
 30
0.0
  0
SPLINE
  5
135
330
1F
100
AcDbEntity
  8
0
  6
Continuous
 62
     7
370
    25
100
AcDbSpline
210
0.0
220
0.0
230
1.0
 70
     8
 71
     3
 72
    11
 73
     7
 74
     0
 42
0.00000001
 43
0.00000001
 40
0.0
 40
0.0
 40
0.0
 40
0.0
 40
0.2558453772106182
 40
0.4987547205224569
 40
0.7501631361900054
 40
1.0
 40
1.0
 40
1.0
 40
1.0
 10
-10.41097638800256
 20
-0.574771325249945
 30
0.0
 10
-10.406459499301
 20
-0.5329107630432962
 30
0.0
 10
-10.39765410447018
 20
-0.4513061890935293
 30
0.0
 10
-10.32568429915473
 20
-0.348458516615073
 30
0.0
 10
-10.22395533815251
 20
-0.2761651519290944
 30
0.0
 10
-10.14206956877867
 20
-0.2667598208775345
 30
0.0
 10
-10.10125505211658
 20
-0.2620718995958293
 30
0.0
  0
SPLINE
  5
136
330
1F
100
AcDbEntity
  8
0
  6
Continuous
 62
     7
370
    25
100
AcDbSpline
210
0.0
220
0.0
230
1.0
 70
     8
 71
     3
 72
    23
 73
    19
 74
     0
 42
0.00000001
 43
0.00000001
 40
0.0
 40
0.0
 40
0.0
 40
0.0
 40
0.0731255933249796
 40
0.142902324235743
 40
0.2096541576301693
 40
0.2736161136272313
 40
0.3361984993207759
 40
0.3969037132355024
 40
0.4571330266965619
 40
0.5173406189403034
 40
0.5769938405151686
 40
0.6353046409970456
 40
0.6932509063328398
 40
0.7515317900303962
 40
0.81069770287716
 40
0.8711726448802652
 40
0.934369284571461
 40
1.0
 40
1.0
 40
1.0
 40
1.0
 10
-5.738353541799622
 20
-4.836417783450328
 30
0.0
 10
-5.912265830241839
 20
-4.833542656599112
 30
0.0
 10
-6.252125913442837
 20
-4.827924072313778
 30
0.0
 10
-6.747539709410472
 20
-4.767893534131047
 30
0.0
 10
-7.216771747921485
 20
-4.682028639838219
 30
0.0
 10
-7.658624687530388
 20
-4.55268497117918
 30
0.0
 10
-8.071847137075558
 20
-4.385704050442977
 30
0.0
 10
-8.460577706547374
 20
-4.186015084474117
 30
0.0
 10
-8.819095263807991
 20
-3.945887805066571
 30
0.0
 10
-9.14911528438174
 20
-3.672199951638476
 30
0.0
 10
-9.447088187566894
 20
-3.370033092073225
 30
0.0
 10
-9.704914467871395
 20
-3.039668872857646
 30
0.0
 10
-9.92351547462695
 20
-2.686156174095584
 30
0.0
 10
-10.10382902185012
 20
-2.309207028184211
 30
0.0
 10
-10.23986197888394
 20
-1.907816447037034
 30
0.0
 10
-10.33859740898968
 20
-1.484000058491189
 30
0.0
 10
-10.39883281413591
 20
-1.037106564328127
 30
0.0
 10
-10.40687786209165
 20
-0.7308121232634835
 30
0.0
 10
-10.41097638800256
 20
-0.574771325249945
 30
0.0
  0
SPLINE
  5
137
330
1F
100
AcDbEntity
  8
0
  6
Continuous
 62
     7
370
    25
100
AcDbSpline
210
0.0
220
0.0
230
1.0
 70
     8
 71
     3
 72
    23
 73
    19
 74
     0
 42
0.00000001
 43
0.00000001
 40
0.0
 40
0.0
 40
0.0
 40
0.0
 40
0.0735977764959303
 40
0.1439732999063874
 40
0.2124680274344511
 40
0.2781589055148774
 40
0.3424123245887087
 40
0.4043796369412219
 40
0.465099506436997
 40
0.5247910861966375
 40
0.583583411954334
 40
0.641682447946609
 40
0.7000939140340807
 40
0.7582866268858874
 40
0.8167958109805429
 40
0.876456223687873
 40
0.9375947355642177
 40
1.0
 40
1.0
 40
1.0
 40
1.0
 10
-1.214635184003408
 20
-1.77196341203999
 30
0.0
 10
-1.28177953532645
 20
-1.89682357451877
 30
0.0
 10
-1.413128528330154
 20
-2.141077279926729
 30
0.0
 10
-1.629867156492115
 20
-2.488435965803025
 30
0.0
 10
-1.854371073163219
 20
-2.812384164886626
 30
0.0
 10
-2.091637234236508
 20
-3.112280123299522
 30
0.0
 10
-2.337244044128872
 20
-3.388738293372918
 30
0.0
 10
-2.594557595285824
 20
-3.641087293065823
 30
0.0
 10
-2.864077111598802
 20
-3.86661850949006
 30
0.0
 10
-3.13989759916104
 20
-4.074589253484015
 30
0.0
 10
-3.430214182081106
 20
-4.252600583024034
 30
0.0
 10
-3.730034089091479
 20
-4.408184797130732
 30
0.0
 10
-4.038605145606359
 20
-4.543260506843425
 30
0.0
 10
-4.358977300612819
 20
-4.649802430562372
 30
0.0
 10
-4.688317975430318
 20
-4.734070305198061
 30
0.0
 10
-5.028852133950068
 20
-4.793046046096185
 30
0.0
 10
-5.380174765603957
 20
-4.829728775793334
 30
0.0
 10
-5.618147268328824
 20
-4.834172924912908
 30
0.0
 10
-5.738353541799623
 20
-4.836417783450328
 30
0.0
  0
SPLINE
  5
139
330
1F
100
AcDbEntity
  8
0
  6
Continuous
 62
     7
370
    25
100
AcDbSpline
210
0.0
220
0.0
230
1.0
 70
     8
 71
     3
 72
    15
 73
    11
 74
     0
 42
0.00000001
 43
0.00000001
 40
0.0
 40
0.0
 40
0.0
 40
0.0
 40
0.1224509594274404
 40
0.2368925011999639
 40
0.348399939668034
 40
0.4592707642897234
 40
0.5748531471149501
 40
0.7023058397757128
 40
0.8445096891042392
 40
1.0
 40
1.0
 40
1.0
 40
1.0
 10
1.739629865985955
 20
1.807700489257607
 30
0.0
 10
1.646949378952772
 20
1.804896378570538
 30
0.0
 10
1.467650560157227
 20
1.799471571795589
 30
0.0
 10
1.209893968579527
 20
1.739443113781415
 30
0.0
 10
0.9712029286276136
 20
1.648349970439472
 30
0.0
 10
0.7529131634142243
 20
1.513124600875429
 30
0.0
 10
0.5496337643144326
 20
1.338149192319235
 30
0.0
 10
0.3553699374087184
 20
1.12050660975329
 30
0.0
 10
0.1686614022691535
 20
0.8582813612712462
 30
0.0
 10
0.0581482088932965
 20
0.6622638730021634
 30
0.0
 10
0.0004254413954428
 20
0.5598808764092772
 30
0.0
  0
SPLINE
  5
13B
330
1F
100
AcDbEntity
  8
0
  6
Continuous
 62
     7
370
    25
100
AcDbSpline
210
0.0
220
0.0
230
1.0
 70
     8
 71
     3
 72
    11
 73
     7
 74
     0
 42
0.00000001
 43
0.00000001
 40
0.0
 40
0.0
 40
0.0
 40
0.0
 40
0.2543173082559543
 40
0.4957758447157784
 40
0.7456826917440491
 40
1.0
 40
1.0
 40
1.0
 40
1.0
 10
-10.00000000000001
 20
-13.67836630504148
 30
0.0
 10
-9.99548281259762
 20
-13.63650519571422
 30
0.0
 10
-9.98667683546805
 20
-13.5548995551867
 30
0.0
 10
-9.914711276400274
 20
-13.45205966042245
 30
0.0
 10
-9.812144326749877
 20
-13.37915217230376
 30
0.0
 10
-9.729157122194671
 20
-13.37018811330849
 30
0.0
 10
-9.68730057434589
 20
-13.36566687938737
 30
0.0
  0
SPLINE
  5
13D
330
1F
100
AcDbEntity
  8
0
  6
Continuous
 62
     7
370
    25
100
AcDbSpline
210
0.0
220
0.0
230
1.0
 70
     8
 71
     3
 72
    11
 73
     7
 74
     0
 42
0.00000001
 43
0.00000001
 40
0.0
 40
0.0
 40
0.0
 40
0.0
 40
0.2444576330894459
 40
0.4999999999999962
 40
0.7555423669105478
 40
1.0
 40
1.0
 40
1.0
 40
1.0
 10
-9.687300574345892
 20
-19.27717506913423
 30
0.0
 10
-9.727302591787893
 20
-19.27257920683847
 30
0.0
 10
-9.809120485826332
 20
-19.26317908658515
 30
0.0
 10
-9.908349697848053
 20
-19.18552476698228
 30
0.0
 10
-9.986004017450934
 20
-19.08629555496056
 30
0.0
 10
-9.995404137704247
 20
-19.00447766092211
 30
0.0
 10
-10.00000000000001
 20
-18.96447564348011
 30
0.0
  0
SPLINE
  5
13F
330
1F
100
AcDbEntity
  8
0
  6
Continuous
 62
     7
370
    25
100
AcDbSpline
210
0.0
220
0.0
230
1.0
 70
     8
 71
     3
 72
    11
 73
     7
 74
     0
 42
0.00000001
 43
0.00000001
 40
0.0
 40
0.0
 40
0.0
 40
0.0
 40
0.2599835691396376
 40
0.4956660117191494
 40
0.7349024682084654
 40
1.0
 40
1.0
 40
1.0
 40
1.0
 10
-8.904062965326531
 20
-19.10444586258243
 30
0.0
 10
-8.918597318669914
 20
-19.13025252173348
 30
0.0
 10
-8.946307473501898
 20
-19.17945364571039
 30
0.0
 10
-9.009198985189254
 20
-19.23640820637158
 30
0.0
 10
-9.087582628912603
 20
-19.27079764973196
 30
0.0
 10
-9.144926807042573
 20
-19.27497781297999
 30
0.0
 10
-9.175069134226765
 20
-19.27717506913423
 30
0.0
  0
SPLINE
  5
142
330
1F
100
AcDbEntity
  8
0
  6
Continuous
 62
     7
370
    25
100
AcDbSpline
210
0.0
220
0.0
230
1.0
 70
     8
 71
     3
 72
    11
 73
     7
 74
     0
 42
0.00000001
 43
0.00000001
 40
0.0
 40
0.0
 40
0.0
 40
0.0
 40
0.2504650578098886
 40
0.4770449118176501
 40
0.7180806012927761
 40
1.0
 40
1.0
 40
1.0
 40
1.0
 10
3.999999999999995
 20
-14.29185279727718
 30
0.0
 10
3.996976150540327
 20
-14.34149690565347
 30
0.0
 10
3.991216816238564
 20
-14.4360508905874
 30
0.0
 10
3.918248795788253
 20
-14.56196593104798
 30
0.0
 10
3.800559639846838
 20
-14.65580348135379
 30
0.0
 10
3.701816668804653
 20
-14.68635772495823
 30
0.0
 10
3.648585407360131
 20
-14.70282918527973
 30
0.0
  0
SPLINE
  5
144
330
1F
100
AcDbEntity
  8
0
  6
Continuous
 62
     7
370
    25
100
AcDbSpline
210
0.0
220
0.0
230
1.0
 70
     8
 71
     3
 72
    11
 73
     7
 74
     0
 42
0.00000001
 43
0.00000001
 40
0.0
 40
0.0
 40
0.0
 40
0.0
 40
0.2815628712602082
 40
0.5191433022582683
 40
0.7498516911191951
 40
0.9999999999999999
 40
0.9999999999999999
 40
0.9999999999999999
 40
0.9999999999999999
 10
3.648585407360131
 20
-11.28696022122953
 30
0.0
 10
3.701581006973633
 20
-11.30369178425674
 30
0.0
 10
3.799293856915003
 20
-11.33454130231647
 30
0.0
 10
3.920169786037233
 20
-11.42509611984225
 30
0.0
 10
3.990430747645051
 20
-11.55334575984624
 30
0.0
 10
3.99672542284641
 20
-11.64845793791542
 30
0.0
 10
3.999999999999995
 20
-11.69793660923208
 30
0.0
  0
SPLINE
  5
148
330
1F
100
AcDbEntity
  8
0
  6
Continuous
 62
     7
370
    25
100
AcDbSpline
210
0.0
220
0.0
230
1.0
 70
     8
 71
     3
 72
    11
 73
     7
 74
     0
 42
0.00000001
 43
0.00000001
 40
0.0
 40
0.0
 40
0.0
 40
0.0
 40
0.2687883051676345
 40
0.5088359396073544
 40
0.742847891041822
 40
0.9999999999999999
 40
0.9999999999999999
 40
0.9999999999999999
 40
0.9999999999999999
 10
-9.175069134226765
 20
-13.36566687938737
 30
0.0
 10
-9.144992460739925
 20
-13.36687759786231
 30
0.0
 10
-9.08805511592354
 20
-13.36916957657179
 30
0.0
 10
-9.009574857732877
 20
-13.4002555986218
 30
0.0
 10
-8.946382444125202
 20
-13.45415846476784
 30
0.0
 10
-8.918605672899629
 20
-13.501629802227
 30
0.0
 10
-8.904062965326531
 20
-13.52648372686662
 30
0.0
  0
CIRCLE
  5
179
330
1F
100
AcDbEntity
  8
0
  6
Continuous
 62
     7
370
    25
100
AcDbCircle
 10
-27.0
 20
30.625
 30
0.0
 40
1.699999999999992
  0
CIRCLE
  5
17A
330
1F
100
AcDbEntity
  8
0
  6
Continuous
 62
     7
370
    25
100
AcDbCircle
 10
27.0
 20
30.625
 30
0.0
 40
1.699999999999996
  0
CIRCLE
  5
17B
330
1F
100
AcDbEntity
  8
0
  6
Continuous
 62
     7
370
    25
100
AcDbCircle
 10
38.0
 20
-28.375
 30
0.0
 40
1.699999999999996
  0
CIRCLE
  5
17C
330
1F
100
AcDbEntity
  8
0
  6
Continuous
 62
     7
370
    25
100
AcDbCircle
 10
-38.0
 20
-28.375
 30
0.0
 40
1.70000000000001
  0
LINE
  5
26E
330
1F
100
AcDbEntity
  8
0
  6
Continuous
 62
     7
370
    25
100
AcDbLine
 10
49.6788642102
 20
-1.2506090274
 30
0.0
 11
49.6788642102
 21
-4.7147106425
 31
0.0
  0
LINE
  5
26F
330
1F
100
AcDbEntity
  8
0
  6
Continuous
 62
     7
370
    25
100
AcDbLine
 10
49.6788642102
 20
-4.7147106425
 30
0.0
 11
52.6788642102
 21
-6.4467614501
 31
0.0
  0
LINE
  5
270
330
1F
100
AcDbEntity
  8
0
  6
Continuous
 62
     7
370
    25
100
AcDbLine
 10
52.6788642102
 20
-6.4467614501
 30
0.0
 11
55.6788642102
 21
-4.7147106425
 31
0.0
  0
LINE
  5
271
330
1F
100
AcDbEntity
  8
0
  6
Continuous
 62
     7
370
    25
100
AcDbLine
 10
55.6788642102
 20
-4.7147106425
 30
0.0
 11
55.6788642102
 21
-1.2506090274
 31
0.0
  0
LINE
  5
272
330
1F
100
AcDbEntity
  8
0
  6
Continuous
 62
     7
370
    25
100
AcDbLine
 10
55.6788642102
 20
-1.2506090274
 30
0.0
 11
52.6788642102
 21
0.4814417802
 31
0.0
  0
LINE
  5
273
330
1F
100
AcDbEntity
  8
0
  6
Continuous
 62
     7
370
    25
100
AcDbLine
 10
52.6788642102
 20
0.4814417802
 30
0.0
 11
49.6788642102
 21
-1.2506090274
 31
0.0
  0
LINE
  5
274
330
1F
100
AcDbEntity
  8
0
  6
Continuous
 62
     7
370
    25
100
AcDbLine
 10
53.5229415574
 20
-7.8288159586
 30
0.0
 11
53.5229415574
 21
-11.2929175737
 31
0.0
  0
LINE
  5
275
330
1F
100
AcDbEntity
  8
0
  6
Continuous
 62
     7
370
    25
100
AcDbLine
 10
53.5229415574
 20
-11.2929175737
 30
0.0
 11
56.5229415574
 21
-13.0249683813
 31
0.0
  0
LINE
  5
276
330
1F
100
AcDbEntity
  8
0
  6
Continuous
 62
     7
370
    25
100
AcDbLine
 10
56.5229415574
 20
-13.0249683813
 30
0.0
 11
59.5229415574
 21
-11.2929175737
 31
0.0
  0
LINE
  5
277
330
1F
100
AcDbEntity
  8
0
  6
Continuous
 62
     7
370
    25
100
AcDbLine
 10
59.5229415574
 20
-11.2929175737
 30
0.0
 11
59.5229415574
 21
-7.8288159586
 31
0.0
  0
LINE
  5
278
330
1F
100
AcDbEntity
  8
0
  6
Continuous
 62
     7
370
    25
100
AcDbLine
 10
59.5229415574
 20
-7.8288159586
 30
0.0
 11
56.5229415574
 21
-6.096765151
 31
0.0
  0
LINE
  5
279
330
1F
100
AcDbEntity
  8
0
  6
Continuous
 62
     7
370
    25
100
AcDbLine
 10
56.5229415574
 20
-6.096765151
 30
0.0
 11
53.5229415574
 21
-7.8288159586
 31
0.0
  0
LINE
  5
27A
330
1F
100
AcDbEntity
  8
0
  6
Continuous
 62
     7
370
    25
100
AcDbLine
 10
49.7229415574
 20
-14.4106090274
 30
0.0
 11
49.7229415574
 21
-17.8747106425
 31
0.0
  0
LINE
  5
27B
330
1F
100
AcDbEntity
  8
0
  6
Continuous
 62
     7
370
    25
100
AcDbLine
 10
49.7229415574
 20
-17.8747106425
 30
0.0
 11
52.7229415574
 21
-19.6067614501
 31
0.0
  0
LINE
  5
27C
330
1F
100
AcDbEntity
  8
0
  6
Continuous
 62
     7
370
    25
100
AcDbLine
 10
52.7229415574
 20
-19.6067614501
 30
0.0
 11
55.7229415574
 21
-17.8747106425
 31
0.0
  0
LINE
  5
27D
330
1F
100
AcDbEntity
  8
0
  6
Continuous
 62
     7
370
    25
100
AcDbLine
 10
55.7229415574
 20
-17.8747106425
 30
0.0
 11
55.7229415574
 21
-14.4106090274
 31
0.0
  0
LINE
  5
27E
330
1F
100
AcDbEntity
  8
0
  6
Continuous
 62
     7
370
    25
100
AcDbLine
 10
55.7229415574
 20
-14.4106090274
 30
0.0
 11
52.7229415574
 21
-12.6785582198
 31
0.0
  0
LINE
  5
27F
330
1F
100
AcDbEntity
  8
0
  6
Continuous
 62
     7
370
    25
100
AcDbLine
 10
52.7229415574
 20
-12.6785582198
 30
0.0
 11
49.7229415574
 21
-14.4106090274
 31
0.0
  0
LINE
  5
280
330
1F
100
AcDbEntity
  8
0
  6
Continuous
 62
     7
370
    25
100
AcDbLine
 10
53.5670189046
 20
-20.9888159586
 30
0.0
 11
53.5670189046
 21
-24.4529175737
 31
0.0
  0
LINE
  5
281
330
1F
100
AcDbEntity
  8
0
  6
Continuous
 62
     7
370
    25
100
AcDbLine
 10
53.5670189046
 20
-24.4529175737
 30
0.0
 11
56.5670189046
 21
-26.1849683813
 31
0.0
  0
LINE
  5
282
330
1F
100
AcDbEntity
  8
0
  6
Continuous
 62
     7
370
    25
100
AcDbLine
 10
56.5670189046
 20
-26.1849683813
 30
0.0
 11
59.5670189046
 21
-24.4529175737
 31
0.0
  0
LINE
  5
283
330
1F
100
AcDbEntity
  8
0
  6
Continuous
 62
     7
370
    25
100
AcDbLine
 10
59.5670189046
 20
-24.4529175737
 30
0.0
 11
59.5670189046
 21
-20.9888159586
 31
0.0
  0
LINE
  5
284
330
1F
100
AcDbEntity
  8
0
  6
Continuous
 62
     7
370
    25
100
AcDbLine
 10
59.5670189046
 20
-20.9888159586
 30
0.0
 11
56.5670189046
 21
-19.256765151
 31
0.0
  0
LINE
  5
285
330
1F
100
AcDbEntity
  8
0
  6
Continuous
 62
     7
370
    25
100
AcDbLine
 10
56.5670189046
 20
-19.256765151
 30
0.0
 11
53.5670189046
 21
-20.9888159586
 31
0.0
  0
LINE
  5
286
330
1F
100
AcDbEntity
  8
0
  6
Continuous
 62
     7
370
    25
100
AcDbLine
 10
49.7670189046
 20
-27.5706090274
 30
0.0
 11
49.7670189046
 21
-31.0347106425
 31
0.0
  0
LINE
  5
287
330
1F
100
AcDbEntity
  8
0
  6
Continuous
 62
     7
370
    25
100
AcDbLine
 10
49.7670189046
 20
-31.0347106425
 30
0.0
 11
52.7670189046
 21
-32.7667614501
 31
0.0
  0
LINE
  5
288
330
1F
100
AcDbEntity
  8
0
  6
Continuous
 62
     7
370
    25
100
AcDbLine
 10
52.7670189046
 20
-32.7667614501
 30
0.0
 11
55.7670189046
 21
-31.0347106425
 31
0.0
  0
LINE
  5
289
330
1F
100
AcDbEntity
  8
0
  6
Continuous
 62
     7
370
    25
100
AcDbLine
 10
55.7670189046
 20
-31.0347106425
 30
0.0
 11
55.7670189046
 21
-27.5706090274
 31
0.0
  0
LINE
  5
28A
330
1F
100
AcDbEntity
  8
0
  6
Continuous
 62
     7
370
    25
100
AcDbLine
 10
55.7670189046
 20
-27.5706090274
 30
0.0
 11
52.7670189046
 21
-25.8385582198
 31
0.0
  0
LINE
  5
28B
330
1F
100
AcDbEntity
  8
0
  6
Continuous
 62
     7
370
    25
100
AcDbLine
 10
52.7670189046
 20
-25.8385582198
 30
0.0
 11
49.7670189046
 21
-27.5706090274
 31
0.0
  0
LINE
  5
28C
330
1F
100
AcDbEntity
  8
0
  6
Continuous
 62
     7
370
    25
100
AcDbLine
 10
57.3670189046
 20
-27.5706090274
 30
0.0
 11
57.3670189046
 21
-31.0347106425
 31
0.0
  0
LINE
  5
28D
330
1F
100
AcDbEntity
  8
0
  6
Continuous
 62
     7
370
    25
100
AcDbLine
 10
57.3670189046
 20
-31.0347106425
 30
0.0
 11
60.3670189046
 21
-32.7667614501
 31
0.0
  0
LINE
  5
28E
330
1F
100
AcDbEntity
  8
0
  6
Continuous
 62
     7
370
    25
100
AcDbLine
 10
60.3670189046
 20
-32.7667614501
 30
0.0
 11
63.3670189046
 21
-31.0347106425
 31
0.0
  0
LINE
  5
28F
330
1F
100
AcDbEntity
  8
0
  6
Continuous
 62
     7
370
    25
100
AcDbLine
 10
63.3670189046
 20
-31.0347106425
 30
0.0
 11
63.3670189046
 21
-27.5706090274
 31
0.0
  0
LINE
  5
290
330
1F
100
AcDbEntity
  8
0
  6
Continuous
 62
     7
370
    25
100
AcDbLine
 10
63.3670189046
 20
-27.5706090274
 30
0.0
 11
60.3670189046
 21
-25.8385582198
 31
0.0
  0
LINE
  5
291
330
1F
100
AcDbEntity
  8
0
  6
Continuous
 62
     7
370
    25
100
AcDbLine
 10
60.3670189046
 20
-25.8385582198
 30
0.0
 11
57.3670189046
 21
-27.5706090274
 31
0.0
  0
LINE
  5
292
330
1F
100
AcDbEntity
  8
0
  6
Continuous
 62
     7
370
    25
100
AcDbLine
 10
57.3229415574
 20
-14.4106090274
 30
0.0
 11
57.3229415574
 21
-17.8747106425
 31
0.0
  0
LINE
  5
293
330
1F
100
AcDbEntity
  8
0
  6
Continuous
 62
     7
370
    25
100
AcDbLine
 10
57.3229415574
 20
-17.8747106425
 30
0.0
 11
60.3229415574
 21
-19.6067614501
 31
0.0
  0
LINE
  5
294
330
1F
100
AcDbEntity
  8
0
  6
Continuous
 62
     7
370
    25
100
AcDbLine
 10
60.3229415574
 20
-19.6067614501
 30
0.0
 11
63.3229415574
 21
-17.8747106425
 31
0.0
  0
LINE
  5
295
330
1F
100
AcDbEntity
  8
0
  6
Continuous
 62
     7
370
    25
100
AcDbLine
 10
63.3229415574
 20
-17.8747106425
 30
0.0
 11
63.3229415574
 21
-14.4106090274
 31
0.0
  0
LINE
  5
296
330
1F
100
AcDbEntity
  8
0
  6
Continuous
 62
     7
370
    25
100
AcDbLine
 10
63.3229415574
 20
-14.4106090274
 30
0.0
 11
60.3229415574
 21
-12.6785582198
 31
0.0
  0
LINE
  5
297
330
1F
100
AcDbEntity
  8
0
  6
Continuous
 62
     7
370
    25
100
AcDbLine
 10
60.3229415574
 20
-12.6785582198
 30
0.0
 11
57.3229415574
 21
-14.4106090274
 31
0.0
  0
LINE
  5
298
330
1F
100
AcDbEntity
  8
0
  6
Continuous
 62
     7
370
    25
100
AcDbLine
 10
57.2788642102
 20
-1.2506090274
 30
0.0
 11
57.2788642102
 21
-4.7147106425
 31
0.0
  0
LINE
  5
299
330
1F
100
AcDbEntity
  8
0
  6
Continuous
 62
     7
370
    25
100
AcDbLine
 10
57.2788642102
 20
-4.7147106425
 30
0.0
 11
60.2788642102
 21
-6.4467614501
 31
0.0
  0
LINE
  5
29A
330
1F
100
AcDbEntity
  8
0
  6
Continuous
 62
     7
370
    25
100
AcDbLine
 10
60.2788642102
 20
-6.4467614501
 30
0.0
 11
63.2788642102
 21
-4.7147106425
 31
0.0
  0
LINE
  5
29B
330
1F
100
AcDbEntity
  8
0
  6
Continuous
 62
     7
370
    25
100
AcDbLine
 10
63.2788642102
 20
-4.7147106425
 30
0.0
 11
63.2788642102
 21
-1.2506090274
 31
0.0
  0
LINE
  5
29C
330
1F
100
AcDbEntity
  8
0
  6
Continuous
 62
     7
370
    25
100
AcDbLine
 10
63.2788642102
 20
-1.2506090274
 30
0.0
 11
60.2788642102
 21
0.4814417802
 31
0.0
  0
LINE
  5
29D
330
1F
100
AcDbEntity
  8
0
  6
Continuous
 62
     7
370
    25
100
AcDbLine
 10
60.2788642102
 20
0.4814417802
 30
0.0
 11
57.2788642102
 21
-1.2506090274
 31
0.0
  0
LINE
  5
29E
330
1F
100
AcDbEntity
  8
0
  6
Continuous
 62
     7
370
    25
100
AcDbLine
 10
53.4788642102
 20
5.3311840414
 30
0.0
 11
53.4788642102
 21
1.8670824262
 31
0.0
  0
LINE
  5
29F
330
1F
100
AcDbEntity
  8
0
  6
Continuous
 62
     7
370
    25
100
AcDbLine
 10
53.4788642102
 20
1.8670824262
 30
0.0
 11
56.4788642102
 21
0.1350316187
 31
0.0
  0
LINE
  5
2A0
330
1F
100
AcDbEntity
  8
0
  6
Continuous
 62
     7
370
    25
100
AcDbLine
 10
56.4788642102
 20
0.1350316187
 30
0.0
 11
59.4788642102
 21
1.8670824262
 31
0.0
  0
LINE
  5
2A1
330
1F
100
AcDbEntity
  8
0
  6
Continuous
 62
     7
370
    25
100
AcDbLine
 10
59.4788642102
 20
1.8670824262
 30
0.0
 11
59.4788642102
 21
5.3311840414
 31
0.0
  0
LINE
  5
2A2
330
1F
100
AcDbEntity
  8
0
  6
Continuous
 62
     7
370
    25
100
AcDbLine
 10
59.4788642102
 20
5.3311840414
 30
0.0
 11
56.4788642102
 21
7.063234849
 31
0.0
  0
LINE
  5
2A3
330
1F
100
AcDbEntity
  8
0
  6
Continuous
 62
     7
370
    25
100
AcDbLine
 10
56.4788642102
 20
7.063234849
 30
0.0
 11
53.4788642102
 21
5.3311840414
 31
0.0
  0
LINE
  5
2A4
330
1F
100
AcDbEntity
  8
0
  6
Continuous
 62
     7
370
    25
100
AcDbLine
 10
-52.6788642102
 20
-6.4467614501
 30
0.0
 11
-55.6788642102
 21
-4.7147106425
 31
0.0
  0
LINE
  5
2A5
330
1F
100
AcDbEntity
  8
0
  6
Continuous
 62
     7
370
    25
100
AcDbLine
 10
-49.6788642102
 20
-4.7147106425
 30
0.0
 11
-52.6788642102
 21
-6.4467614501
 31
0.0
  0
LINE
  5
2A6
330
1F
100
AcDbEntity
  8
0
  6
Continuous
 62
     7
370
    25
100
AcDbLine
 10
-49.6788642102
 20
-1.2506090274
 30
0.0
 11
-49.6788642102
 21
-4.7147106425
 31
0.0
  0
LINE
  5
2A7
330
1F
100
AcDbEntity
  8
0
  6
Continuous
 62
     7
370
    25
100
AcDbLine
 10
-52.6788642102
 20
0.4814417802
 30
0.0
 11
-49.6788642102
 21
-1.2506090274
 31
0.0
  0
LINE
  5
2A8
330
1F
100
AcDbEntity
  8
0
  6
Continuous
 62
     7
370
    25
100
AcDbLine
 10
-55.6788642102
 20
-1.2506090274
 30
0.0
 11
-52.6788642102
 21
0.4814417802
 31
0.0
  0
LINE
  5
2A9
330
1F
100
AcDbEntity
  8
0
  6
Continuous
 62
     7
370
    25
100
AcDbLine
 10
-55.6788642102
 20
-4.7147106425
 30
0.0
 11
-55.6788642102
 21
-1.2506090274
 31
0.0
  0
LINE
  5
2AA
330
1F
100
AcDbEntity
  8
0
  6
Continuous
 62
     7
370
    25
100
AcDbLine
 10
-56.5229415574
 20
-13.0249683813
 30
0.0
 11
-59.5229415574
 21
-11.2929175737
 31
0.0
  0
LINE
  5
2AB
330
1F
100
AcDbEntity
  8
0
  6
Continuous
 62
     7
370
    25
100
AcDbLine
 10
-53.5229415574
 20
-11.2929175737
 30
0.0
 11
-56.5229415574
 21
-13.0249683813
 31
0.0
  0
LINE
  5
2AC
330
1F
100
AcDbEntity
  8
0
  6
Continuous
 62
     7
370
    25
100
AcDbLine
 10
-53.5229415574
 20
-7.8288159586
 30
0.0
 11
-53.5229415574
 21
-11.2929175737
 31
0.0
  0
LINE
  5
2AD
330
1F
100
AcDbEntity
  8
0
  6
Continuous
 62
     7
370
    25
100
AcDbLine
 10
-56.5229415574
 20
-6.096765151
 30
0.0
 11
-53.5229415574
 21
-7.8288159586
 31
0.0
  0
LINE
  5
2AE
330
1F
100
AcDbEntity
  8
0
  6
Continuous
 62
     7
370
    25
100
AcDbLine
 10
-59.5229415574
 20
-7.8288159586
 30
0.0
 11
-56.5229415574
 21
-6.096765151
 31
0.0
  0
LINE
  5
2AF
330
1F
100
AcDbEntity
  8
0
  6
Continuous
 62
     7
370
    25
100
AcDbLine
 10
-59.5229415574
 20
-11.2929175737
 30
0.0
 11
-59.5229415574
 21
-7.8288159586
 31
0.0
  0
LINE
  5
2B0
330
1F
100
AcDbEntity
  8
0
  6
Continuous
 62
     7
370
    25
100
AcDbLine
 10
-52.7229415574
 20
-19.6067614501
 30
0.0
 11
-55.7229415574
 21
-17.8747106425
 31
0.0
  0
LINE
  5
2B1
330
1F
100
AcDbEntity
  8
0
  6
Continuous
 62
     7
370
    25
100
AcDbLine
 10
-49.7229415574
 20
-17.8747106425
 30
0.0
 11
-52.7229415574
 21
-19.6067614501
 31
0.0
  0
LINE
  5
2B2
330
1F
100
AcDbEntity
  8
0
  6
Continuous
 62
     7
370
    25
100
AcDbLine
 10
-49.7229415574
 20
-14.4106090274
 30
0.0
 11
-49.7229415574
 21
-17.8747106425
 31
0.0
  0
LINE
  5
2B3
330
1F
100
AcDbEntity
  8
0
  6
Continuous
 62
     7
370
    25
100
AcDbLine
 10
-52.7229415574
 20
-12.6785582198
 30
0.0
 11
-49.7229415574
 21
-14.4106090274
 31
0.0
  0
LINE
  5
2B4
330
1F
100
AcDbEntity
  8
0
  6
Continuous
 62
     7
370
    25
100
AcDbLine
 10
-55.7229415574
 20
-14.4106090274
 30
0.0
 11
-52.7229415574
 21
-12.6785582198
 31
0.0
  0
LINE
  5
2B5
330
1F
100
AcDbEntity
  8
0
  6
Continuous
 62
     7
370
    25
100
AcDbLine
 10
-55.7229415574
 20
-17.8747106425
 30
0.0
 11
-55.7229415574
 21
-14.4106090274
 31
0.0
  0
LINE
  5
2B6
330
1F
100
AcDbEntity
  8
0
  6
Continuous
 62
     7
370
    25
100
AcDbLine
 10
-56.5670189046
 20
-26.1849683813
 30
0.0
 11
-59.5670189046
 21
-24.4529175737
 31
0.0
  0
LINE
  5
2B7
330
1F
100
AcDbEntity
  8
0
  6
Continuous
 62
     7
370
    25
100
AcDbLine
 10
-53.5670189046
 20
-24.4529175737
 30
0.0
 11
-56.5670189046
 21
-26.1849683813
 31
0.0
  0
LINE
  5
2B8
330
1F
100
AcDbEntity
  8
0
  6
Continuous
 62
     7
370
    25
100
AcDbLine
 10
-53.5670189046
 20
-20.9888159586
 30
0.0
 11
-53.5670189046
 21
-24.4529175737
 31
0.0
  0
LINE
  5
2B9
330
1F
100
AcDbEntity
  8
0
  6
Continuous
 62
     7
370
    25
100
AcDbLine
 10
-56.5670189046
 20
-19.256765151
 30
0.0
 11
-53.5670189046
 21
-20.9888159586
 31
0.0
  0
LINE
  5
2BA
330
1F
100
AcDbEntity
  8
0
  6
Continuous
 62
     7
370
    25
100
AcDbLine
 10
-59.5670189046
 20
-20.9888159586
 30
0.0
 11
-56.5670189046
 21
-19.256765151
 31
0.0
  0
LINE
  5
2BB
330
1F
100
AcDbEntity
  8
0
  6
Continuous
 62
     7
370
    25
100
AcDbLine
 10
-59.5670189046
 20
-24.4529175737
 30
0.0
 11
-59.5670189046
 21
-20.9888159586
 31
0.0
  0
LINE
  5
2BC
330
1F
100
AcDbEntity
  8
0
  6
Continuous
 62
     7
370
    25
100
AcDbLine
 10
-52.7670189046
 20
-32.7667614501
 30
0.0
 11
-55.7670189046
 21
-31.0347106425
 31
0.0
  0
LINE
  5
2BD
330
1F
100
AcDbEntity
  8
0
  6
Continuous
 62
     7
370
    25
100
AcDbLine
 10
-49.7670189046
 20
-31.0347106425
 30
0.0
 11
-52.7670189046
 21
-32.7667614501
 31
0.0
  0
LINE
  5
2BE
330
1F
100
AcDbEntity
  8
0
  6
Continuous
 62
     7
370
    25
100
AcDbLine
 10
-49.7670189046
 20
-27.5706090274
 30
0.0
 11
-49.7670189046
 21
-31.0347106425
 31
0.0
  0
LINE
  5
2BF
330
1F
100
AcDbEntity
  8
0
  6
Continuous
 62
     7
370
    25
100
AcDbLine
 10
-52.7670189046
 20
-25.8385582198
 30
0.0
 11
-49.7670189046
 21
-27.5706090274
 31
0.0
  0
LINE
  5
2C0
330
1F
100
AcDbEntity
  8
0
  6
Continuous
 62
     7
370
    25
100
AcDbLine
 10
-55.7670189046
 20
-27.5706090274
 30
0.0
 11
-52.7670189046
 21
-25.8385582198
 31
0.0
  0
LINE
  5
2C1
330
1F
100
AcDbEntity
  8
0
  6
Continuous
 62
     7
370
    25
100
AcDbLine
 10
-55.7670189046
 20
-31.0347106425
 30
0.0
 11
-55.7670189046
 21
-27.5706090274
 31
0.0
  0
LINE
  5
2C2
330
1F
100
AcDbEntity
  8
0
  6
Continuous
 62
     7
370
    25
100
AcDbLine
 10
-60.3670189046
 20
-32.7667614501
 30
0.0
 11
-63.3670189046
 21
-31.0347106425
 31
0.0
  0
LINE
  5
2C3
330
1F
100
AcDbEntity
  8
0
  6
Continuous
 62
     7
370
    25
100
AcDbLine
 10
-57.3670189046
 20
-31.0347106425
 30
0.0
 11
-60.3670189046
 21
-32.7667614501
 31
0.0
  0
LINE
  5
2C4
330
1F
100
AcDbEntity
  8
0
  6
Continuous
 62
     7
370
    25
100
AcDbLine
 10
-57.3670189046
 20
-27.5706090274
 30
0.0
 11
-57.3670189046
 21
-31.0347106425
 31
0.0
  0
LINE
  5
2C5
330
1F
100
AcDbEntity
  8
0
  6
Continuous
 62
     7
370
    25
100
AcDbLine
 10
-60.3670189046
 20
-25.8385582198
 30
0.0
 11
-57.3670189046
 21
-27.5706090274
 31
0.0
  0
LINE
  5
2C6
330
1F
100
AcDbEntity
  8
0
  6
Continuous
 62
     7
370
    25
100
AcDbLine
 10
-63.3670189046
 20
-27.5706090274
 30
0.0
 11
-60.3670189046
 21
-25.8385582198
 31
0.0
  0
LINE
  5
2C7
330
1F
100
AcDbEntity
  8
0
  6
Continuous
 62
     7
370
    25
100
AcDbLine
 10
-63.3670189046
 20
-31.0347106425
 30
0.0
 11
-63.3670189046
 21
-27.5706090274
 31
0.0
  0
LINE
  5
2C8
330
1F
100
AcDbEntity
  8
0
  6
Continuous
 62
     7
370
    25
100
AcDbLine
 10
-60.3229415574
 20
-19.6067614501
 30
0.0
 11
-63.3229415574
 21
-17.8747106425
 31
0.0
  0
LINE
  5
2C9
330
1F
100
AcDbEntity
  8
0
  6
Continuous
 62
     7
370
    25
100
AcDbLine
 10
-57.3229415574
 20
-17.8747106425
 30
0.0
 11
-60.3229415574
 21
-19.6067614501
 31
0.0
  0
LINE
  5
2CA
330
1F
100
AcDbEntity
  8
0
  6
Continuous
 62
     7
370
    25
100
AcDbLine
 10
-57.3229415574
 20
-14.4106090274
 30
0.0
 11
-57.3229415574
 21
-17.8747106425
 31
0.0
  0
LINE
  5
2CB
330
1F
100
AcDbEntity
  8
0
  6
Continuous
 62
     7
370
    25
100
AcDbLine
 10
-60.3229415574
 20
-12.6785582198
 30
0.0
 11
-57.3229415574
 21
-14.4106090274
 31
0.0
  0
LINE
  5
2CC
330
1F
100
AcDbEntity
  8
0
  6
Continuous
 62
     7
370
    25
100
AcDbLine
 10
-63.3229415574
 20
-14.4106090274
 30
0.0
 11
-60.3229415574
 21
-12.6785582198
 31
0.0
  0
LINE
  5
2CD
330
1F
100
AcDbEntity
  8
0
  6
Continuous
 62
     7
370
    25
100
AcDbLine
 10
-63.3229415574
 20
-17.8747106425
 30
0.0
 11
-63.3229415574
 21
-14.4106090274
 31
0.0
  0
LINE
  5
2CE
330
1F
100
AcDbEntity
  8
0
  6
Continuous
 62
     7
370
    25
100
AcDbLine
 10
-60.2788642102
 20
-6.4467614501
 30
0.0
 11
-63.2788642102
 21
-4.7147106425
 31
0.0
  0
LINE
  5
2CF
330
1F
100
AcDbEntity
  8
0
  6
Continuous
 62
     7
370
    25
100
AcDbLine
 10
-57.2788642102
 20
-4.7147106425
 30
0.0
 11
-60.2788642102
 21
-6.4467614501
 31
0.0
  0
LINE
  5
2D0
330
1F
100
AcDbEntity
  8
0
  6
Continuous
 62
     7
370
    25
100
AcDbLine
 10
-57.2788642102
 20
-1.2506090274
 30
0.0
 11
-57.2788642102
 21
-4.7147106425
 31
0.0
  0
LINE
  5
2D1
330
1F
100
AcDbEntity
  8
0
  6
Continuous
 62
     7
370
    25
100
AcDbLine
 10
-60.2788642102
 20
0.4814417802
 30
0.0
 11
-57.2788642102
 21
-1.2506090274
 31
0.0
  0
LINE
  5
2D2
330
1F
100
AcDbEntity
  8
0
  6
Continuous
 62
     7
370
    25
100
AcDbLine
 10
-63.2788642102
 20
-1.2506090274
 30
0.0
 11
-60.2788642102
 21
0.4814417802
 31
0.0
  0
LINE
  5
2D3
330
1F
100
AcDbEntity
  8
0
  6
Continuous
 62
     7
370
    25
100
AcDbLine
 10
-63.2788642102
 20
-4.7147106425
 30
0.0
 11
-63.2788642102
 21
-1.2506090274
 31
0.0
  0
LINE
  5
2D4
330
1F
100
AcDbEntity
  8
0
  6
Continuous
 62
     7
370
    25
100
AcDbLine
 10
-56.4788642102
 20
0.1350316187
 30
0.0
 11
-59.4788642102
 21
1.8670824262
 31
0.0
  0
LINE
  5
2D5
330
1F
100
AcDbEntity
  8
0
  6
Continuous
 62
     7
370
    25
100
AcDbLine
 10
-53.4788642102
 20
1.8670824262
 30
0.0
 11
-56.4788642102
 21
0.1350316187
 31
0.0
  0
LINE
  5
2D6
330
1F
100
AcDbEntity
  8
0
  6
Continuous
 62
     7
370
    25
100
AcDbLine
 10
-53.4788642102
 20
5.3311840414
 30
0.0
 11
-53.4788642102
 21
1.8670824262
 31
0.0
  0
LINE
  5
2D7
330
1F
100
AcDbEntity
  8
0
  6
Continuous
 62
     7
370
    25
100
AcDbLine
 10
-56.4788642102
 20
7.063234849
 30
0.0
 11
-53.4788642102
 21
5.3311840414
 31
0.0
  0
LINE
  5
2D8
330
1F
100
AcDbEntity
  8
0
  6
Continuous
 62
     7
370
    25
100
AcDbLine
 10
-59.4788642102
 20
5.3311840414
 30
0.0
 11
-56.4788642102
 21
7.063234849
 31
0.0
  0
LINE
  5
2D9
330
1F
100
AcDbEntity
  8
0
  6
Continuous
 62
     7
370
    25
100
AcDbLine
 10
-59.4788642102
 20
1.8670824262
 30
0.0
 11
-59.4788642102
 21
5.3311840414
 31
0.0
  0
LINE
  5
2DA
330
1F
100
AcDbEntity
  8
0
  6
Continuous
 62
     7
370
    25
100
AcDbLine
 10
-5.675
 20
50.3485652145
 30
0.0
 11
-5.675
 21
41.5985652145
 31
0.0
  0
LINE
  5
2DB
330
1F
100
AcDbEntity
  8
0
  6
Continuous
 62
     7
370
    25
100
AcDbLine
 10
-23.675
 20
50.3485652145
 30
0.0
 11
-5.675
 21
50.3485652145
 31
0.0
  0
LINE
  5
2DC
330
1F
100
AcDbEntity
  8
0
  6
Continuous
 62
     7
370
    25
100
AcDbLine
 10
-23.675
 20
41.5985652145
 30
0.0
 11
-23.675
 21
50.3485652145
 31
0.0
  0
LINE
  5
2DD
330
1F
100
AcDbEntity
  8
0
  6
Continuous
 62
     7
370
    25
100
AcDbLine
 10
-5.675
 20
41.5985652145
 30
0.0
 11
-23.675
 21
41.5985652145
 31
0.0
  0
LINE
  5
2DE
330
1F
100
AcDbEntity
  8
0
  6
Continuous
 62
     7
370
    25
100
AcDbLine
 10
12.64
 20
47.3585652145
 30
0.0
 11
12.64
 21
42.3585652145
 31
0.0
  0
LINE
  5
2DF
330
1F
100
AcDbEntity
  8
0
  6
Continuous
 62
     7
370
    25
100
AcDbLine
 10
4.14
 20
42.3585652145
 30
0.0
 11
4.14
 21
47.3585652145
 31
0.0
  0
LINE
  5
2E0
330
1F
100
AcDbEntity
  8
0
  6
Continuous
 62
     7
370
    25
100
AcDbLine
 10
12.64
 20
42.3585652145
 30
0.0
 11
4.14
 21
42.3585652145
 31
0.0
  0
LINE
  5
2E1
330
1F
100
AcDbEntity
  8
0
  6
Continuous
 62
     7
370
    25
100
AcDbLine
 10
31.4683532835
 20
41.5905652145
 30
0.0
 11
31.4683532835
 21
44.5905652145
 31
0.0
  0
LINE
  5
2E2
330
1F
100
AcDbEntity
  8
0
  6
Continuous
 62
     7
370
    25
100
AcDbLine
 10
31.4683532835
 20
44.5905652145
 30
0.0
 11
21.4683532835
 21
44.5905652145
 31
0.0
  0
LINE
  5
2E3
330
1F
100
AcDbEntity
  8
0
  6
Continuous
 62
     7
370
    25
100
AcDbLine
 10
21.4683532835
 20
44.5905652145
 30
0.0
 11
21.4683532835
 21
41.5905652145
 31
0.0
  0
LINE
  5
2E4
330
1F
100
AcDbEntity
  8
0
  6
Continuous
 62
     7
370
    25
100
AcDbLine
 10
21.4683532835
 20
41.5905652145
 30
0.0
 11
31.4683532835
 21
41.5905652145
 31
0.0
  0
LINE
  5
2E5
330
1F
100
AcDbEntity
  8
0
  6
Continuous
 62
     7
370
    25
100
AcDbLine
 10
-10.0
 20
13.3418421612
 30
0.0
 11
-10.0
 21
18.4939374601
 31
0.0
  0
LINE
  5
2E6
330
1F
100
AcDbEntity
  8
0
  6
Continuous
 62
     7
370
    25
100
AcDbLine
 10
-9.1750691342
 20
13.0291427356
 30
0.0
 11
-9.6873005743
 21
13.0291427356
 31
0.0
  0
LINE
  5
2E7
330
1F
100
AcDbEntity
  8
0
  6
Continuous
 62
     7
370
    25
100
AcDbLine
 10
-8.4513933206
 20
14.0625398851
 30
0.0
 11
-8.9040629653
 21
13.1988938524
 31
0.0
  0
LINE
  5
2E8
330
1F
100
AcDbEntity
  8
0
  6
Continuous
 62
     7
370
    25
100
AcDbLine
 10
3.6694320357
 20
14.0625398851
 30
0.0
 11
-8.4513933206
 21
14.0625398851
 31
0.0
  0
LINE
  5
2E9
330
1F
100
AcDbEntity
  8
0
  6
Continuous
 62
     7
370
    25
100
AcDbLine
 10
4.0
 20
18.4939374601
 30
0.0
 11
4.0
 21
14.3960859392
 31
0.0
  0
LINE
  5
2EA
330
1F
100
AcDbEntity
  8
0
  6
Continuous
 62
     7
370
    25
100
AcDbLine
 10
3.178047224
 20
18.7947245267
 30
0.0
 11
3.6902786641
 21
18.7947245267
 31
0.0
  0
LINE
  5
2EB
330
1F
100
AcDbEntity
  8
0
  6
Continuous
 62
     7
370
    25
100
AcDbLine
 10
2.4543714103
 20
17.7672835567
 30
0.0
 11
2.9070410551
 21
18.6339076792
 31
0.0
  0
LINE
  5
2EC
330
1F
100
AcDbEntity
  8
0
  6
Continuous
 62
     7
370
    25
100
AcDbLine
 10
-8.4513933206
 20
17.7672835567
 30
0.0
 11
2.4543714103
 21
17.7672835567
 31
0.0
  0
LINE
  5
2ED
330
1F
100
AcDbEntity
  8
0
  6
Continuous
 62
     7
370
    25
100
AcDbLine
 10
-8.9040629653
 20
18.6339076792
 30
0.0
 11
-8.4513933206
 21
17.7672835567
 31
0.0
  0
LINE
  5
2EE
330
1F
100
AcDbEntity
  8
0
  6
Continuous
 62
     7
370
    25
100
AcDbLine
 10
-9.6873005743
 20
18.7947245267
 30
0.0
 11
-9.1750691342
 21
18.7947245267
 31
0.0
  0
LINE
  5
2EF
330
1F
100
AcDbEntity
  8
0
  6
Continuous
 62
     7
370
    25
100
AcDbLine
 10
2.9457562221
 20
13.0291427356
 30
0.0
 11
3.6902786641
 21
13.0291427356
 31
0.0
  0
LINE
  5
2F0
330
1F
100
AcDbEntity
  8
0
  6
Continuous
 62
     7
370
    25
100
AcDbLine
 10
2.4722399489
 20
12.4573495001
 30
0.0
 11
2.6747500532
 21
12.8683258881
 31
0.0
  0
LINE
  5
2F1
330
1F
100
AcDbEntity
  8
0
  6
Continuous
 62
     7
370
    25
100
AcDbLine
 10
-1.0240374388
 20
11.6145500957
 30
0.0
 11
0.995107424
 21
11.6145500957
 31
0.0
  0
LINE
  5
2F2
330
1F
100
AcDbEntity
  8
0
  6
Continuous
 62
     7
370
    25
100
AcDbLine
 10
-2.7334609658
 20
12.8296107211
 30
0.0
 11
-2.5517974899
 21
12.4573495001
 31
0.0
  0
LINE
  5
2F3
330
1F
100
AcDbEntity
  8
0
  6
Continuous
 62
     7
370
    25
100
AcDbLine
 10
-3.7996171027
 20
13.0291427356
 30
0.0
 11
-3.025313763
 21
13.0291427356
 31
0.0
  0
LINE
  5
2F4
330
1F
100
AcDbEntity
  8
0
  6
Continuous
 62
     7
370
    25
100
AcDbLine
 10
-4.0706232716
 20
11.5520102106
 30
0.0
 11
-4.0706232716
 21
12.8087640927
 31
0.0
  0
LINE
  5
2F5
330
1F
100
AcDbEntity
  8
0
  6
Continuous
 62
     7
370
    25
100
AcDbLine
 10
4.0
 20
12.728355669
 30
0.0
 11
4.0
 21
11.6145500957
 31
0.0
  0
LINE
  5
2F6
330
1F
100
AcDbEntity
  8
0
  6
Continuous
 62
     7
370
    25
100
AcDbLine
 10
-10.0
 20
-10.2208040842
 30
0.0
 11
-10.0
 21
-7.025313763
 31
0.0
  0
LINE
  5
2F7
330
1F
100
AcDbEntity
  8
0
  6
Continuous
 62
     7
370
    25
100
AcDbLine
 10
-9.1750691342
 20
-10.5215911508
 30
0.0
 11
-9.6873005743
 21
-10.5215911508
 31
0.0
  0
LINE
  5
2F8
330
1F
100
AcDbEntity
  8
0
  6
Continuous
 62
     7
370
    25
100
AcDbLine
 10
-8.4513933206
 20
-9.4971282706
 30
0.0
 11
-8.9040629653
 21
-10.3607743033
 31
0.0
  0
LINE
  5
2F9
330
1F
100
AcDbEntity
  8
0
  6
Continuous
 62
     7
370
    25
100
AcDbLine
 10
-6.351840034
 20
-10.1106147628
 30
0.0
 11
-8.4513933206
 21
-9.4971282706
 31
0.0
  0
LINE
  5
2FA
330
1F
100
AcDbEntity
  8
0
  6
Continuous
 62
     7
370
    25
100
AcDbLine
 10
-6.351840034
 20
-12.4424590513
 30
0.0
 11
-6.351840034
 21
-10.1106147628
 31
0.0
  0
LINE
  5
2FB
330
1F
100
AcDbEntity
  8
0
  6
Continuous
 62
     7
370
    25
100
AcDbLine
 10
-5.1338013189
 20
-12.3620506275
 30
0.0
 11
-6.0599872368
 21
-12.6419910657
 31
0.0
  0
LINE
  5
2FC
330
1F
100
AcDbEntity
  8
0
  6
Continuous
 62
     7
370
    25
100
AcDbLine
 10
-4.874707509
 20
-10.5424377792
 30
0.0
 11
-4.874707509
 21
-12.0106360349
 31
0.0
  0
LINE
  5
2FD
330
1F
100
AcDbEntity
  8
0
  6
Continuous
 62
     7
370
    25
100
AcDbLine
 10
-2.1795362689
 20
-11.3256753882
 30
0.0
 11
-4.874707509
 21
-10.5424377792
 31
0.0
  0
LINE
  5
2FE
330
1F
100
AcDbEntity
  8
0
  6
Continuous
 62
     7
370
    25
100
AcDbLine
 10
0.5245692406
 20
-10.6913422676
 30
0.0
 11
-1.6464582004
 21
-11.3256753882
 31
0.0
  0
LINE
  5
2FF
330
1F
100
AcDbEntity
  8
0
  6
Continuous
 62
     7
370
    25
100
AcDbLine
 10
-8.4513933206
 20
-7.7489895767
 30
0.0
 11
0.5424377792
 21
-10.3816209317
 31
0.0
  0
LINE
  5
300
330
1F
100
AcDbEntity
  8
0
  6
Continuous
 62
     7
370
    25
100
AcDbLine
 10
-8.9040629653
 20
-6.8823654542
 30
0.0
 11
-8.4513933206
 21
-7.7489895767
 31
0.0
  0
LINE
  5
301
330
1F
100
AcDbEntity
  8
0
  6
Continuous
 62
     7
370
    25
100
AcDbLine
 10
-9.6873005743
 20
-6.7126143374
 30
0.0
 11
-9.1750691342
 21
-6.7126143374
 31
0.0
  0
LINE
  5
302
330
1F
100
AcDbEntity
  8
0
  6
Continuous
 62
     7
370
    25
100
AcDbLine
 10
-9.6902786641
 20
4.6309295894
 30
0.0
 11
-5.529887258
 21
4.6309295894
 31
0.0
  0
LINE
  5
303
330
1F
100
AcDbEntity
  8
0
  6
Continuous
 62
     7
370
    25
100
AcDbLine
 10
-10.0029780898
 20
3.004892576
 30
0.0
 11
-10.0029780898
 21
4.3212082536
 31
0.0
  0
LINE
  5
304
330
1F
100
AcDbEntity
  8
0
  6
Continuous
 62
     7
370
    25
100
AcDbLine
 10
-9.3686449692
 20
0.7623909806
 30
0.0
 11
-10.1042331419
 21
0.7623909806
 31
0.0
  0
LINE
  5
305
330
1F
100
AcDbEntity
  8
0
  6
Continuous
 62
     7
370
    25
100
AcDbLine
 10
-8.9785152095
 20
1.3758774729
 30
0.0
 11
-9.0976388003
 21
0.9827696235
 31
0.0
  0
LINE
  5
306
330
1F
100
AcDbEntity
  8
0
  6
Continuous
 62
     7
370
    25
100
AcDbLine
 10
-5.2171878324
 20
4.3212082536
 30
0.0
 11
-5.2171878324
 21
3.5975324399
 31
0.0
  0
LINE
  5
307
330
1F
100
AcDbEntity
  8
0
  6
Continuous
 62
     7
370
    25
100
AcDbLine
 10
3.6902786641
 20
-4.4254413954
 30
0.0
 11
0.0421186981
 21
-4.4254413954
 31
0.0
  0
LINE
  5
308
330
1F
100
AcDbEntity
  8
0
  6
Continuous
 62
     7
370
    25
100
AcDbLine
 10
4.0
 20
-2.7964262923
 30
0.0
 11
4.0
 21
-4.1127419698
 31
0.0
  0
LINE
  5
309
330
1F
100
AcDbEntity
  8
0
  6
Continuous
 62
     7
370
    25
100
AcDbLine
 10
3.3686449692
 20
-0.655179749
 30
0.0
 11
4.1012550521
 21
-0.655179749
 31
0.0
  0
LINE
  5
30A
330
1F
100
AcDbEntity
  8
0
  6
Continuous
 62
     7
370
    25
100
AcDbLine
 10
2.9546904914
 20
-1.438417358
 30
0.0
 11
3.0976388003
 21
-0.8874707509
 31
0.0
  0
LINE
  5
30B
330
1F
100
AcDbEntity
  8
0
  6
Continuous
 62
     7
370
    25
100
AcDbLine
 10
-0.2616464582
 20
-4.1127419698
 30
0.0
 11
-0.2616464582
 21
-3.3980004254
 31
0.0
  0
LINE
  5
30C
330
1F
100
AcDbEntity
  8
0
  6
Continuous
 62
     7
370
    25
100
AcDbLine
 10
4.1012550521
 20
0.3692831312
 30
0.0
 11
3.3686449692
 21
0.3692831312
 31
0.0
  0
LINE
  5
30D
330
1F
100
AcDbEntity
  8
0
  6
Continuous
 62
     7
370
    25
100
AcDbLine
 10
-5.6787917464
 20
-0.3246117847
 30
0.0
 11
-4.4011912359
 21
2.1203999149
 31
0.0
  0
LINE
  5
30E
330
1F
100
AcDbEntity
  8
0
  6
Continuous
 62
     7
370
    25
100
AcDbLine
 10
-10.1012550521
 20
-0.2620718996
 30
0.0
 11
-9.3656668794
 21
-0.2620718996
 31
0.0
  0
LINE
  5
30F
330
1F
100
AcDbEntity
  8
0
  6
Continuous
 62
     7
370
    25
100
AcDbLine
 10
0.0004254414
 20
0.5598808764
 30
0.0
 11
-1.214635184
 21
-1.771963412
 31
0.0
  0
LINE
  5
310
330
1F
100
AcDbEntity
  8
0
  6
Continuous
 62
     7
370
    25
100
AcDbLine
 10
-9.6873005743
 20
-13.3656668794
 30
0.0
 11
-9.1750691342
 21
-13.3656668794
 31
0.0
  0
LINE
  5
311
330
1F
100
AcDbEntity
  8
0
  6
Continuous
 62
     7
370
    25
100
AcDbLine
 10
-10.0
 20
-18.9644756435
 30
0.0
 11
-10.0
 21
-13.678366305
 31
0.0
  0
LINE
  5
312
330
1F
100
AcDbEntity
  8
0
  6
Continuous
 62
     7
370
    25
100
AcDbLine
 10
-9.1750691342
 20
-19.2771750691
 30
0.0
 11
-9.6873005743
 21
-19.2771750691
 31
0.0
  0
LINE
  5
313
330
1F
100
AcDbEntity
  8
0
  6
Continuous
 62
     7
370
    25
100
AcDbLine
 10
-8.4513933206
 20
-18.2407998298
 30
0.0
 11
-8.9040629653
 21
-19.1044458626
 31
0.0
  0
LINE
  5
314
330
1F
100
AcDbEntity
  8
0
  6
Continuous
 62
     7
370
    25
100
AcDbLine
 10
3.6485854074
 20
-14.7028291853
 30
0.0
 11
-8.4513933206
 21
-18.2407998298
 31
0.0
  0
LINE
  5
315
330
1F
100
AcDbEntity
  8
0
  6
Continuous
 62
     7
370
    25
100
AcDbLine
 10
4.0
 20
-11.6979366092
 30
0.0
 11
4.0
 21
-14.2918527973
 31
0.0
  0
LINE
  5
316
330
1F
100
AcDbEntity
  8
0
  6
Continuous
 62
     7
370
    25
100
AcDbLine
 10
2.8861944267
 20
-11.0636034886
 30
0.0
 11
3.6485854074
 21
-11.2869602212
 31
0.0
  0
LINE
  5
317
330
1F
100
AcDbEntity
  8
0
  6
Continuous
 62
     7
370
    25
100
AcDbLine
 10
-8.4513933206
 20
-14.3901297596
 30
0.0
 11
2.8861944267
 21
-11.0636034886
 31
0.0
  0
LINE
  5
318
330
1F
100
AcDbEntity
  8
0
  6
Continuous
 62
     7
370
    25
100
AcDbLine
 10
-8.9040629653
 20
-13.5264837269
 30
0.0
 11
-8.4513933206
 21
-14.3901297596
 31
0.0
  0
LINE
  5
319
330
1F
100
AcDbEntity
  8
0
  6
Continuous
 62
     7
370
    25
100
AcDbLine
 10
-39.2505426915
 20
34.0429
 30
0.0
 11
-39.2505426915
 21
36.875
 31
0.0
  0
LINE
  5
31A
330
1F
100
AcDbEntity
  8
0
  6
Continuous
 62
     7
370
    25
100
AcDbLine
 10
-38.4504426915
 20
60.4583652145
 30
0.0
 11
-38.4504426915
 21
34.0429
 31
0.0
  0
LINE
  5
31B
330
1F
100
AcDbEntity
  8
0
  6
Continuous
 62
     7
370
    25
100
AcDbLine
 10
-24.254
 20
60.4583652145
 30
0.0
 11
-38.4504426915
 21
60.4583652145
 31
0.0
  0
LINE
  5
31C
330
1F
100
AcDbEntity
  8
0
  6
Continuous
 62
     7
370
    25
100
AcDbLine
 10
-24.254
 20
57.0295652145
 30
0.0
 11
-24.254
 21
60.4583652145
 31
0.0
  0
LINE
  5
31D
330
1F
100
AcDbEntity
  8
0
  6
Continuous
 62
     7
370
    25
100
AcDbLine
 10
-15.746
 20
57.0295652145
 30
0.0
 11
-24.254
 21
57.0295652145
 31
0.0
  0
LINE
  5
31E
330
1F
100
AcDbEntity
  8
0
  6
Continuous
 62
     7
370
    25
100
AcDbLine
 10
-15.746
 20
60.4583652145
 30
0.0
 11
-15.746
 21
57.0295652145
 31
0.0
  0
LINE
  5
31F
330
1F
100
AcDbEntity
  8
0
  6
Continuous
 62
     7
370
    25
100
AcDbLine
 10
15.746
 20
60.4583652145
 30
0.0
 11
-15.746
 21
60.4583652145
 31
0.0
  0
LINE
  5
320
330
1F
100
AcDbEntity
  8
0
  6
Continuous
 62
     7
370
    25
100
AcDbLine
 10
15.746
 20
57.0295652145
 30
0.0
 11
15.746
 21
60.4583652145
 31
0.0
  0
LINE
  5
321
330
1F
100
AcDbEntity
  8
0
  6
Continuous
 62
     7
370
    25
100
AcDbLine
 10
24.254
 20
57.0295652145
 30
0.0
 11
15.746
 21
57.0295652145
 31
0.0
  0
LINE
  5
322
330
1F
100
AcDbEntity
  8
0
  6
Continuous
 62
     7
370
    25
100
AcDbLine
 10
24.254
 20
60.4583652145
 30
0.0
 11
24.254
 21
57.0295652145
 31
0.0
  0
LINE
  5
323
330
1F
100
AcDbEntity
  8
0
  6
Continuous
 62
     7
370
    25
100
AcDbLine
 10
38.4683532835
 20
60.4583652145
 30
0.0
 11
24.254
 21
60.4583652145
 31
0.0
  0
LINE
  5
324
330
1F
100
AcDbEntity
  8
0
  6
Continuous
 62
     7
370
    25
100
AcDbLine
 10
38.4683532835
 20
34.0429
 30
0.0
 11
38.4683532835
 21
60.4583652145
 31
0.0
  0
LINE
  5
325
330
1F
100
AcDbEntity
  8
0
  6
Continuous
 62
     7
370
    25
100
AcDbLine
 10
39.2684532835
 20
36.875
 30
0.0
 11
39.2684532835
 21
34.0429
 31
0.0
  0
LINE
  5
326
330
1F
100
AcDbEntity
  8
0
  6
Continuous
 62
     7
370
    25
100
AcDbLine
 10
40.5566106747
 20
36.875
 30
0.0
 11
39.2684532835
 21
36.875
 31
0.0
  0
LINE
  5
327
330
1F
100
AcDbEntity
  8
0
  6
Continuous
 62
     7
370
    25
100
AcDbLine
 10
43.8452365235
 20
35.5482444198
 30
0.0
 11
41.4018471982
 21
36.6876155741
 31
0.0
  0
LINE
  5
328
330
1F
100
AcDbEntity
  8
0
  6
Continuous
 62
     7
370
    25
100
AcDbLine
 10
45.0
 20
11.4531535304
 30
0.0
 11
45.0
 21
33.7356288458
 31
0.0
  0
LINE
  5
329
330
1F
100
AcDbEntity
  8
0
  6
Continuous
 62
     7
370
    25
100
AcDbLine
 10
42.1679
 20
11.4531535304
 30
0.0
 11
45.0
 21
11.4531535304
 31
0.0
  0
LINE
  5
32A
330
1F
100
AcDbEntity
  8
0
  6
Continuous
 62
     7
370
    25
100
AcDbLine
 10
68.9833652145
 20
10.6530535304
 30
0.0
 11
42.1679
 21
10.6530535304
 31
0.0
  0
LINE
  5
32B
330
1F
100
AcDbEntity
  8
0
  6
Continuous
 62
     7
370
    25
100
AcDbLine
 10
68.9833652145
 20
-5.6675
 30
0.0
 11
68.9833652145
 21
10.6530535304
 31
0.0
  0
LINE
  5
32C
330
1F
100
AcDbEntity
  8
0
  6
Continuous
 62
     7
370
    25
100
AcDbLine
 10
65.1545652145
 20
-5.6675
 30
0.0
 11
68.9833652145
 21
-5.6675
 31
0.0
  0
LINE
  5
32D
330
1F
100
AcDbEntity
  8
0
  6
Continuous
 62
     7
370
    25
100
AcDbLine
 10
65.1545652145
 20
-14.1755
 30
0.0
 11
65.1545652145
 21
-5.6675
 31
0.0
  0
LINE
  5
32E
330
1F
100
AcDbEntity
  8
0
  6
Continuous
 62
     7
370
    25
100
AcDbLine
 10
68.9833652145
 20
-14.1755
 30
0.0
 11
65.1545652145
 21
-14.1755
 31
0.0
  0
LINE
  5
32F
330
1F
100
AcDbEntity
  8
0
  6
Continuous
 62
     7
370
    25
100
AcDbLine
 10
68.9833652145
 20
-31.665
 30
0.0
 11
68.9833652145
 21
-14.1755
 31
0.0
  0
LINE
  5
330
330
1F
100
AcDbEntity
  8
0
  6
Continuous
 62
     7
370
    25
100
AcDbLine
 10
-63.7733652145
 20
-36.875
 30
0.0
 11
63.7733652145
 21
-36.875
 31
0.0
  0
LINE
  5
331
330
1F
100
AcDbEntity
  8
0
  6
Continuous
 62
     7
370
    25
100
AcDbLine
 10
-68.9833652145
 20
-14.1755
 30
0.0
 11
-68.9833652145
 21
-31.665
 31
0.0
  0
LINE
  5
332
330
1F
100
AcDbEntity
  8
0
  6
Continuous
 62
     7
370
    25
100
AcDbLine
 10
-65.1545652145
 20
-14.1755
 30
0.0
 11
-68.9833652145
 21
-14.1755
 31
0.0
  0
LINE
  5
333
330
1F
100
AcDbEntity
  8
0
  6
Continuous
 62
     7
370
    25
100
AcDbLine
 10
-65.1545652145
 20
-5.6675
 30
0.0
 11
-65.1545652145
 21
-14.1755
 31
0.0
  0
LINE
  5
334
330
1F
100
AcDbEntity
  8
0
  6
Continuous
 62
     7
370
    25
100
AcDbLine
 10
-68.9833652145
 20
-5.6675
 30
0.0
 11
-65.1545652145
 21
-5.6675
 31
0.0
  0
LINE
  5
335
330
1F
100
AcDbEntity
  8
0
  6
Continuous
 62
     7
370
    25
100
AcDbLine
 10
-68.9833652145
 20
10.6558946109
 30
0.0
 11
-68.9833652145
 21
-5.6675
 31
0.0
  0
LINE
  5
336
330
1F
100
AcDbEntity
  8
0
  6
Continuous
 62
     7
370
    25
100
AcDbLine
 10
-42.1679
 20
10.6558946109
 30
0.0
 11
-68.9833652145
 21
10.6558946109
 31
0.0
  0
LINE
  5
337
330
1F
100
AcDbEntity
  8
0
  6
Continuous
 62
     7
370
    25
100
AcDbLine
 10
-45.0
 20
11.4559946109
 30
0.0
 11
-42.1679
 21
11.4559946109
 31
0.0
  0
LINE
  5
338
330
1F
100
AcDbEntity
  8
0
  6
Continuous
 62
     7
370
    25
100
AcDbLine
 10
-45.0
 20
33.7356288458
 30
0.0
 11
-45.0
 21
11.4559946109
 31
0.0
  0
LINE
  5
339
330
1F
100
AcDbEntity
  8
0
  6
Continuous
 62
     7
370
    25
100
AcDbLine
 10
-41.4018471982
 20
36.6876155741
 30
0.0
 11
-43.8452365235
 21
35.5482444198
 31
0.0
  0
LINE
  5
33A
330
1F
100
AcDbEntity
  8
0
  6
Continuous
 62
     7
370
    25
100
AcDbLine
 10
-39.2505426915
 20
36.875
 30
0.0
 11
-40.5566106747
 21
36.875
 31
0.0
  0
LINE
  5
33B
330
1F
100
AcDbEntity
  8
0
  6
Continuous
 62
     7
370
    25
100
AcDbLine
 10
38.235
 20
9.7
 30
0.0
 11
30.235
 21
9.7
 31
0.0
  0
LINE
  5
33C
330
1F
100
AcDbEntity
  8
0
  6
Continuous
 62
     7
370
    25
100
AcDbLine
 10
30.235
 20
9.7
 30
0.0
 11
30.235
 21
-8.3
 31
0.0
  0
LINE
  5
33D
330
1F
100
AcDbEntity
  8
0
  6
Continuous
 62
     7
370
    25
100
AcDbLine
 10
30.235
 20
-8.3
 30
0.0
 11
38.235
 21
-8.3
 31
0.0
  0
LINE
  5
33E
330
1F
100
AcDbEntity
  8
0
  6
Continuous
 62
     7
370
    25
100
AcDbLine
 10
38.235
 20
-8.3
 30
0.0
 11
38.235
 21
9.7
 31
0.0
  0
LINE
  5
33F
330
1F
100
AcDbEntity
  8
0
  6
Continuous
 62
     7
370
    25
100
AcDbLine
 10
9.9058983849
 20
0.0
 30
0.0
 11
11.6379491924
 21
-3.0
 31
0.0
  0
LINE
  5
340
330
1F
100
AcDbEntity
  8
0
  6
Continuous
 62
     7
370
    25
100
AcDbLine
 10
11.6379491924
 20
-3.0
 30
0.0
 11
15.1020508076
 21
-3.0
 31
0.0
  0
LINE
  5
341
330
1F
100
AcDbEntity
  8
0
  6
Continuous
 62
     7
370
    25
100
AcDbLine
 10
15.1020508076
 20
-3.0
 30
0.0
 11
16.8341016151
 21
0.0
 31
0.0
  0
LINE
  5
342
330
1F
100
AcDbEntity
  8
0
  6
Continuous
 62
     7
370
    25
100
AcDbLine
 10
16.8341016151
 20
0.0
 30
0.0
 11
15.1020508076
 21
3.0
 31
0.0
  0
LINE
  5
343
330
1F
100
AcDbEntity
  8
0
  6
Continuous
 62
     7
370
    25
100
AcDbLine
 10
15.1020508076
 20
3.0
 30
0.0
 11
11.6379491924
 21
3.0
 31
0.0
  0
LINE
  5
344
330
1F
100
AcDbEntity
  8
0
  6
Continuous
 62
     7
370
    25
100
AcDbLine
 10
11.6379491924
 20
3.0
 30
0.0
 11
9.9058983849
 21
0.0
 31
0.0
  0
LINE
  5
345
330
1F
100
AcDbEntity
  8
0
  6
Continuous
 62
     7
370
    25
100
AcDbLine
 10
-29.9587277507
 20
18.155
 30
0.0
 11
-31.6907785583
 21
21.155
 31
0.0
  0
LINE
  5
346
330
1F
100
AcDbEntity
  8
0
  6
Continuous
 62
     7
370
    25
100
AcDbLine
 10
-31.6907785583
 20
21.155
 30
0.0
 11
-35.1548801734
 21
21.155
 31
0.0
  0
LINE
  5
347
330
1F
100
AcDbEntity
  8
0
  6
Continuous
 62
     7
370
    25
100
AcDbLine
 10
-35.1548801734
 20
21.155
 30
0.0
 11
-36.886930981
 21
18.155
 31
0.0
  0
LINE
  5
348
330
1F
100
AcDbEntity
  8
0
  6
Continuous
 62
     7
370
    25
100
AcDbLine
 10
-36.886930981
 20
18.155
 30
0.0
 11
-35.1548801734
 21
15.155
 31
0.0
  0
LINE
  5
349
330
1F
100
AcDbEntity
  8
0
  6
Continuous
 62
     7
370
    25
100
AcDbLine
 10
-35.1548801734
 20
15.155
 30
0.0
 11
-31.6907785583
 21
15.155
 31
0.0
  0
LINE
  5
34A
330
1F
100
AcDbEntity
  8
0
  6
Continuous
 62
     7
370
    25
100
AcDbLine
 10
-31.6907785583
 20
15.155
 30
0.0
 11
-29.9587277507
 21
18.155
 31
0.0
  0
LINE
  5
34B
330
1F
100
AcDbEntity
  8
0
  6
Continuous
 62
     7
370
    25
100
AcDbLine
 10
-30.2041016151
 20
21.78
 30
0.0
 11
-28.4720508076
 21
18.78
 31
0.0
  0
LINE
  5
34C
330
1F
100
AcDbEntity
  8
0
  6
Continuous
 62
     7
370
    25
100
AcDbLine
 10
-28.4720508076
 20
18.78
 30
0.0
 11
-25.0079491924
 21
18.78
 31
0.0
  0
LINE
  5
34D
330
1F
100
AcDbEntity
  8
0
  6
Continuous
 62
     7
370
    25
100
AcDbLine
 10
-25.0079491924
 20
18.78
 30
0.0
 11
-23.2758983849
 21
21.78
 31
0.0
  0
LINE
  5
34E
330
1F
100
AcDbEntity
  8
0
  6
Continuous
 62
     7
370
    25
100
AcDbLine
 10
-23.2758983849
 20
21.78
 30
0.0
 11
-25.0079491924
 21
24.78
 31
0.0
  0
LINE
  5
34F
330
1F
100
AcDbEntity
  8
0
  6
Continuous
 62
     7
370
    25
100
AcDbLine
 10
-25.0079491924
 20
24.78
 30
0.0
 11
-28.4720508076
 21
24.78
 31
0.0
  0
LINE
  5
350
330
1F
100
AcDbEntity
  8
0
  6
Continuous
 62
     7
370
    25
100
AcDbLine
 10
-28.4720508076
 20
24.78
 30
0.0
 11
-30.2041016151
 21
21.78
 31
0.0
  0
LINE
  5
351
330
1F
100
AcDbEntity
  8
0
  6
Continuous
 62
     7
370
    25
100
AcDbLine
 10
-29.9587277507
 20
-18.0134178867
 30
0.0
 11
-31.6907785583
 21
-15.0134178867
 31
0.0
  0
LINE
  5
352
330
1F
100
AcDbEntity
  8
0
  6
Continuous
 62
     7
370
    25
100
AcDbLine
 10
-31.6907785583
 20
-15.0134178867
 30
0.0
 11
-35.1548801734
 21
-15.0134178867
 31
0.0
  0
LINE
  5
353
330
1F
100
AcDbEntity
  8
0
  6
Continuous
 62
     7
370
    25
100
AcDbLine
 10
-35.1548801734
 20
-15.0134178867
 30
0.0
 11
-36.886930981
 21
-18.0134178867
 31
0.0
  0
LINE
  5
354
330
1F
100
AcDbEntity
  8
0
  6
Continuous
 62
     7
370
    25
100
AcDbLine
 10
-36.886930981
 20
-18.0134178867
 30
0.0
 11
-35.1548801734
 21
-21.0134178867
 31
0.0
  0
LINE
  5
355
330
1F
100
AcDbEntity
  8
0
  6
Continuous
 62
     7
370
    25
100
AcDbLine
 10
-35.1548801734
 20
-21.0134178867
 30
0.0
 11
-31.6907785583
 21
-21.0134178867
 31
0.0
  0
LINE
  5
356
330
1F
100
AcDbEntity
  8
0
  6
Continuous
 62
     7
370
    25
100
AcDbLine
 10
-31.6907785583
 20
-21.0134178867
 30
0.0
 11
-29.9587277507
 21
-18.0134178867
 31
0.0
  0
LINE
  5
357
330
1F
100
AcDbEntity
  8
0
  6
Continuous
 62
     7
370
    25
100
AcDbLine
 10
-30.2041016151
 20
-14.3884178867
 30
0.0
 11
-28.4720508076
 21
-17.3884178867
 31
0.0
  0
LINE
  5
358
330
1F
100
AcDbEntity
  8
0
  6
Continuous
 62
     7
370
    25
100
AcDbLine
 10
-28.4720508076
 20
-17.3884178867
 30
0.0
 11
-25.0079491924
 21
-17.3884178867
 31
0.0
  0
LINE
  5
359
330
1F
100
AcDbEntity
  8
0
  6
Continuous
 62
     7
370
    25
100
AcDbLine
 10
-25.0079491924
 20
-17.3884178867
 30
0.0
 11
-23.2758983849
 21
-14.3884178867
 31
0.0
  0
LINE
  5
35A
330
1F
100
AcDbEntity
  8
0
  6
Continuous
 62
     7
370
    25
100
AcDbLine
 10
-23.2758983849
 20
-14.3884178867
 30
0.0
 11
-25.0079491924
 21
-11.3884178867
 31
0.0
  0
LINE
  5
35B
330
1F
100
AcDbEntity
  8
0
  6
Continuous
 62
     7
370
    25
100
AcDbLine
 10
-25.0079491924
 20
-11.3884178867
 30
0.0
 11
-28.4720508076
 21
-11.3884178867
 31
0.0
  0
LINE
  5
35C
330
1F
100
AcDbEntity
  8
0
  6
Continuous
 62
     7
370
    25
100
AcDbLine
 10
-28.4720508076
 20
-11.3884178867
 30
0.0
 11
-30.2041016151
 21
-14.3884178867
 31
0.0
  0
LINE
  5
35D
330
1F
100
AcDbEntity
  8
0
  6
Continuous
 62
     7
370
    25
100
AcDbLine
 10
-30.2041016151
 20
-21.5826268301
 30
0.0
 11
-28.4720508076
 21
-24.5826268301
 31
0.0
  0
LINE
  5
35E
330
1F
100
AcDbEntity
  8
0
  6
Continuous
 62
     7
370
    25
100
AcDbLine
 10
-28.4720508076
 20
-24.5826268301
 30
0.0
 11
-25.0079491924
 21
-24.5826268301
 31
0.0
  0
LINE
  5
35F
330
1F
100
AcDbEntity
  8
0
  6
Continuous
 62
     7
370
    25
100
AcDbLine
 10
-25.0079491924
 20
-24.5826268301
 30
0.0
 11
-23.2758983849
 21
-21.5826268301
 31
0.0
  0
LINE
  5
360
330
1F
100
AcDbEntity
  8
0
  6
Continuous
 62
     7
370
    25
100
AcDbLine
 10
-23.2758983849
 20
-21.5826268301
 30
0.0
 11
-25.0079491924
 21
-18.5826268301
 31
0.0
  0
LINE
  5
361
330
1F
100
AcDbEntity
  8
0
  6
Continuous
 62
     7
370
    25
100
AcDbLine
 10
-25.0079491924
 20
-18.5826268301
 30
0.0
 11
-28.4720508076
 21
-18.5826268301
 31
0.0
  0
LINE
  5
362
330
1F
100
AcDbEntity
  8
0
  6
Continuous
 62
     7
370
    25
100
AcDbLine
 10
-28.4720508076
 20
-18.5826268301
 30
0.0
 11
-30.2041016151
 21
-21.5826268301
 31
0.0
  0
LINE
  5
363
330
1F
100
AcDbEntity
  8
0
  6
Continuous
 62
     7
370
    25
100
AcDbLine
 10
-30.2041016151
 20
-28.7768357734
 30
0.0
 11
-28.4720508076
 21
-31.7768357734
 31
0.0
  0
LINE
  5
364
330
1F
100
AcDbEntity
  8
0
  6
Continuous
 62
     7
370
    25
100
AcDbLine
 10
-28.4720508076
 20
-31.7768357734
 30
0.0
 11
-25.0079491924
 21
-31.7768357734
 31
0.0
  0
LINE
  5
365
330
1F
100
AcDbEntity
  8
0
  6
Continuous
 62
     7
370
    25
100
AcDbLine
 10
-25.0079491924
 20
-31.7768357734
 30
0.0
 11
-23.2758983849
 21
-28.7768357734
 31
0.0
  0
LINE
  5
366
330
1F
100
AcDbEntity
  8
0
  6
Continuous
 62
     7
370
    25
100
AcDbLine
 10
-23.2758983849
 20
-28.7768357734
 30
0.0
 11
-25.0079491924
 21
-25.7768357734
 31
0.0
  0
LINE
  5
367
330
1F
100
AcDbEntity
  8
0
  6
Continuous
 62
     7
370
    25
100
AcDbLine
 10
-25.0079491924
 20
-25.7768357734
 30
0.0
 11
-28.4720508076
 21
-25.7768357734
 31
0.0
  0
LINE
  5
368
330
1F
100
AcDbEntity
  8
0
  6
Continuous
 62
     7
370
    25
100
AcDbLine
 10
-28.4720508076
 20
-25.7768357734
 30
0.0
 11
-30.2041016151
 21
-28.7768357734
 31
0.0
  0
LINE
  5
369
330
1F
100
AcDbEntity
  8
0
  6
Continuous
 62
     7
370
    25
100
AcDbLine
 10
-29.9587277507
 20
25.415
 30
0.0
 11
-31.6907785583
 21
28.415
 31
0.0
  0
LINE
  5
36A
330
1F
100
AcDbEntity
  8
0
  6
Continuous
 62
     7
370
    25
100
AcDbLine
 10
-31.6907785583
 20
28.415
 30
0.0
 11
-35.1548801734
 21
28.415
 31
0.0
  0
LINE
  5
36B
330
1F
100
AcDbEntity
  8
0
  6
Continuous
 62
     7
370
    25
100
AcDbLine
 10
-35.1548801734
 20
28.415
 30
0.0
 11
-36.886930981
 21
25.415
 31
0.0
  0
LINE
  5
36C
330
1F
100
AcDbEntity
  8
0
  6
Continuous
 62
     7
370
    25
100
AcDbLine
 10
-36.886930981
 20
25.415
 30
0.0
 11
-35.1548801734
 21
22.415
 31
0.0
  0
LINE
  5
36D
330
1F
100
AcDbEntity
  8
0
  6
Continuous
 62
     7
370
    25
100
AcDbLine
 10
-35.1548801734
 20
22.415
 30
0.0
 11
-31.6907785583
 21
22.415
 31
0.0
  0
LINE
  5
36E
330
1F
100
AcDbEntity
  8
0
  6
Continuous
 62
     7
370
    25
100
AcDbLine
 10
-31.6907785583
 20
22.415
 30
0.0
 11
-29.9587277507
 21
25.415
 31
0.0
  0
LINE
  5
36F
330
1F
100
AcDbEntity
  8
0
  6
Continuous
 62
     7
370
    25
100
AcDbLine
 10
23.5212722493
 20
18.155
 30
0.0
 11
21.7892214417
 21
21.155
 31
0.0
  0
LINE
  5
370
330
1F
100
AcDbEntity
  8
0
  6
Continuous
 62
     7
370
    25
100
AcDbLine
 10
21.7892214417
 20
21.155
 30
0.0
 11
18.3251198266
 21
21.155
 31
0.0
  0
LINE
  5
371
330
1F
100
AcDbEntity
  8
0
  6
Continuous
 62
     7
370
    25
100
AcDbLine
 10
18.3251198266
 20
21.155
 30
0.0
 11
16.593069019
 21
18.155
 31
0.0
  0
LINE
  5
372
330
1F
100
AcDbEntity
  8
0
  6
Continuous
 62
     7
370
    25
100
AcDbLine
 10
16.593069019
 20
18.155
 30
0.0
 11
18.3251198266
 21
15.155
 31
0.0
  0
LINE
  5
373
330
1F
100
AcDbEntity
  8
0
  6
Continuous
 62
     7
370
    25
100
AcDbLine
 10
18.3251198266
 20
15.155
 30
0.0
 11
21.7892214417
 21
15.155
 31
0.0
  0
LINE
  5
374
330
1F
100
AcDbEntity
  8
0
  6
Continuous
 62
     7
370
    25
100
AcDbLine
 10
21.7892214417
 20
15.155
 30
0.0
 11
23.5212722493
 21
18.155
 31
0.0
  0
LINE
  5
375
330
1F
100
AcDbEntity
  8
0
  6
Continuous
 62
     7
370
    25
100
AcDbLine
 10
23.5212722493
 20
-10.8192089434
 30
0.0
 11
21.7892214417
 21
-7.8192089434
 31
0.0
  0
LINE
  5
376
330
1F
100
AcDbEntity
  8
0
  6
Continuous
 62
     7
370
    25
100
AcDbLine
 10
21.7892214417
 20
-7.8192089434
 30
0.0
 11
18.3251198266
 21
-7.8192089434
 31
0.0
  0
LINE
  5
377
330
1F
100
AcDbEntity
  8
0
  6
Continuous
 62
     7
370
    25
100
AcDbLine
 10
18.3251198266
 20
-7.8192089434
 30
0.0
 11
16.593069019
 21
-10.8192089434
 31
0.0
  0
LINE
  5
378
330
1F
100
AcDbEntity
  8
0
  6
Continuous
 62
     7
370
    25
100
AcDbLine
 10
16.593069019
 20
-10.8192089434
 30
0.0
 11
18.3251198266
 21
-13.8192089434
 31
0.0
  0
LINE
  5
379
330
1F
100
AcDbEntity
  8
0
  6
Continuous
 62
     7
370
    25
100
AcDbLine
 10
18.3251198266
 20
-13.8192089434
 30
0.0
 11
21.7892214417
 21
-13.8192089434
 31
0.0
  0
LINE
  5
37A
330
1F
100
AcDbEntity
  8
0
  6
Continuous
 62
     7
370
    25
100
AcDbLine
 10
21.7892214417
 20
-13.8192089434
 30
0.0
 11
23.5212722493
 21
-10.8192089434
 31
0.0
  0
LINE
  5
37B
330
1F
100
AcDbEntity
  8
0
  6
Continuous
 62
     7
370
    25
100
AcDbLine
 10
9.9058983849
 20
-21.5826268301
 30
0.0
 11
11.6379491924
 21
-24.5826268301
 31
0.0
  0
LINE
  5
37C
330
1F
100
AcDbEntity
  8
0
  6
Continuous
 62
     7
370
    25
100
AcDbLine
 10
11.6379491924
 20
-24.5826268301
 30
0.0
 11
15.1020508076
 21
-24.5826268301
 31
0.0
  0
LINE
  5
37D
330
1F
100
AcDbEntity
  8
0
  6
Continuous
 62
     7
370
    25
100
AcDbLine
 10
15.1020508076
 20
-24.5826268301
 30
0.0
 11
16.8341016151
 21
-21.5826268301
 31
0.0
  0
LINE
  5
37E
330
1F
100
AcDbEntity
  8
0
  6
Continuous
 62
     7
370
    25
100
AcDbLine
 10
16.8341016151
 20
-21.5826268301
 30
0.0
 11
15.1020508076
 21
-18.5826268301
 31
0.0
  0
LINE
  5
37F
330
1F
100
AcDbEntity
  8
0
  6
Continuous
 62
     7
370
    25
100
AcDbLine
 10
15.1020508076
 20
-18.5826268301
 30
0.0
 11
11.6379491924
 21
-18.5826268301
 31
0.0
  0
LINE
  5
380
330
1F
100
AcDbEntity
  8
0
  6
Continuous
 62
     7
370
    25
100
AcDbLine
 10
11.6379491924
 20
-18.5826268301
 30
0.0
 11
9.9058983849
 21
-21.5826268301
 31
0.0
  0
LINE
  5
381
330
1F
100
AcDbEntity
  8
0
  6
Continuous
 62
     7
370
    25
100
AcDbLine
 10
23.5212722493
 20
-18.0134178867
 30
0.0
 11
21.7892214417
 21
-15.0134178867
 31
0.0
  0
LINE
  5
382
330
1F
100
AcDbEntity
  8
0
  6
Continuous
 62
     7
370
    25
100
AcDbLine
 10
21.7892214417
 20
-15.0134178867
 30
0.0
 11
18.3251198266
 21
-15.0134178867
 31
0.0
  0
LINE
  5
383
330
1F
100
AcDbEntity
  8
0
  6
Continuous
 62
     7
370
    25
100
AcDbLine
 10
18.3251198266
 20
-15.0134178867
 30
0.0
 11
16.593069019
 21
-18.0134178867
 31
0.0
  0
LINE
  5
384
330
1F
100
AcDbEntity
  8
0
  6
Continuous
 62
     7
370
    25
100
AcDbLine
 10
16.593069019
 20
-18.0134178867
 30
0.0
 11
18.3251198266
 21
-21.0134178867
 31
0.0
  0
LINE
  5
385
330
1F
100
AcDbEntity
  8
0
  6
Continuous
 62
     7
370
    25
100
AcDbLine
 10
18.3251198266
 20
-21.0134178867
 30
0.0
 11
21.7892214417
 21
-21.0134178867
 31
0.0
  0
LINE
  5
386
330
1F
100
AcDbEntity
  8
0
  6
Continuous
 62
     7
370
    25
100
AcDbLine
 10
21.7892214417
 20
-21.0134178867
 30
0.0
 11
23.5212722493
 21
-18.0134178867
 31
0.0
  0
LINE
  5
387
330
1F
100
AcDbEntity
  8
0
  6
Continuous
 62
     7
370
    25
100
AcDbLine
 10
23.2758983849
 20
-21.5826268301
 30
0.0
 11
25.0079491924
 21
-24.5826268301
 31
0.0
  0
LINE
  5
388
330
1F
100
AcDbEntity
  8
0
  6
Continuous
 62
     7
370
    25
100
AcDbLine
 10
25.0079491924
 20
-24.5826268301
 30
0.0
 11
28.4720508076
 21
-24.5826268301
 31
0.0
  0
LINE
  5
389
330
1F
100
AcDbEntity
  8
0
  6
Continuous
 62
     7
370
    25
100
AcDbLine
 10
28.4720508076
 20
-24.5826268301
 30
0.0
 11
30.2041016151
 21
-21.5826268301
 31
0.0
  0
LINE
  5
38A
330
1F
100
AcDbEntity
  8
0
  6
Continuous
 62
     7
370
    25
100
AcDbLine
 10
30.2041016151
 20
-21.5826268301
 30
0.0
 11
28.4720508076
 21
-18.5826268301
 31
0.0
  0
LINE
  5
38B
330
1F
100
AcDbEntity
  8
0
  6
Continuous
 62
     7
370
    25
100
AcDbLine
 10
28.4720508076
 20
-18.5826268301
 30
0.0
 11
25.0079491924
 21
-18.5826268301
 31
0.0
  0
LINE
  5
38C
330
1F
100
AcDbEntity
  8
0
  6
Continuous
 62
     7
370
    25
100
AcDbLine
 10
25.0079491924
 20
-18.5826268301
 30
0.0
 11
23.2758983849
 21
-21.5826268301
 31
0.0
  0
LINE
  5
38D
330
1F
100
AcDbEntity
  8
0
  6
Continuous
 62
     7
370
    25
100
AcDbLine
 10
23.2758983849
 20
-14.3884178867
 30
0.0
 11
25.0079491924
 21
-17.3884178867
 31
0.0
  0
LINE
  5
38E
330
1F
100
AcDbEntity
  8
0
  6
Continuous
 62
     7
370
    25
100
AcDbLine
 10
25.0079491924
 20
-17.3884178867
 30
0.0
 11
28.4720508076
 21
-17.3884178867
 31
0.0
  0
LINE
  5
38F
330
1F
100
AcDbEntity
  8
0
  6
Continuous
 62
     7
370
    25
100
AcDbLine
 10
28.4720508076
 20
-17.3884178867
 30
0.0
 11
30.2041016151
 21
-14.3884178867
 31
0.0
  0
LINE
  5
390
330
1F
100
AcDbEntity
  8
0
  6
Continuous
 62
     7
370
    25
100
AcDbLine
 10
30.2041016151
 20
-14.3884178867
 30
0.0
 11
28.4720508076
 21
-11.3884178867
 31
0.0
  0
LINE
  5
391
330
1F
100
AcDbEntity
  8
0
  6
Continuous
 62
     7
370
    25
100
AcDbLine
 10
28.4720508076
 20
-11.3884178867
 30
0.0
 11
25.0079491924
 21
-11.3884178867
 31
0.0
  0
LINE
  5
392
330
1F
100
AcDbEntity
  8
0
  6
Continuous
 62
     7
370
    25
100
AcDbLine
 10
25.0079491924
 20
-11.3884178867
 30
0.0
 11
23.2758983849
 21
-14.3884178867
 31
0.0
  0
LINE
  5
393
330
1F
100
AcDbEntity
  8
0
  6
Continuous
 62
     7
370
    25
100
AcDbLine
 10
23.5212722493
 20
-25.2076268301
 30
0.0
 11
21.7892214417
 21
-22.2076268301
 31
0.0
  0
LINE
  5
394
330
1F
100
AcDbEntity
  8
0
  6
Continuous
 62
     7
370
    25
100
AcDbLine
 10
21.7892214417
 20
-22.2076268301
 30
0.0
 11
18.3251198266
 21
-22.2076268301
 31
0.0
  0
LINE
  5
395
330
1F
100
AcDbEntity
  8
0
  6
Continuous
 62
     7
370
    25
100
AcDbLine
 10
18.3251198266
 20
-22.2076268301
 30
0.0
 11
16.593069019
 21
-25.2076268301
 31
0.0
  0
LINE
  5
396
330
1F
100
AcDbEntity
  8
0
  6
Continuous
 62
     7
370
    25
100
AcDbLine
 10
16.593069019
 20
-25.2076268301
 30
0.0
 11
18.3251198266
 21
-28.2076268301
 31
0.0
  0
LINE
  5
397
330
1F
100
AcDbEntity
  8
0
  6
Continuous
 62
     7
370
    25
100
AcDbLine
 10
18.3251198266
 20
-28.2076268301
 30
0.0
 11
21.7892214417
 21
-28.2076268301
 31
0.0
  0
LINE
  5
398
330
1F
100
AcDbEntity
  8
0
  6
Continuous
 62
     7
370
    25
100
AcDbLine
 10
21.7892214417
 20
-28.2076268301
 30
0.0
 11
23.5212722493
 21
-25.2076268301
 31
0.0
  0
LINE
  5
399
330
1F
100
AcDbEntity
  8
0
  6
Continuous
 62
     7
370
    25
100
AcDbLine
 10
9.9058983849
 20
-28.7768357734
 30
0.0
 11
11.6379491924
 21
-31.7768357734
 31
0.0
  0
LINE
  5
39A
330
1F
100
AcDbEntity
  8
0
  6
Continuous
 62
     7
370
    25
100
AcDbLine
 10
11.6379491924
 20
-31.7768357734
 30
0.0
 11
15.1020508076
 21
-31.7768357734
 31
0.0
  0
LINE
  5
39B
330
1F
100
AcDbEntity
  8
0
  6
Continuous
 62
     7
370
    25
100
AcDbLine
 10
15.1020508076
 20
-31.7768357734
 30
0.0
 11
16.8341016151
 21
-28.7768357734
 31
0.0
  0
LINE
  5
39C
330
1F
100
AcDbEntity
  8
0
  6
Continuous
 62
     7
370
    25
100
AcDbLine
 10
16.8341016151
 20
-28.7768357734
 30
0.0
 11
15.1020508076
 21
-25.7768357734
 31
0.0
  0
LINE
  5
39D
330
1F
100
AcDbEntity
  8
0
  6
Continuous
 62
     7
370
    25
100
AcDbLine
 10
15.1020508076
 20
-25.7768357734
 30
0.0
 11
11.6379491924
 21
-25.7768357734
 31
0.0
  0
LINE
  5
39E
330
1F
100
AcDbEntity
  8
0
  6
Continuous
 62
     7
370
    25
100
AcDbLine
 10
11.6379491924
 20
-25.7768357734
 30
0.0
 11
9.9058983849
 21
-28.7768357734
 31
0.0
  0
LINE
  5
39F
330
1F
100
AcDbEntity
  8
0
  6
Continuous
 62
     7
370
    25
100
AcDbLine
 10
23.5212722493
 20
-3.625
 30
0.0
 11
21.7892214417
 21
-0.625
 31
0.0
  0
LINE
  5
3A0
330
1F
100
AcDbEntity
  8
0
  6
Continuous
 62
     7
370
    25
100
AcDbLine
 10
21.7892214417
 20
-0.625
 30
0.0
 11
18.3251198266
 21
-0.625
 31
0.0
  0
LINE
  5
3A1
330
1F
100
AcDbEntity
  8
0
  6
Continuous
 62
     7
370
    25
100
AcDbLine
 10
18.3251198266
 20
-0.625
 30
0.0
 11
16.593069019
 21
-3.625
 31
0.0
  0
LINE
  5
3A2
330
1F
100
AcDbEntity
  8
0
  6
Continuous
 62
     7
370
    25
100
AcDbLine
 10
16.593069019
 20
-3.625
 30
0.0
 11
18.3251198266
 21
-6.625
 31
0.0
  0
LINE
  5
3A3
330
1F
100
AcDbEntity
  8
0
  6
Continuous
 62
     7
370
    25
100
AcDbLine
 10
18.3251198266
 20
-6.625
 30
0.0
 11
21.7892214417
 21
-6.625
 31
0.0
  0
LINE
  5
3A4
330
1F
100
AcDbEntity
  8
0
  6
Continuous
 62
     7
370
    25
100
AcDbLine
 10
21.7892214417
 20
-6.625
 30
0.0
 11
23.5212722493
 21
-3.625
 31
0.0
  0
LINE
  5
3A5
330
1F
100
AcDbEntity
  8
0
  6
Continuous
 62
     7
370
    25
100
AcDbLine
 10
9.9058983849
 20
-7.1942089434
 30
0.0
 11
11.6379491924
 21
-10.1942089434
 31
0.0
  0
LINE
  5
3A6
330
1F
100
AcDbEntity
  8
0
  6
Continuous
 62
     7
370
    25
100
AcDbLine
 10
11.6379491924
 20
-10.1942089434
 30
0.0
 11
15.1020508076
 21
-10.1942089434
 31
0.0
  0
LINE
  5
3A7
330
1F
100
AcDbEntity
  8
0
  6
Continuous
 62
     7
370
    25
100
AcDbLine
 10
15.1020508076
 20
-10.1942089434
 30
0.0
 11
16.8341016151
 21
-7.1942089434
 31
0.0
  0
LINE
  5
3A8
330
1F
100
AcDbEntity
  8
0
  6
Continuous
 62
     7
370
    25
100
AcDbLine
 10
16.8341016151
 20
-7.1942089434
 30
0.0
 11
15.1020508076
 21
-4.1942089434
 31
0.0
  0
LINE
  5
3A9
330
1F
100
AcDbEntity
  8
0
  6
Continuous
 62
     7
370
    25
100
AcDbLine
 10
15.1020508076
 20
-4.1942089434
 30
0.0
 11
11.6379491924
 21
-4.1942089434
 31
0.0
  0
LINE
  5
3AA
330
1F
100
AcDbEntity
  8
0
  6
Continuous
 62
     7
370
    25
100
AcDbLine
 10
11.6379491924
 20
-4.1942089434
 30
0.0
 11
9.9058983849
 21
-7.1942089434
 31
0.0
  0
LINE
  5
3AB
330
1F
100
AcDbEntity
  8
0
  6
Continuous
 62
     7
370
    25
100
AcDbLine
 10
23.5212722493
 20
3.635
 30
0.0
 11
21.7892214417
 21
6.635
 31
0.0
  0
LINE
  5
3AC
330
1F
100
AcDbEntity
  8
0
  6
Continuous
 62
     7
370
    25
100
AcDbLine
 10
21.7892214417
 20
6.635
 30
0.0
 11
18.3251198266
 21
6.635
 31
0.0
  0
LINE
  5
3AD
330
1F
100
AcDbEntity
  8
0
  6
Continuous
 62
     7
370
    25
100
AcDbLine
 10
18.3251198266
 20
6.635
 30
0.0
 11
16.593069019
 21
3.635
 31
0.0
  0
LINE
  5
3AE
330
1F
100
AcDbEntity
  8
0
  6
Continuous
 62
     7
370
    25
100
AcDbLine
 10
16.593069019
 20
3.635
 30
0.0
 11
18.3251198266
 21
0.635
 31
0.0
  0
LINE
  5
3AF
330
1F
100
AcDbEntity
  8
0
  6
Continuous
 62
     7
370
    25
100
AcDbLine
 10
18.3251198266
 20
0.635
 30
0.0
 11
21.7892214417
 21
0.635
 31
0.0
  0
LINE
  5
3B0
330
1F
100
AcDbEntity
  8
0
  6
Continuous
 62
     7
370
    25
100
AcDbLine
 10
21.7892214417
 20
0.635
 30
0.0
 11
23.5212722493
 21
3.635
 31
0.0
  0
LINE
  5
3B1
330
1F
100
AcDbEntity
  8
0
  6
Continuous
 62
     7
370
    25
100
AcDbLine
 10
9.9058983849
 20
14.52
 30
0.0
 11
11.6379491924
 21
11.52
 31
0.0
  0
LINE
  5
3B2
330
1F
100
AcDbEntity
  8
0
  6
Continuous
 62
     7
370
    25
100
AcDbLine
 10
11.6379491924
 20
11.52
 30
0.0
 11
15.1020508076
 21
11.52
 31
0.0
  0
LINE
  5
3B3
330
1F
100
AcDbEntity
  8
0
  6
Continuous
 62
     7
370
    25
100
AcDbLine
 10
15.1020508076
 20
11.52
 30
0.0
 11
16.8341016151
 21
14.52
 31
0.0
  0
LINE
  5
3B4
330
1F
100
AcDbEntity
  8
0
  6
Continuous
 62
     7
370
    25
100
AcDbLine
 10
16.8341016151
 20
14.52
 30
0.0
 11
15.1020508076
 21
17.52
 31
0.0
  0
LINE
  5
3B5
330
1F
100
AcDbEntity
  8
0
  6
Continuous
 62
     7
370
    25
100
AcDbLine
 10
15.1020508076
 20
17.52
 30
0.0
 11
11.6379491924
 21
17.52
 31
0.0
  0
LINE
  5
3B6
330
1F
100
AcDbEntity
  8
0
  6
Continuous
 62
     7
370
    25
100
AcDbLine
 10
11.6379491924
 20
17.52
 30
0.0
 11
9.9058983849
 21
14.52
 31
0.0
  0
LINE
  5
3B7
330
1F
100
AcDbEntity
  8
0
  6
Continuous
 62
     7
370
    25
100
AcDbLine
 10
23.5212722493
 20
10.895
 30
0.0
 11
21.7892214417
 21
13.895
 31
0.0
  0
LINE
  5
3B8
330
1F
100
AcDbEntity
  8
0
  6
Continuous
 62
     7
370
    25
100
AcDbLine
 10
21.7892214417
 20
13.895
 30
0.0
 11
18.3251198266
 21
13.895
 31
0.0
  0
LINE
  5
3B9
330
1F
100
AcDbEntity
  8
0
  6
Continuous
 62
     7
370
    25
100
AcDbLine
 10
18.3251198266
 20
13.895
 30
0.0
 11
16.593069019
 21
10.895
 31
0.0
  0
LINE
  5
3BA
330
1F
100
AcDbEntity
  8
0
  6
Continuous
 62
     7
370
    25
100
AcDbLine
 10
16.593069019
 20
10.895
 30
0.0
 11
18.3251198266
 21
7.895
 31
0.0
  0
LINE
  5
3BB
330
1F
100
AcDbEntity
  8
0
  6
Continuous
 62
     7
370
    25
100
AcDbLine
 10
18.3251198266
 20
7.895
 30
0.0
 11
21.7892214417
 21
7.895
 31
0.0
  0
LINE
  5
3BC
330
1F
100
AcDbEntity
  8
0
  6
Continuous
 62
     7
370
    25
100
AcDbLine
 10
21.7892214417
 20
7.895
 30
0.0
 11
23.5212722493
 21
10.895
 31
0.0
  0
LINE
  5
3BD
330
1F
100
AcDbEntity
  8
0
  6
Continuous
 62
     7
370
    25
100
AcDbLine
 10
23.2758983849
 20
14.52
 30
0.0
 11
25.0079491924
 21
11.52
 31
0.0
  0
LINE
  5
3BE
330
1F
100
AcDbEntity
  8
0
  6
Continuous
 62
     7
370
    25
100
AcDbLine
 10
25.0079491924
 20
11.52
 30
0.0
 11
28.4720508076
 21
11.52
 31
0.0
  0
LINE
  5
3BF
330
1F
100
AcDbEntity
  8
0
  6
Continuous
 62
     7
370
    25
100
AcDbLine
 10
28.4720508076
 20
11.52
 30
0.0
 11
30.2041016151
 21
14.52
 31
0.0
  0
LINE
  5
3C0
330
1F
100
AcDbEntity
  8
0
  6
Continuous
 62
     7
370
    25
100
AcDbLine
 10
30.2041016151
 20
14.52
 30
0.0
 11
28.4720508076
 21
17.52
 31
0.0
  0
LINE
  5
3C1
330
1F
100
AcDbEntity
  8
0
  6
Continuous
 62
     7
370
    25
100
AcDbLine
 10
28.4720508076
 20
17.52
 30
0.0
 11
25.0079491924
 21
17.52
 31
0.0
  0
LINE
  5
3C2
330
1F
100
AcDbEntity
  8
0
  6
Continuous
 62
     7
370
    25
100
AcDbLine
 10
25.0079491924
 20
17.52
 30
0.0
 11
23.2758983849
 21
14.52
 31
0.0
  0
LINE
  5
3C3
330
1F
100
AcDbEntity
  8
0
  6
Continuous
 62
     7
370
    25
100
AcDbLine
 10
9.9058983849
 20
21.78
 30
0.0
 11
11.6379491924
 21
18.78
 31
0.0
  0
LINE
  5
3C4
330
1F
100
AcDbEntity
  8
0
  6
Continuous
 62
     7
370
    25
100
AcDbLine
 10
11.6379491924
 20
18.78
 30
0.0
 11
15.1020508076
 21
18.78
 31
0.0
  0
LINE
  5
3C5
330
1F
100
AcDbEntity
  8
0
  6
Continuous
 62
     7
370
    25
100
AcDbLine
 10
15.1020508076
 20
18.78
 30
0.0
 11
16.8341016151
 21
21.78
 31
0.0
  0
LINE
  5
3C6
330
1F
100
AcDbEntity
  8
0
  6
Continuous
 62
     7
370
    25
100
AcDbLine
 10
16.8341016151
 20
21.78
 30
0.0
 11
15.1020508076
 21
24.78
 31
0.0
  0
LINE
  5
3C7
330
1F
100
AcDbEntity
  8
0
  6
Continuous
 62
     7
370
    25
100
AcDbLine
 10
15.1020508076
 20
24.78
 30
0.0
 11
11.6379491924
 21
24.78
 31
0.0
  0
LINE
  5
3C8
330
1F
100
AcDbEntity
  8
0
  6
Continuous
 62
     7
370
    25
100
AcDbLine
 10
11.6379491924
 20
24.78
 30
0.0
 11
9.9058983849
 21
21.78
 31
0.0
  0
LINE
  5
3C9
330
1F
100
AcDbEntity
  8
0
  6
Continuous
 62
     7
370
    25
100
AcDbLine
 10
23.2758983849
 20
21.78
 30
0.0
 11
25.0079491924
 21
18.78
 31
0.0
  0
LINE
  5
3CA
330
1F
100
AcDbEntity
  8
0
  6
Continuous
 62
     7
370
    25
100
AcDbLine
 10
25.0079491924
 20
18.78
 30
0.0
 11
28.4720508076
 21
18.78
 31
0.0
  0
LINE
  5
3CB
330
1F
100
AcDbEntity
  8
0
  6
Continuous
 62
     7
370
    25
100
AcDbLine
 10
28.4720508076
 20
18.78
 30
0.0
 11
30.2041016151
 21
21.78
 31
0.0
  0
LINE
  5
3CC
330
1F
100
AcDbEntity
  8
0
  6
Continuous
 62
     7
370
    25
100
AcDbLine
 10
30.2041016151
 20
21.78
 30
0.0
 11
28.4720508076
 21
24.78
 31
0.0
  0
LINE
  5
3CD
330
1F
100
AcDbEntity
  8
0
  6
Continuous
 62
     7
370
    25
100
AcDbLine
 10
28.4720508076
 20
24.78
 30
0.0
 11
25.0079491924
 21
24.78
 31
0.0
  0
LINE
  5
3CE
330
1F
100
AcDbEntity
  8
0
  6
Continuous
 62
     7
370
    25
100
AcDbLine
 10
25.0079491924
 20
24.78
 30
0.0
 11
23.2758983849
 21
21.78
 31
0.0
  0
LINE
  5
3CF
330
1F
100
AcDbEntity
  8
0
  6
Continuous
 62
     7
370
    25
100
AcDbLine
 10
-30.2041016151
 20
-7.1942089434
 30
0.0
 11
-28.4720508076
 21
-10.1942089434
 31
0.0
  0
LINE
  5
3D0
330
1F
100
AcDbEntity
  8
0
  6
Continuous
 62
     7
370
    25
100
AcDbLine
 10
-28.4720508076
 20
-10.1942089434
 30
0.0
 11
-25.0079491924
 21
-10.1942089434
 31
0.0
  0
LINE
  5
3D1
330
1F
100
AcDbEntity
  8
0
  6
Continuous
 62
     7
370
    25
100
AcDbLine
 10
-25.0079491924
 20
-10.1942089434
 30
0.0
 11
-23.2758983849
 21
-7.1942089434
 31
0.0
  0
LINE
  5
3D2
330
1F
100
AcDbEntity
  8
0
  6
Continuous
 62
     7
370
    25
100
AcDbLine
 10
-23.2758983849
 20
-7.1942089434
 30
0.0
 11
-25.0079491924
 21
-4.1942089434
 31
0.0
  0
LINE
  5
3D3
330
1F
100
AcDbEntity
  8
0
  6
Continuous
 62
     7
370
    25
100
AcDbLine
 10
-25.0079491924
 20
-4.1942089434
 30
0.0
 11
-28.4720508076
 21
-4.1942089434
 31
0.0
  0
LINE
  5
3D4
330
1F
100
AcDbEntity
  8
0
  6
Continuous
 62
     7
370
    25
100
AcDbLine
 10
-28.4720508076
 20
-4.1942089434
 30
0.0
 11
-30.2041016151
 21
-7.1942089434
 31
0.0
  0
LINE
  5
3D5
330
1F
100
AcDbEntity
  8
0
  6
Continuous
 62
     7
370
    25
100
AcDbLine
 10
-29.9587277507
 20
-10.8192089434
 30
0.0
 11
-31.6907785583
 21
-7.8192089434
 31
0.0
  0
LINE
  5
3D6
330
1F
100
AcDbEntity
  8
0
  6
Continuous
 62
     7
370
    25
100
AcDbLine
 10
-31.6907785583
 20
-7.8192089434
 30
0.0
 11
-35.1548801734
 21
-7.8192089434
 31
0.0
  0
LINE
  5
3D7
330
1F
100
AcDbEntity
  8
0
  6
Continuous
 62
     7
370
    25
100
AcDbLine
 10
-35.1548801734
 20
-7.8192089434
 30
0.0
 11
-36.886930981
 21
-10.8192089434
 31
0.0
  0
LINE
  5
3D8
330
1F
100
AcDbEntity
  8
0
  6
Continuous
 62
     7
370
    25
100
AcDbLine
 10
-36.886930981
 20
-10.8192089434
 30
0.0
 11
-35.1548801734
 21
-13.8192089434
 31
0.0
  0
LINE
  5
3D9
330
1F
100
AcDbEntity
  8
0
  6
Continuous
 62
     7
370
    25
100
AcDbLine
 10
-35.1548801734
 20
-13.8192089434
 30
0.0
 11
-31.6907785583
 21
-13.8192089434
 31
0.0
  0
LINE
  5
3DA
330
1F
100
AcDbEntity
  8
0
  6
Continuous
 62
     7
370
    25
100
AcDbLine
 10
-31.6907785583
 20
-13.8192089434
 30
0.0
 11
-29.9587277507
 21
-10.8192089434
 31
0.0
  0
LINE
  5
3DB
330
1F
100
AcDbEntity
  8
0
  6
Continuous
 62
     7
370
    25
100
AcDbLine
 10
-30.2041016151
 20
0.0
 30
0.0
 11
-28.4720508076
 21
-3.0
 31
0.0
  0
LINE
  5
3DC
330
1F
100
AcDbEntity
  8
0
  6
Continuous
 62
     7
370
    25
100
AcDbLine
 10
-28.4720508076
 20
-3.0
 30
0.0
 11
-25.0079491924
 21
-3.0
 31
0.0
  0
LINE
  5
3DD
330
1F
100
AcDbEntity
  8
0
  6
Continuous
 62
     7
370
    25
100
AcDbLine
 10
-25.0079491924
 20
-3.0
 30
0.0
 11
-23.2758983849
 21
0.0
 31
0.0
  0
LINE
  5
3DE
330
1F
100
AcDbEntity
  8
0
  6
Continuous
 62
     7
370
    25
100
AcDbLine
 10
-23.2758983849
 20
0.0
 30
0.0
 11
-25.0079491924
 21
3.0
 31
0.0
  0
LINE
  5
3DF
330
1F
100
AcDbEntity
  8
0
  6
Continuous
 62
     7
370
    25
100
AcDbLine
 10
-25.0079491924
 20
3.0
 30
0.0
 11
-28.4720508076
 21
3.0
 31
0.0
  0
LINE
  5
3E0
330
1F
100
AcDbEntity
  8
0
  6
Continuous
 62
     7
370
    25
100
AcDbLine
 10
-28.4720508076
 20
3.0
 30
0.0
 11
-30.2041016151
 21
0.0
 31
0.0
  0
LINE
  5
3E1
330
1F
100
AcDbEntity
  8
0
  6
Continuous
 62
     7
370
    25
100
AcDbLine
 10
-29.9587277507
 20
-3.625
 30
0.0
 11
-31.6907785583
 21
-0.625
 31
0.0
  0
LINE
  5
3E2
330
1F
100
AcDbEntity
  8
0
  6
Continuous
 62
     7
370
    25
100
AcDbLine
 10
-31.6907785583
 20
-0.625
 30
0.0
 11
-35.1548801734
 21
-0.625
 31
0.0
  0
LINE
  5
3E3
330
1F
100
AcDbEntity
  8
0
  6
Continuous
 62
     7
370
    25
100
AcDbLine
 10
-35.1548801734
 20
-0.625
 30
0.0
 11
-36.886930981
 21
-3.625
 31
0.0
  0
LINE
  5
3E4
330
1F
100
AcDbEntity
  8
0
  6
Continuous
 62
     7
370
    25
100
AcDbLine
 10
-36.886930981
 20
-3.625
 30
0.0
 11
-35.1548801734
 21
-6.625
 31
0.0
  0
LINE
  5
3E5
330
1F
100
AcDbEntity
  8
0
  6
Continuous
 62
     7
370
    25
100
AcDbLine
 10
-35.1548801734
 20
-6.625
 30
0.0
 11
-31.6907785583
 21
-6.625
 31
0.0
  0
LINE
  5
3E6
330
1F
100
AcDbEntity
  8
0
  6
Continuous
 62
     7
370
    25
100
AcDbLine
 10
-31.6907785583
 20
-6.625
 30
0.0
 11
-29.9587277507
 21
-3.625
 31
0.0
  0
LINE
  5
3E7
330
1F
100
AcDbEntity
  8
0
  6
Continuous
 62
     7
370
    25
100
AcDbLine
 10
-30.2041016151
 20
14.52
 30
0.0
 11
-28.4720508076
 21
11.52
 31
0.0
  0
LINE
  5
3E8
330
1F
100
AcDbEntity
  8
0
  6
Continuous
 62
     7
370
    25
100
AcDbLine
 10
-28.4720508076
 20
11.52
 30
0.0
 11
-25.0079491924
 21
11.52
 31
0.0
  0
LINE
  5
3E9
330
1F
100
AcDbEntity
  8
0
  6
Continuous
 62
     7
370
    25
100
AcDbLine
 10
-25.0079491924
 20
11.52
 30
0.0
 11
-23.2758983849
 21
14.52
 31
0.0
  0
LINE
  5
3EA
330
1F
100
AcDbEntity
  8
0
  6
Continuous
 62
     7
370
    25
100
AcDbLine
 10
-23.2758983849
 20
14.52
 30
0.0
 11
-25.0079491924
 21
17.52
 31
0.0
  0
LINE
  5
3EB
330
1F
100
AcDbEntity
  8
0
  6
Continuous
 62
     7
370
    25
100
AcDbLine
 10
-25.0079491924
 20
17.52
 30
0.0
 11
-28.4720508076
 21
17.52
 31
0.0
  0
LINE
  5
3EC
330
1F
100
AcDbEntity
  8
0
  6
Continuous
 62
     7
370
    25
100
AcDbLine
 10
-28.4720508076
 20
17.52
 30
0.0
 11
-30.2041016151
 21
14.52
 31
0.0
  0
LINE
  5
3ED
330
1F
100
AcDbEntity
  8
0
  6
Continuous
 62
     7
370
    25
100
AcDbLine
 10
-29.9587277507
 20
10.895
 30
0.0
 11
-31.6907785583
 21
13.895
 31
0.0
  0
LINE
  5
3EE
330
1F
100
AcDbEntity
  8
0
  6
Continuous
 62
     7
370
    25
100
AcDbLine
 10
-31.6907785583
 20
13.895
 30
0.0
 11
-35.1548801734
 21
13.895
 31
0.0
  0
LINE
  5
3EF
330
1F
100
AcDbEntity
  8
0
  6
Continuous
 62
     7
370
    25
100
AcDbLine
 10
-35.1548801734
 20
13.895
 30
0.0
 11
-36.886930981
 21
10.895
 31
0.0
  0
LINE
  5
3F0
330
1F
100
AcDbEntity
  8
0
  6
Continuous
 62
     7
370
    25
100
AcDbLine
 10
-36.886930981
 20
10.895
 30
0.0
 11
-35.1548801734
 21
7.895
 31
0.0
  0
LINE
  5
3F1
330
1F
100
AcDbEntity
  8
0
  6
Continuous
 62
     7
370
    25
100
AcDbLine
 10
-35.1548801734
 20
7.895
 30
0.0
 11
-31.6907785583
 21
7.895
 31
0.0
  0
LINE
  5
3F2
330
1F
100
AcDbEntity
  8
0
  6
Continuous
 62
     7
370
    25
100
AcDbLine
 10
-31.6907785583
 20
7.895
 30
0.0
 11
-29.9587277507
 21
10.895
 31
0.0
  0
LINE
  5
3F3
330
1F
100
AcDbEntity
  8
0
  6
Continuous
 62
     7
370
    25
100
AcDbLine
 10
-30.2041016151
 20
7.26
 30
0.0
 11
-28.4720508076
 21
4.26
 31
0.0
  0
LINE
  5
3F4
330
1F
100
AcDbEntity
  8
0
  6
Continuous
 62
     7
370
    25
100
AcDbLine
 10
-28.4720508076
 20
4.26
 30
0.0
 11
-25.0079491924
 21
4.26
 31
0.0
  0
LINE
  5
3F5
330
1F
100
AcDbEntity
  8
0
  6
Continuous
 62
     7
370
    25
100
AcDbLine
 10
-25.0079491924
 20
4.26
 30
0.0
 11
-23.2758983849
 21
7.26
 31
0.0
  0
LINE
  5
3F6
330
1F
100
AcDbEntity
  8
0
  6
Continuous
 62
     7
370
    25
100
AcDbLine
 10
-23.2758983849
 20
7.26
 30
0.0
 11
-25.0079491924
 21
10.26
 31
0.0
  0
LINE
  5
3F7
330
1F
100
AcDbEntity
  8
0
  6
Continuous
 62
     7
370
    25
100
AcDbLine
 10
-25.0079491924
 20
10.26
 30
0.0
 11
-28.4720508076
 21
10.26
 31
0.0
  0
LINE
  5
3F8
330
1F
100
AcDbEntity
  8
0
  6
Continuous
 62
     7
370
    25
100
AcDbLine
 10
-28.4720508076
 20
10.26
 30
0.0
 11
-30.2041016151
 21
7.26
 31
0.0
  0
LINE
  5
3F9
330
1F
100
AcDbEntity
  8
0
  6
Continuous
 62
     7
370
    25
100
AcDbLine
 10
-29.9587277507
 20
3.635
 30
0.0
 11
-31.6907785583
 21
6.635
 31
0.0
  0
LINE
  5
3FA
330
1F
100
AcDbEntity
  8
0
  6
Continuous
 62
     7
370
    25
100
AcDbLine
 10
-31.6907785583
 20
6.635
 30
0.0
 11
-35.1548801734
 21
6.635
 31
0.0
  0
LINE
  5
3FB
330
1F
100
AcDbEntity
  8
0
  6
Continuous
 62
     7
370
    25
100
AcDbLine
 10
-35.1548801734
 20
6.635
 30
0.0
 11
-36.886930981
 21
3.635
 31
0.0
  0
LINE
  5
3FC
330
1F
100
AcDbEntity
  8
0
  6
Continuous
 62
     7
370
    25
100
AcDbLine
 10
-36.886930981
 20
3.635
 30
0.0
 11
-35.1548801734
 21
0.635
 31
0.0
  0
LINE
  5
3FD
330
1F
100
AcDbEntity
  8
0
  6
Continuous
 62
     7
370
    25
100
AcDbLine
 10
-35.1548801734
 20
0.635
 30
0.0
 11
-31.6907785583
 21
0.635
 31
0.0
  0
LINE
  5
3FE
330
1F
100
AcDbEntity
  8
0
  6
Continuous
 62
     7
370
    25
100
AcDbLine
 10
-31.6907785583
 20
0.635
 30
0.0
 11
-29.9587277507
 21
3.635
 31
0.0
  0
LINE
  5
3FF
330
1F
100
AcDbEntity
  8
0
  6
Continuous
 62
     7
370
    25
100
AcDbLine
 10
23.2758983849
 20
-28.7768357734
 30
0.0
 11
25.0079491924
 21
-31.7768357734
 31
0.0
  0
LINE
  5
400
330
1F
100
AcDbEntity
  8
0
  6
Continuous
 62
     7
370
    25
100
AcDbLine
 10
25.0079491924
 20
-31.7768357734
 30
0.0
 11
28.4720508076
 21
-31.7768357734
 31
0.0
  0
LINE
  5
401
330
1F
100
AcDbEntity
  8
0
  6
Continuous
 62
     7
370
    25
100
AcDbLine
 10
28.4720508076
 20
-31.7768357734
 30
0.0
 11
30.2041016151
 21
-28.7768357734
 31
0.0
  0
LINE
  5
402
330
1F
100
AcDbEntity
  8
0
  6
Continuous
 62
     7
370
    25
100
AcDbLine
 10
30.2041016151
 20
-28.7768357734
 30
0.0
 11
28.4720508076
 21
-25.7768357734
 31
0.0
  0
LINE
  5
403
330
1F
100
AcDbEntity
  8
0
  6
Continuous
 62
     7
370
    25
100
AcDbLine
 10
28.4720508076
 20
-25.7768357734
 30
0.0
 11
25.0079491924
 21
-25.7768357734
 31
0.0
  0
LINE
  5
404
330
1F
100
AcDbEntity
  8
0
  6
Continuous
 62
     7
370
    25
100
AcDbLine
 10
25.0079491924
 20
-25.7768357734
 30
0.0
 11
23.2758983849
 21
-28.7768357734
 31
0.0
  0
LINE
  5
405
330
1F
100
AcDbEntity
  8
0
  6
Continuous
 62
     7
370
    25
100
AcDbLine
 10
23.5212722493
 20
25.415
 30
0.0
 11
21.7892214417
 21
28.415
 31
0.0
  0
LINE
  5
406
330
1F
100
AcDbEntity
  8
0
  6
Continuous
 62
     7
370
    25
100
AcDbLine
 10
21.7892214417
 20
28.415
 30
0.0
 11
18.3251198266
 21
28.415
 31
0.0
  0
LINE
  5
407
330
1F
100
AcDbEntity
  8
0
  6
Continuous
 62
     7
370
    25
100
AcDbLine
 10
18.3251198266
 20
28.415
 30
0.0
 11
16.593069019
 21
25.415
 31
0.0
  0
LINE
  5
408
330
1F
100
AcDbEntity
  8
0
  6
Continuous
 62
     7
370
    25
100
AcDbLine
 10
16.593069019
 20
25.415
 30
0.0
 11
18.3251198266
 21
22.415
 31
0.0
  0
LINE
  5
409
330
1F
100
AcDbEntity
  8
0
  6
Continuous
 62
     7
370
    25
100
AcDbLine
 10
18.3251198266
 20
22.415
 30
0.0
 11
21.7892214417
 21
22.415
 31
0.0
  0
LINE
  5
40A
330
1F
100
AcDbEntity
  8
0
  6
Continuous
 62
     7
370
    25
100
AcDbLine
 10
21.7892214417
 20
22.415
 30
0.0
 11
23.5212722493
 21
25.415
 31
0.0
  0
LINE
  5
40B
330
1F
100
AcDbEntity
  8
0
  6
Continuous
 62
     7
370
    25
100
AcDbLine
 10
-16.5887277507
 20
-3.625
 30
0.0
 11
-18.3207785583
 21
-0.625
 31
0.0
  0
LINE
  5
40C
330
1F
100
AcDbEntity
  8
0
  6
Continuous
 62
     7
370
    25
100
AcDbLine
 10
-18.3207785583
 20
-0.625
 30
0.0
 11
-21.7848801734
 21
-0.625
 31
0.0
  0
LINE
  5
40D
330
1F
100
AcDbEntity
  8
0
  6
Continuous
 62
     7
370
    25
100
AcDbLine
 10
-21.7848801734
 20
-0.625
 30
0.0
 11
-23.516930981
 21
-3.625
 31
0.0
  0
LINE
  5
40E
330
1F
100
AcDbEntity
  8
0
  6
Continuous
 62
     7
370
    25
100
AcDbLine
 10
-23.516930981
 20
-3.625
 30
0.0
 11
-21.7848801734
 21
-6.625
 31
0.0
  0
LINE
  5
40F
330
1F
100
AcDbEntity
  8
0
  6
Continuous
 62
     7
370
    25
100
AcDbLine
 10
-21.7848801734
 20
-6.625
 30
0.0
 11
-18.3207785583
 21
-6.625
 31
0.0
  0
LINE
  5
410
330
1F
100
AcDbEntity
  8
0
  6
Continuous
 62
     7
370
    25
100
AcDbLine
 10
-18.3207785583
 20
-6.625
 30
0.0
 11
-16.5887277507
 21
-3.625
 31
0.0
  0
LINE
  5
411
330
1F
100
AcDbEntity
  8
0
  6
Continuous
 62
     7
370
    25
100
AcDbLine
 10
-16.5887277507
 20
3.635
 30
0.0
 11
-18.3207785583
 21
6.635
 31
0.0
  0
LINE
  5
412
330
1F
100
AcDbEntity
  8
0
  6
Continuous
 62
     7
370
    25
100
AcDbLine
 10
-18.3207785583
 20
6.635
 30
0.0
 11
-21.7848801734
 21
6.635
 31
0.0
  0
LINE
  5
413
330
1F
100
AcDbEntity
  8
0
  6
Continuous
 62
     7
370
    25
100
AcDbLine
 10
-21.7848801734
 20
6.635
 30
0.0
 11
-23.516930981
 21
3.635
 31
0.0
  0
LINE
  5
414
330
1F
100
AcDbEntity
  8
0
  6
Continuous
 62
     7
370
    25
100
AcDbLine
 10
-23.516930981
 20
3.635
 30
0.0
 11
-21.7848801734
 21
0.635
 31
0.0
  0
LINE
  5
415
330
1F
100
AcDbEntity
  8
0
  6
Continuous
 62
     7
370
    25
100
AcDbLine
 10
-21.7848801734
 20
0.635
 30
0.0
 11
-18.3207785583
 21
0.635
 31
0.0
  0
LINE
  5
416
330
1F
100
AcDbEntity
  8
0
  6
Continuous
 62
     7
370
    25
100
AcDbLine
 10
-18.3207785583
 20
0.635
 30
0.0
 11
-16.5887277507
 21
3.635
 31
0.0
  0
LINE
  5
417
330
1F
100
AcDbEntity
  8
0
  6
Continuous
 62
     7
370
    25
100
AcDbLine
 10
-16.5887277507
 20
25.415
 30
0.0
 11
-18.3207785583
 21
28.415
 31
0.0
  0
LINE
  5
418
330
1F
100
AcDbEntity
  8
0
  6
Continuous
 62
     7
370
    25
100
AcDbLine
 10
-18.3207785583
 20
28.415
 30
0.0
 11
-21.7848801734
 21
28.415
 31
0.0
  0
LINE
  5
419
330
1F
100
AcDbEntity
  8
0
  6
Continuous
 62
     7
370
    25
100
AcDbLine
 10
-21.7848801734
 20
28.415
 30
0.0
 11
-23.516930981
 21
25.415
 31
0.0
  0
LINE
  5
41A
330
1F
100
AcDbEntity
  8
0
  6
Continuous
 62
     7
370
    25
100
AcDbLine
 10
-23.516930981
 20
25.415
 30
0.0
 11
-21.7848801734
 21
22.415
 31
0.0
  0
LINE
  5
41B
330
1F
100
AcDbEntity
  8
0
  6
Continuous
 62
     7
370
    25
100
AcDbLine
 10
-21.7848801734
 20
22.415
 30
0.0
 11
-18.3207785583
 21
22.415
 31
0.0
  0
LINE
  5
41C
330
1F
100
AcDbEntity
  8
0
  6
Continuous
 62
     7
370
    25
100
AcDbLine
 10
-18.3207785583
 20
22.415
 30
0.0
 11
-16.5887277507
 21
25.415
 31
0.0
  0
LINE
  5
41D
330
1F
100
AcDbEntity
  8
0
  6
Continuous
 62
     7
370
    25
100
AcDbLine
 10
-16.5887277507
 20
-25.2076268301
 30
0.0
 11
-18.3207785583
 21
-22.2076268301
 31
0.0
  0
LINE
  5
41E
330
1F
100
AcDbEntity
  8
0
  6
Continuous
 62
     7
370
    25
100
AcDbLine
 10
-18.3207785583
 20
-22.2076268301
 30
0.0
 11
-21.7848801734
 21
-22.2076268301
 31
0.0
  0
LINE
  5
41F
330
1F
100
AcDbEntity
  8
0
  6
Continuous
 62
     7
370
    25
100
AcDbLine
 10
-21.7848801734
 20
-22.2076268301
 30
0.0
 11
-23.516930981
 21
-25.2076268301
 31
0.0
  0
LINE
  5
420
330
1F
100
AcDbEntity
  8
0
  6
Continuous
 62
     7
370
    25
100
AcDbLine
 10
-23.516930981
 20
-25.2076268301
 30
0.0
 11
-21.7848801734
 21
-28.2076268301
 31
0.0
  0
LINE
  5
421
330
1F
100
AcDbEntity
  8
0
  6
Continuous
 62
     7
370
    25
100
AcDbLine
 10
-21.7848801734
 20
-28.2076268301
 30
0.0
 11
-18.3207785583
 21
-28.2076268301
 31
0.0
  0
LINE
  5
422
330
1F
100
AcDbEntity
  8
0
  6
Continuous
 62
     7
370
    25
100
AcDbLine
 10
-18.3207785583
 20
-28.2076268301
 30
0.0
 11
-16.5887277507
 21
-25.2076268301
 31
0.0
  0
LINE
  5
423
330
1F
100
AcDbEntity
  8
0
  6
Continuous
 62
     7
370
    25
100
AcDbLine
 10
-16.5887277507
 20
-18.0134178867
 30
0.0
 11
-18.3207785583
 21
-15.0134178867
 31
0.0
  0
LINE
  5
424
330
1F
100
AcDbEntity
  8
0
  6
Continuous
 62
     7
370
    25
100
AcDbLine
 10
-18.3207785583
 20
-15.0134178867
 30
0.0
 11
-21.7848801734
 21
-15.0134178867
 31
0.0
  0
LINE
  5
425
330
1F
100
AcDbEntity
  8
0
  6
Continuous
 62
     7
370
    25
100
AcDbLine
 10
-21.7848801734
 20
-15.0134178867
 30
0.0
 11
-23.516930981
 21
-18.0134178867
 31
0.0
  0
LINE
  5
426
330
1F
100
AcDbEntity
  8
0
  6
Continuous
 62
     7
370
    25
100
AcDbLine
 10
-23.516930981
 20
-18.0134178867
 30
0.0
 11
-21.7848801734
 21
-21.0134178867
 31
0.0
  0
LINE
  5
427
330
1F
100
AcDbEntity
  8
0
  6
Continuous
 62
     7
370
    25
100
AcDbLine
 10
-21.7848801734
 20
-21.0134178867
 30
0.0
 11
-18.3207785583
 21
-21.0134178867
 31
0.0
  0
LINE
  5
428
330
1F
100
AcDbEntity
  8
0
  6
Continuous
 62
     7
370
    25
100
AcDbLine
 10
-18.3207785583
 20
-21.0134178867
 30
0.0
 11
-16.5887277507
 21
-18.0134178867
 31
0.0
  0
LINE
  5
429
330
1F
100
AcDbEntity
  8
0
  6
Continuous
 62
     7
370
    25
100
AcDbLine
 10
-16.5887277507
 20
18.155
 30
0.0
 11
-18.3207785583
 21
21.155
 31
0.0
  0
LINE
  5
42A
330
1F
100
AcDbEntity
  8
0
  6
Continuous
 62
     7
370
    25
100
AcDbLine
 10
-18.3207785583
 20
21.155
 30
0.0
 11
-21.7848801734
 21
21.155
 31
0.0
  0
LINE
  5
42B
330
1F
100
AcDbEntity
  8
0
  6
Continuous
 62
     7
370
    25
100
AcDbLine
 10
-21.7848801734
 20
21.155
 30
0.0
 11
-23.516930981
 21
18.155
 31
0.0
  0
LINE
  5
42C
330
1F
100
AcDbEntity
  8
0
  6
Continuous
 62
     7
370
    25
100
AcDbLine
 10
-23.516930981
 20
18.155
 30
0.0
 11
-21.7848801734
 21
15.155
 31
0.0
  0
LINE
  5
42D
330
1F
100
AcDbEntity
  8
0
  6
Continuous
 62
     7
370
    25
100
AcDbLine
 10
-21.7848801734
 20
15.155
 30
0.0
 11
-18.3207785583
 21
15.155
 31
0.0
  0
LINE
  5
42E
330
1F
100
AcDbEntity
  8
0
  6
Continuous
 62
     7
370
    25
100
AcDbLine
 10
-18.3207785583
 20
15.155
 30
0.0
 11
-16.5887277507
 21
18.155
 31
0.0
  0
LINE
  5
42F
330
1F
100
AcDbEntity
  8
0
  6
Continuous
 62
     7
370
    25
100
AcDbLine
 10
4.14
 20
47.3585652145
 30
0.0
 11
12.64
 21
47.3585652145
 31
0.0
  0
ARC
  5
430
330
1F
100
AcDbEntity
  8
0
  6
Continuous
 62
     7
370
    25
100
AcDbCircle
 10
-38.8504926915
 20
34.0429
 30
0.0
 40
0.4000500000000002
100
AcDbArc
 50
180.0
 51
0.0
  0
ARC
  5
431
330
1F
100
AcDbEntity
  8
0
  6
Continuous
 62
     7
370
    25
100
AcDbCircle
 10
38.8684032835
 20
34.0429
 30
0.0
 40
0.4000500000000002
100
AcDbArc
 50
180.0
 51
0.0
  0
ARC
  5
432
330
1F
100
AcDbEntity
  8
0
  6
Continuous
 62
     7
370
    25
100
AcDbCircle
 10
40.5566106747
 20
34.875
 30
0.0
 40
2.000000000000375
100
AcDbArc
 50
65.0
 51
90.0
  0
ARC
  5
433
330
1F
100
AcDbEntity
  8
0
  6
Continuous
 62
     7
370
    25
100
AcDbCircle
 10
43.0
 20
33.7356288458
 30
0.0
 40
2.000000000000011
100
AcDbArc
 50
0.0
 51
65.0
  0
ARC
  5
434
330
1F
100
AcDbEntity
  8
0
  6
Continuous
 62
     7
370
    25
100
AcDbCircle
 10
42.1679
 20
11.0531035304
 30
0.0
 40
0.4000500000000038
100
AcDbArc
 50
90.0
 51
270.0
  0
ARC
  5
435
330
1F
100
AcDbEntity
  8
0
  6
Continuous
 62
     7
370
    25
100
AcDbCircle
 10
63.7733652145
 20
-31.665
 30
0.0
 40
5.210000000000015
100
AcDbArc
 50
270.0
 51
0.0
  0
ARC
  5
436
330
1F
100
AcDbEntity
  8
0
  6
Continuous
 62
     7
370
    25
100
AcDbCircle
 10
-63.7733652145
 20
-31.665
 30
0.0
 40
5.209999999999987
100
AcDbArc
 50
180.0
 51
270.0
  0
ARC
  5
437
330
1F
100
AcDbEntity
  8
0
  6
Continuous
 62
     7
370
    25
100
AcDbCircle
 10
-42.1679
 20
11.0559446109
 30
0.0
 40
0.4000500000000002
100
AcDbArc
 50
270.0
 51
90.0
  0
ARC
  5
438
330
1F
100
AcDbEntity
  8
0
  6
Continuous
 62
     7
370
    25
100
AcDbCircle
 10
-43.0
 20
33.7356288458
 30
0.0
 40
2.000000000000032
100
AcDbArc
 50
115.0
 51
180.0
  0
ARC
  5
439
330
1F
100
AcDbEntity
  8
0
  6
Continuous
 62
     7
370
    25
100
AcDbCircle
 10
-40.5566106747
 20
34.875
 30
0.0
 40
1.999999999999936
100
AcDbArc
 50
90.0
 51
115.0
  0
LINE
  5
43D
330
1F
100
AcDbEntity
  8
0
  6
Continuous
 62
     8
370
     0
100
AcDbLine
 10
-45.0917826073
 20
10.6558946109
 30
0.0
 11
-45.0917826073
 21
-36.875
 31
0.0
  0
LINE
  5
43E
330
1F
100
AcDbEntity
  8
0
  6
Continuous
 62
     8
370
     0
100
AcDbLine
 10
45.0917826073
 20
-36.875
 30
0.0
 11
45.0917826073
 21
10.6530535304
 31
0.0
  0
LINE
  5
43F
330
1F
100
AcDbEntity
  8
0
  6
Continuous
 62
     8
370
     0
100
AcDbLine
 10
38.4683532835
 20
36.9667826073
 30
0.0
 11
-38.4504426915
 21
36.9667826073
 31
0.0
  0
MTEXT
  5
441
330
1F
100
AcDbEntity
  8
0
  6
Continuous
 62
     7
100
AcDbMText
 10
-68.9833652145
 20
-37.8945663917
 30
0.0
 40
4.83362
 41
0.0
 71
     1
 72
     1
  1
SOLIDWORKS Educational Product.
  7
SLDTEXTSTYLE0
 73
     1
 44
1.0
  0
MTEXT
  5
442
330
1F
100
AcDbEntity
  8
0
  6
Continuous
 62
     7
100
AcDbMText
 10
-68.9833652145
 20
-45.1449963917
 30
0.0
 40
4.83362
 41
0.0
 71
     1
 72
     1
  1
For Instructional Use Only.
  7
SLDTEXTSTYLE0
 73
     1
 44
1.0
  0
ENDSEC
  0
SECTION
  2
OBJECTS
  0
DICTIONARY
  5
C
330
0
100
AcDbDictionary
281
     1
  3
ACAD_GROUP
350
D
  3
ACAD_LAYOUT
350
1A
  3
ACAD_MLINESTYLE
350
17
  3
ACAD_PLOTSETTINGS
350
19
  3
ACAD_PLOTSTYLENAME
350
E
  3
ACAD_SCALELIST
350
47
  3
DWGPROPS
350
443
  0
DICTIONARY
  5
D
102
{ACAD_REACTORS
330
C
102
}
330
C
100
AcDbDictionary
281
     1
  0
DICTIONARY
  5
1A
102
{ACAD_REACTORS
330
C
102
}
330
C
100
AcDbDictionary
281
     1
  3
Layout1
350
1E
  3
Layout2
350
26
  3
Model
350
22
  0
DICTIONARY
  5
17
102
{ACAD_REACTORS
330
C
102
}
330
C
100
AcDbDictionary
281
     1
  3
Standard
350
18
  0
DICTIONARY
  5
19
102
{ACAD_REACTORS
330
C
102
}
330
C
100
AcDbDictionary
281
     1
  0
ACDBDICTIONARYWDFLT
  5
E
102
{ACAD_REACTORS
330
C
102
}
330
C
100
AcDbDictionary
281
     1
  3
Normal
350
F
100
AcDbDictionaryWithDefault
340
F
  0
DICTIONARY
  5
47
102
{ACAD_REACTORS
330
C
102
}
330
C
100
AcDbDictionary
281
     1
  3
A0
350
48
  3
A1
350
49
  3
A2
350
4A
  3
A3
350
4B
  3
A4
350
4C
  3
A5
350
4D
  3
A6
350
4E
  3
A7
350
4F
  3
A8
350
50
  3
A9
350
51
  3
B0
350
52
  3
B1
350
53
  3
B2
350
54
  3
B3
350
55
  3
B4
350
56
  3
B5
350
57
  3
B6
350
58
  0
XRECORD
  5
443
102
{ACAD_REACTORS
330
C
102
}
330
C
100
AcDbXrecord
280
     1
  1
DWGPROPS COOKIE
  2

  3

  4

  6

  7

  8
mtfunder
  9

300
=
301
=
302
=
303
=
304
=
305
=
306
=
307
=
308
=
309
=
 40
0.0
 41
2460439.439776701
 42
2460439.439833345
  1

 90
        0
  0
LAYOUT
  5
1E
102
{ACAD_REACTORS
330
1A
102
}
330
1A
100
AcDbPlotSettings
  1

  2
none_device
  4

  6

 40
0.0
 41
0.0
 42
0.0
 43
0.0
 44
0.0
 45
0.0
 46
0.0
 47
0.0
 48
0.0
 49
0.0
140
0.0
141
0.0
142
1.0
143
1.0
 70
   688
 72
     1
 73
     0
 74
     5
  7

 75
    16
147
1.0
148
0.0
149
0.0
100
AcDbLayout
  1
Layout1
 70
     1
 71
     1
 10
0.0
 20
0.0
 11
420.0
 21
297.0
 12
0.0
 22
0.0
 32
0.0
 14
1.0000000000E+20
 24
1.0000000000E+20
 34
1.0000000000E+20
 15
-1.0000000000E+20
 25
-1.0000000000E+20
 35
-1.0000000000E+20
146
0.0
 13
0.0
 23
0.0
 33
0.0
 16
1.0
 26
0.0
 36
0.0
 17
0.0
 27
1.0
 37
0.0
 76
     0
330
1B
  0
LAYOUT
  5
26
102
{ACAD_REACTORS
330
1A
102
}
330
1A
100
AcDbPlotSettings
  1

  2
none_device
  4

  6

 40
0.0
 41
0.0
 42
0.0
 43
0.0
 44
0.0
 45
0.0
 46
0.0
 47
0.0
 48
0.0
 49
0.0
140
0.0
141
0.0
142
1.0
143
1.0
 70
   688
 72
     1
 73
     0
 74
     5
  7

 75
    16
147
1.0
148
0.0
149
0.0
100
AcDbLayout
  1
Layout2
 70
     1
 71
     2
 10
0.0
 20
0.0
 11
0.0
 21
0.0
 12
0.0
 22
0.0
 32
0.0
 14
0.0
 24
0.0
 34
0.0
 15
0.0
 25
0.0
 35
0.0
146
0.0
 13
0.0
 23
0.0
 33
0.0
 16
1.0
 26
0.0
 36
0.0
 17
0.0
 27
1.0
 37
0.0
 76
     0
330
23
  0
LAYOUT
  5
22
102
{ACAD_REACTORS
330
1A
102
}
330
1A
100
AcDbPlotSettings
  1

  2
none_device
  4
ANSI_A_(11.00_x_8.50_Inches)
  6

 40
6.35
 41
19.05
 42
6.35000508
 43
19.05000254
 44
279.4
 45
215.9
 46
133.34999746
 47
65.2591532224
 48
0.0
 49
0.0
140
0.0
141
0.0
142
0.0789320727
143
1.0
 70
  1696
 72
     0
 73
     0
 74
     0
  7

 75
     0
147
0.0179189148
148
-1300.4909072572
149
0.0
100
AcDbLayout
  1
Model
 70
     1
 71
     0
 10
0.0
 20
0.0
 11
420.0
 21
297.0
 12
0.0
 22
0.0
 32
0.0
 14
-68.9833652145
 24
-36.875
 34
0.0
 15
68.9833652145
 25
60.4583652145
 35
0.0
146
0.0
 13
0.0
 23
0.0
 33
0.0
 16
1.0
 26
0.0
 36
0.0
 17
0.0
 27
1.0
 37
0.0
 76
     0
330
1F
331
29
  0
MLINESTYLE
  5
18
102
{ACAD_REACTORS
330
17
102
}
330
17
100
AcDbMlineStyle
  2
Standard
 70
     0
  3

 62
   256
 51
90.0
 52
90.0
 71
     2
 49
0.5
 62
   256
  6
BYLAYER
 49
-0.5
 62
   256
  6
BYLAYER
  0
ACDBPLACEHOLDER
  5
F
102
{ACAD_REACTORS
330
E
102
}
330
E
  0
SCALE
  5
48
102
{ACAD_REACTORS
330
47
102
}
330
47
100
AcDbScale
 70
     0
300
1:1
140
1.0
141
1.0
290
     1
  0
SCALE
  5
49
102
{ACAD_REACTORS
330
47
102
}
330
47
100
AcDbScale
 70
     0
300
1:2
140
1.0
141
2.0
290
     0
  0
SCALE
  5
4A
102
{ACAD_REACTORS
330
47
102
}
330
47
100
AcDbScale
 70
     0
300
1:4
140
1.0
141
4.0
290
     0
  0
SCALE
  5
4B
102
{ACAD_REACTORS
330
47
102
}
330
47
100
AcDbScale
 70
     0
300
1:5
140
1.0
141
5.0
290
     0
  0
SCALE
  5
4C
102
{ACAD_REACTORS
330
47
102
}
330
47
100
AcDbScale
 70
     0
300
1:8
140
1.0
141
8.0
290
     0
  0
SCALE
  5
4D
102
{ACAD_REACTORS
330
47
102
}
330
47
100
AcDbScale
 70
     0
300
1:10
140
1.0
141
10.0
290
     0
  0
SCALE
  5
4E
102
{ACAD_REACTORS
330
47
102
}
330
47
100
AcDbScale
 70
     0
300
1:16
140
1.0
141
16.0
290
     0
  0
SCALE
  5
4F
102
{ACAD_REACTORS
330
47
102
}
330
47
100
AcDbScale
 70
     0
300
1:20
140
1.0
141
20.0
290
     0
  0
SCALE
  5
50
102
{ACAD_REACTORS
330
47
102
}
330
47
100
AcDbScale
 70
     0
300
1:30
140
1.0
141
30.0
290
     0
  0
SCALE
  5
51
102
{ACAD_REACTORS
330
47
102
}
330
47
100
AcDbScale
 70
     0
300
1:40
140
1.0
141
40.0
290
     0
  0
SCALE
  5
52
102
{ACAD_REACTORS
330
47
102
}
330
47
100
AcDbScale
 70
     0
300
1:50
140
1.0
141
50.0
290
     0
  0
SCALE
  5
53
102
{ACAD_REACTORS
330
47
102
}
330
47
100
AcDbScale
 70
     0
300
1:100
140
1.0
141
100.0
290
     0
  0
SCALE
  5
54
102
{ACAD_REACTORS
330
47
102
}
330
47
100
AcDbScale
 70
     0
300
2:1
140
2.0
141
1.0
290
     0
  0
SCALE
  5
55
102
{ACAD_REACTORS
330
47
102
}
330
47
100
AcDbScale
 70
     0
300
4:1
140
4.0
141
1.0
290
     0
  0
SCALE
  5
56
102
{ACAD_REACTORS
330
47
102
}
330
47
100
AcDbScale
 70
     0
300
8:1
140
8.0
141
1.0
290
     0
  0
SCALE
  5
57
102
{ACAD_REACTORS
330
47
102
}
330
47
100
AcDbScale
 70
     0
300
10:1
140
10.0
141
1.0
290
     0
  0
SCALE
  5
58
102
{ACAD_REACTORS
330
47
102
}
330
47
100
AcDbScale
 70
     0
300
100:1
140
100.0
141
1.0
290
     0
  0
ENDSEC
  0
EOF
